SplineFontDB: 3.2
FontName: ATM234-Regular
FullName: ATM234-Regular
FamilyName: ATM 234
Weight: Book
Version: 1.001
ItalicAngle: -11
UnderlinePosition: -271
UnderlineWidth: 102
Ascent: 1600
Descent: 400
InvalidEm: 0
sfntRevision: 0x00010042
LayerCount: 2
Layer: 0 1 "Back" 1
Layer: 1 1 "Fore" 0
XUID: [1021 192 2086997156 6719]
StyleMap: 0x0040
FSType: 8
OS2Version: 3
OS2_WeightWidthSlopeOnly: 0
OS2_UseTypoMetrics: 0
CreationTime: 1537331720
ModificationTime: 1545822732
PfmFamily: 17
TTFWeight: 400
TTFWidth: 5
LineGap: 0
VLineGap: 0
Panose: 2 0 5 5 0 0 0 2 0 2
OS2TypoAscent: 2000
OS2TypoAOffset: 0
OS2TypoDescent: -1320
OS2TypoDOffset: 0
OS2TypoLinegap: 0
OS2WinAscent: 2000
OS2WinAOffset: 0
OS2WinDescent: 744
OS2WinDOffset: 0
HheadAscent: 2000
HheadAOffset: 0
HheadDescent: -1320
HheadDOffset: 0
OS2SubXSize: 1400
OS2SubYSize: 1300
OS2SubXOff: 0
OS2SubYOff: 0
OS2SupXSize: 1400
OS2SupYSize: 1300
OS2SupXOff: 0
OS2SupYOff: 0
OS2StrikeYSize: 100
OS2StrikeYPos: 518
OS2CapHeight: 1586
OS2XHeight: -200
OS2Vendor: '    '
OS2CodePages: 00000001.00000000
OS2UnicodeRanges: 00100003.00000000.00000000.00000000
Lookup: 4 0 0 "'akhn' Akhand in Tamil2 lookup 0" { "'akhn' Akhand in Tamil2 lookup 0 subtable"  } ['akhn' ('tml2' <'dflt' > ) ]
Lookup: 4 0 0 "'akhn' Akhand in Tamil lookup 1" { "'akhn' Akhand in Tamil lookup 1 subtable"  } ['akhn' ('taml' <'dflt' > ) ]
Lookup: 4 0 0 "'half' Half Forms in Tamil lookup 2" { "'half' Half Forms in Tamil lookup 2 subtable"  } ['half' ('taml' <'dflt' > ) ]
Lookup: 4 0 0 "'haln' Halant Forms in Tamil2 lookup 3" { "'haln' Halant Forms in Tamil2 lookup 3 subtable"  } ['haln' ('tml2' <'dflt' > ) ]
Lookup: 4 0 0 "'haln' Halant Forms in Tamil lookup 4" { "'haln' Halant Forms in Tamil lookup 4 subtable"  } ['haln' ('taml' <'dflt' > ) ]
Lookup: 4 0 0 "'abvs' Above Base Substitutions lookup 5" { "'abvs' Above Base Substitutions lookup 5 subtable"  } ['abvs' ('taml' <'dflt' > 'tml2' <'dflt' > ) ]

StartChar: exclam
Encoding: 33 33 4
Width: 520
GlyphClass: 2
Flags: W
LayerCount: 2
Fore
SplineSet
374 1024 m 1,0,1
 294 684 294 684 294 476 c 0,2,3
 294 386 294 386 304 294 c 1,4,-1
 154 294 l 1,5,6
 142 412 142 412 142 524 c 0,7,8
 142 716 142 716 200 1024 c 1,9,-1
 374 1024 l 1,0,1
422 164 m 0,10,11
 450 116 450 116 450 70 c 0,12,13
 450 2 450 2 397 -43 c 128,-1,14
 344 -88 344 -88 294 -88 c 0,15,16
 240 -88 240 -88 180 -57 c 128,-1,17
 120 -26 120 -26 92 22 c 0,18,19
 70 58 70 58 70 98 c 0,20,21
 70 162 70 162 118 208 c 128,-1,22
 166 254 166 254 236 254 c 0,23,24
 370 254 370 254 422 164 c 0,10,11
EndSplineSet
EndChar

StartChar: quotedbl
Encoding: 34 34 5
Width: 606
GlyphClass: 2
Flags: W
LayerCount: 2
Fore
SplineSet
109 647 m 1,0,-1
 63 912 l 1,1,-1
 63 1140 l 1,2,-1
 257 1140 l 1,3,-1
 257 912 l 1,4,-1
 214 647 l 1,5,-1
 109 647 l 1,0,-1
423 647 m 1,6,-1
 378 912 l 1,7,-1
 378 1140 l 1,8,-1
 572 1140 l 1,9,-1
 572 912 l 1,10,-1
 527 647 l 1,11,-1
 423 647 l 1,6,-1
EndSplineSet
EndChar

StartChar: numbersign
Encoding: 35 35 6
Width: 1203
GlyphClass: 2
Flags: W
LayerCount: 2
Fore
SplineSet
179 22 m 1,0,-1
 264 356 l 1,1,-1
 103 356 l 1,2,-1
 103 473 l 1,3,-1
 288 473 l 1,4,-1
 358 761 l 1,5,-1
 103 761 l 1,6,-1
 103 876 l 1,7,-1
 386 876 l 1,8,-1
 471 1218 l 1,9,-1
 609 1218 l 1,10,-1
 526 876 l 1,11,-1
 817 876 l 1,12,-1
 903 1218 l 1,13,-1
 1041 1218 l 1,14,-1
 962 876 l 1,15,-1
 1124 876 l 1,16,-1
 1124 761 l 1,17,-1
 932 761 l 1,18,-1
 861 473 l 1,19,-1
 1124 473 l 1,20,-1
 1124 356 l 1,21,-1
 832 356 l 1,22,-1
 755 22 l 1,23,-1
 611 22 l 1,24,-1
 688 356 l 1,25,-1
 401 356 l 1,26,-1
 322 22 l 1,27,-1
 179 22 l 1,0,-1
435 473 m 1,28,-1
 724 473 l 1,29,-1
 792 761 l 1,30,-1
 501 761 l 1,31,-1
 435 473 l 1,28,-1
EndSplineSet
EndChar

StartChar: dollar
Encoding: 36 36 7
Width: 908
GlyphClass: 2
Flags: W
LayerCount: 2
Fore
SplineSet
766 302 m 0,0,1
 744 187 744 187 654 120 c 0,2,3
 572 60 572 60 456 60 c 1,4,-1
 456 -52 l 1,5,-1
 383 -52 l 1,6,-1
 383 60 l 1,7,8
 372 60 372 60 357 60 c 0,9,10
 336 65 336 65 330 71 c 2,11,-1
 264 92 l 2,12,13
 242 95 242 95 229.5 102.5 c 128,-1,14
 217 110 217 110 188 131 c 2,15,-1
 146 156 l 1,16,-1
 180 232 l 1,17,-1
 217 204 l 2,18,19
 259 169 259 169 284 156 c 2,20,-1
 336 137 l 1,21,-1
 383 134 l 1,22,-1
 383 518 l 1,23,24
 230 560 230 560 169 630 c 0,25,26
 99 710 99 710 99 838 c 2,27,-1
 99 872 l 1,28,-1
 104 912 l 2,29,30
 119 1045 119 1045 217 1126 c 0,31,32
 299 1192 299 1192 383 1192 c 1,33,-1
 383 1289 l 1,34,-1
 456 1289 l 1,35,-1
 456 1197 l 1,36,-1
 510 1191 l 2,37,38
 531 1191 531 1191 541.5 1190 c 128,-1,39
 552 1189 552 1189 578 1176 c 1,40,41
 688 1140 688 1140 688 1126 c 1,42,-1
 659 1037 l 1,43,-1
 646 1048 l 2,44,45
 615 1079 615 1079 563 1101 c 0,46,47
 537 1112 537 1112 517.5 1116.5 c 128,-1,48
 498 1121 498 1121 491 1121 c 0,49,50
 466 1121 466 1121 456 1126 c 1,51,-1
 456 739 l 1,52,53
 561 717 561 717 615 686 c 0,54,55
 773 594 773 594 773 404 c 2,56,-1
 772 355 l 2,57,58
 772 330 772 330 766 302 c 0,0,1
383 770 m 1,59,-1
 383 1126 l 1,60,61
 330 1121 330 1121 281 1080 c 0,62,63
 219 1030 219 1030 219 964 c 0,64,65
 219 872 219 872 283 819 c 0,66,67
 297 807 297 807 322.5 796 c 128,-1,68
 348 785 348 785 383 770 c 1,59,-1
653 317 m 0,69,70
 653 404 653 404 573 448 c 1,71,-1
 456 493 l 1,72,-1
 456 134 l 1,73,74
 547 134 547 134 600 185 c 128,-1,75
 653 236 653 236 653 317 c 0,69,70
EndSplineSet
EndChar

StartChar: percent
Encoding: 37 37 8
Width: 1230
GlyphClass: 2
Flags: W
LayerCount: 2
Fore
SplineSet
1120 280 m 0,0,1
 1146 236 1146 236 1146 176 c 0,2,3
 1146 110 1146 110 1112 64 c 0,4,5
 1074 12 1074 12 1006 12 c 0,6,7
 920 12 920 12 859 74 c 128,-1,8
 798 136 798 136 798 220 c 0,9,10
 798 290 798 290 830 334 c 0,11,12
 870 388 870 388 946 388 c 0,13,14
 1058 388 1058 388 1120 280 c 0,0,1
866 768 m 1,15,16
 630 500 630 500 594 0 c 1,17,-1
 438 0 l 1,18,19
 436 226 436 226 516 444 c 0,20,21
 560 570 560 570 670 768 c 1,22,-1
 866 768 l 1,15,16
454 582 m 0,23,24
 454 518 454 518 414 472 c 128,-1,25
 374 426 374 426 308 426 c 0,26,27
 172 426 172 426 110 532 c 0,28,29
 84 578 84 578 84 626 c 0,30,31
 84 694 84 694 127 742 c 128,-1,32
 170 790 170 790 220 790 c 0,33,34
 274 790 274 790 337 758 c 128,-1,35
 400 726 400 726 427 679 c 128,-1,36
 454 632 454 632 454 582 c 0,23,24
EndSplineSet
EndChar

StartChar: ampersand
Encoding: 38 38 9
Width: 1064
GlyphClass: 2
Flags: W
LayerCount: 2
Fore
SplineSet
1080 -150 m 1,0,-1
 1026 -226 l 1,1,-1
 880 -82 l 1,2,3
 762 -284 762 -284 590 -284 c 0,4,5
 470 -284 470 -284 325 -211 c 128,-1,6
 180 -138 180 -138 128 -48 c 0,7,8
 106 -10 106 -10 106 44 c 0,9,10
 106 138 106 138 170 272 c 0,11,12
 224 384 224 384 296 472 c 1,13,14
 224 546 224 546 198 576 c 0,15,16
 140 640 140 640 111 691 c 128,-1,17
 82 742 82 742 82 790 c 0,18,19
 82 882 82 882 176 946 c 0,20,21
 260 1002 260 1002 352 1002 c 0,22,23
 422 1002 422 1002 485 966 c 128,-1,24
 548 930 548 930 576 882 c 0,25,26
 608 826 608 826 608 770 c 0,27,28
 608 710 608 710 568 626 c 0,29,30
 554 596 554 596 472 446 c 1,31,-1
 786 132 l 1,32,33
 830 246 830 246 830 392 c 1,34,-1
 976 314 l 1,35,36
 980 298 980 298 980 270 c 0,37,38
 980 210 980 210 961 122 c 128,-1,39
 942 34 942 34 924 2 c 1,40,-1
 1080 -150 l 1,0,-1
444 826 m 0,41,42
 426 858 426 858 386 858 c 256,43,44
 346 858 346 858 302 826 c 128,-1,45
 258 794 258 794 258 746 c 0,46,47
 258 718 258 718 274 690 c 0,48,49
 298 650 298 650 360 576 c 1,50,51
 446 754 446 754 446 814 c 0,52,53
 446 822 446 822 444 826 c 0,41,42
744 48 m 1,54,-1
 434 340 l 1,55,56
 384 262 384 262 334 182 c 0,57,58
 264 70 264 70 264 10 c 0,59,60
 264 -12 264 -12 274 -30 c 0,61,62
 298 -70 298 -70 370 -106 c 0,63,64
 436 -140 436 -140 482 -140 c 0,65,66
 584 -140 584 -140 666 -66 c 0,67,68
 732 -6 732 -6 744 48 c 1,54,-1
EndSplineSet
EndChar

StartChar: quotesingle
Encoding: 39 39 10
Width: 368
GlyphClass: 2
Flags: W
LayerCount: 2
Fore
SplineSet
137 647 m 1,0,-1
 91 912 l 1,1,-1
 91 1140 l 1,2,-1
 285 1140 l 1,3,-1
 285 912 l 1,4,-1
 242 647 l 1,5,-1
 137 647 l 1,0,-1
EndSplineSet
EndChar

StartChar: parenleft
Encoding: 40 40 11
Width: 936
GlyphClass: 2
Flags: W
LayerCount: 2
Fore
SplineSet
856 -222 m 1,0,1
 340 -102 340 -102 152 222 c 0,2,3
 84 340 84 340 84 476 c 0,4,5
 84 684 84 684 234 859 c 128,-1,6
 384 1034 384 1034 606 1076 c 1,7,-1
 642 918 l 1,8,9
 514 888 514 888 392 746 c 0,10,11
 256 586 256 586 256 410 c 0,12,13
 256 302 256 302 314 202 c 0,14,15
 426 8 426 8 824 -96 c 1,16,-1
 856 -222 l 1,0,1
EndSplineSet
EndChar

StartChar: parenright
Encoding: 41 41 12
Width: 740
GlyphClass: 2
Flags: W
LayerCount: 2
Fore
SplineSet
776 610 m 0,0,1
 848 486 848 486 848 354 c 0,2,3
 848 142 848 142 680 -30 c 0,4,5
 520 -194 520 -194 308 -224 c 1,6,-1
 276 -96 l 1,7,8
 470 0 470 0 581 134 c 128,-1,9
 692 268 692 268 692 412 c 0,10,11
 692 512 692 512 638 606 c 0,12,13
 532 790 532 790 94 918 c 1,14,-1
 56 1076 l 1,15,16
 304 1014 304 1014 504 880 c 0,17,18
 692 756 692 756 776 610 c 0,0,1
EndSplineSet
EndChar

StartChar: asterisk
Encoding: 42 42 13
Width: 705
GlyphClass: 2
Flags: W
LayerCount: 2
Fore
SplineSet
646 1169 m 1,0,-1
 414 1121 l 1,1,-1
 592 981 l 1,2,-1
 451 875 l 1,3,-1
 346 1073 l 1,4,-1
 267 873 l 1,5,-1
 114 954 l 1,6,-1
 280 1125 l 1,7,-1
 48 1154 l 1,8,-1
 99 1307 l 1,9,-1
 300 1207 l 1,10,-1
 261 1434 l 1,11,-1
 432 1434 l 1,12,-1
 390 1212 l 1,13,-1
 594 1317 l 1,14,-1
 646 1169 l 1,0,-1
EndSplineSet
EndChar

StartChar: plus
Encoding: 43 43 14
Width: 984
GlyphClass: 2
Flags: W
LayerCount: 2
Fore
SplineSet
900 346 m 1,0,-1
 570 346 l 1,1,-1
 708 0 l 1,2,-1
 606 0 l 1,3,-1
 470 346 l 1,4,-1
 122 346 l 1,5,-1
 84 440 l 1,6,-1
 434 440 l 1,7,-1
 308 768 l 1,8,-1
 406 768 l 1,9,-1
 532 440 l 1,10,-1
 874 440 l 1,11,-1
 900 346 l 1,0,-1
EndSplineSet
EndChar

StartChar: comma
Encoding: 44 44 15
Width: 688
GlyphClass: 2
Flags: W
LayerCount: 2
Fore
SplineSet
574 88 m 0,0,1
 574 -8 574 -8 497 -73 c 128,-1,2
 420 -138 420 -138 328 -140 c 1,3,4
 428 -64 428 -64 428 32 c 1,5,6
 372 -4 372 -4 296 -4 c 0,7,8
 156 -4 156 -4 102 90 c 0,9,10
 70 144 70 144 70 194 c 0,11,12
 70 268 70 268 134 312 c 128,-1,13
 198 356 198 356 290 356 c 0,14,15
 362 356 362 356 431 316 c 128,-1,16
 500 276 500 276 537 212 c 128,-1,17
 574 148 574 148 574 88 c 0,0,1
EndSplineSet
EndChar

StartChar: hyphen
Encoding: 45 45 16
Width: 832
GlyphClass: 2
Flags: W
LayerCount: 2
Fore
SplineSet
748 288 m 1,0,1
 610 296 610 296 450 286 c 0,2,3
 260 272 260 272 154 238 c 1,4,5
 108 326 108 326 86 494 c 1,6,7
 252 524 252 524 540 524 c 0,8,9
 634 524 634 524 688 518 c 1,10,11
 708 442 708 442 748 288 c 1,0,1
EndSplineSet
EndChar

StartChar: period
Encoding: 46 46 17
Width: 554
GlyphClass: 2
Flags: W
LayerCount: 2
Fore
SplineSet
412 254 m 0,0,1
 440 206 440 206 440 158 c 0,2,3
 440 92 440 92 393 46 c 128,-1,4
 346 0 346 0 292 0 c 256,5,6
 238 0 238 0 182 28 c 0,7,8
 120 60 120 60 92 108 c 0,9,10
 70 148 70 148 70 196 c 0,11,12
 70 262 70 262 110 309 c 128,-1,13
 150 356 150 356 222 356 c 0,14,15
 352 356 352 356 412 254 c 0,0,1
EndSplineSet
EndChar

StartChar: slash
Encoding: 47 47 18
Width: 334
GlyphClass: 2
Flags: W
LayerCount: 2
Fore
SplineSet
260 -270 m 1,0,-1
 132 -270 l 1,1,-1
 72 1054 l 1,2,-1
 206 1054 l 1,3,-1
 260 -270 l 1,0,-1
EndSplineSet
EndChar

StartChar: zero
Encoding: 48 48 19
Width: 1137
GlyphClass: 2
Flags: W
LayerCount: 2
Fore
SplineSet
965 638 m 0,0,1
 1073 449 1073 449 1073 210 c 0,2,3
 1073 16 1073 16 989 -99 c 0,4,5
 888 -238 888 -238 690 -238 c 0,6,7
 371 -238 371 -238 166 115 c 0,8,9
 48 320 48 320 48 537 c 0,10,11
 48 733 48 733 149 857 c 0,12,13
 262 993 262 993 466 993 c 0,14,15
 608 993 608 993 756 878 c 0,16,17
 885 780 885 780 965 638 c 0,0,1
828 618 m 0,18,19
 803 661 803 661 765 700 c 128,-1,20
 727 739 727 739 675 773 c 0,21,22
 570 845 570 845 482 845 c 0,23,24
 386 845 386 845 310 752 c 0,25,26
 240 665 240 665 225 550 c 1,27,-1
 225 551 l 2,28,29
 224 541 224 541 224 531.5 c 128,-1,30
 224 522 224 522 224 509 c 0,31,32
 224 293 224 293 325 117 c 0,33,34
 369 40 369 40 457 -24 c 0,35,36
 540 -86 540 -86 602 -86 c 0,37,38
 752 -86 752 -86 836 31 c 1,39,-1
 836 30 l 1,40,41
 908 133 908 133 908 299 c 0,42,43
 908 483 908 483 828 618 c 0,18,19
EndSplineSet
EndChar

StartChar: one
Encoding: 49 49 20
Width: 534
GlyphClass: 2
Flags: W
LayerCount: 2
Fore
SplineSet
554 -59 m 1,0,-1
 543 -252 l 1,1,-1
 151 -252 l 1,2,-1
 150 -59 l 1,3,-1
 239 -59 l 1,4,5
 244 40 244 40 249.5 133 c 128,-1,6
 255 226 255 226 260 318 c 128,-1,7
 265 410 265 410 270.5 503 c 128,-1,8
 276 596 276 596 282 696 c 1,9,-1
 242 660 l 1,10,-1
 16 680 l 1,11,12
 43 702 43 702 71.5 725 c 128,-1,13
 100 748 100 748 124 768.5 c 128,-1,14
 148 789 148 789 166 804.5 c 128,-1,15
 184 820 184 820 191 826 c 0,16,17
 280 909 280 909 292 974 c 1,18,-1
 452 974 l 1,19,20
 426 556 426 556 412.5 298 c 128,-1,21
 399 40 399 40 399 -59 c 1,22,-1
 554 -59 l 1,0,-1
EndSplineSet
EndChar

StartChar: two
Encoding: 50 50 21
Width: 843
GlyphClass: 2
Flags: W
LayerCount: 2
Fore
SplineSet
1206 -264 m 1,0,1
 1152 -239 1152 -239 1086.5 -218 c 128,-1,2
 1021 -197 1021 -197 943 -178 c 0,3,4
 867 -161 867 -161 803.5 -151.5 c 128,-1,5
 740 -142 740 -142 688 -142 c 0,6,7
 544 -142 544 -142 449 -162 c 0,8,9
 402 -173 402 -173 346 -195.5 c 128,-1,10
 290 -218 290 -218 226 -254 c 1,11,12
 234 -131 234 -131 268 -12.5 c 128,-1,13
 302 106 302 106 361 225 c 1,14,-1
 556 561 l 1,15,-1
 555 561 l 1,16,17
 616 669 616 669 616 724 c 0,18,19
 616 732 616 732 613.5 740.5 c 128,-1,20
 611 749 611 749 608 756 c 0,21,22
 593 771 593 771 546 771 c 0,23,24
 431 771 431 771 336 715 c 0,25,26
 233 653 233 653 174 527 c 1,27,28
 98 593 98 593 48 655 c 1,29,30
 72 763 72 763 216 842 c 0,31,32
 287 880 287 880 359.5 899.5 c 128,-1,33
 432 919 432 919 507 919 c 0,34,35
 681 919 681 919 761 782 c 0,36,37
 789 736 789 736 789 675 c 0,38,39
 789 574 789 574 703 422 c 1,40,-1
 704 423 l 1,41,42
 693 403 693 403 652.5 340 c 128,-1,43
 612 277 612 277 540 171 c 0,44,45
 500 111 500 111 476.5 68 c 128,-1,46
 453 25 453 25 442 -7 c 1,47,-1
 514 -7 l 2,48,49
 542 -6 542 -6 571.5 -6 c 128,-1,50
 601 -6 601 -6 618 -6 c 0,51,52
 1006 -6 1006 -6 1408 -238 c 1,53,-1
 1399 -269 l 1,54,-1
 1206 -264 l 1,0,1
EndSplineSet
EndChar

StartChar: three
Encoding: 51 51 22
Width: 1051
GlyphClass: 2
Flags: W
LayerCount: 2
Fore
SplineSet
990 358 m 0,0,1
 990 278 990 278 942 195.5 c 128,-1,2
 894 113 894 113 809 38 c 0,3,4
 734 -25 734 -25 633.5 -80.5 c 128,-1,5
 533 -136 533 -136 420 -178 c 0,6,7
 310 -219 310 -219 207.5 -241 c 128,-1,8
 105 -263 105 -263 12 -265 c 1,9,-1
 12 -111 l 1,10,-1
 70 -111 l 2,11,12
 74 -111 74 -111 75.5 -110.5 c 128,-1,13
 77 -110 77 -110 80 -110 c 0,14,15
 87 -109 87 -109 94.5 -109 c 128,-1,16
 102 -109 102 -109 107 -109 c 0,17,18
 305 -109 305 -109 565 40 c 0,19,20
 839 196 839 196 839 350 c 0,21,22
 839 398 839 398 597 398 c 0,23,24
 363 398 363 398 48 274 c 1,25,-1
 48 415 l 1,26,27
 141 462 141 462 355 610 c 1,28,-1
 355 609 l 1,29,30
 584 768 584 768 584 796 c 0,31,32
 584 800 584 800 518 800 c 0,33,34
 316 800 316 800 119 721 c 1,35,-1
 114 879 l 1,36,37
 202 902 202 902 290.5 913.5 c 128,-1,38
 379 925 379 925 472 925 c 0,39,40
 537 925 537 925 578.5 923.5 c 128,-1,41
 620 922 620 922 640 918 c 1,42,-1
 639 918 l 1,43,44
 771 897 771 897 771 812 c 0,45,46
 771 762 771 762 668 679 c 0,47,48
 657 670 657 670 644.5 660.5 c 128,-1,49
 632 651 632 651 610 634.5 c 128,-1,50
 588 618 588 618 552 592 c 128,-1,51
 516 566 516 566 459 524 c 1,52,53
 519 530 519 530 573 530 c 0,54,55
 646 530 646 530 719 519 c 128,-1,56
 792 508 792 508 863 487 c 0,57,58
 892 478 892 478 915.5 467.5 c 128,-1,59
 939 457 939 457 952 447 c 0,60,61
 990 413 990 413 990 358 c 0,0,1
EndSplineSet
EndChar

StartChar: four
Encoding: 52 52 23
Width: 1145
GlyphClass: 2
Flags: W
LayerCount: 2
Fore
SplineSet
1175 204 m 1,0,1
 1055 144 1055 144 936 101 c 128,-1,2
 817 58 817 58 696 31 c 1,3,-1
 703 -249 l 1,4,-1
 568 -249 l 1,5,-1
 537 3 l 1,6,7
 500 -2 500 -2 469 -5 c 128,-1,8
 438 -8 438 -8 412 -8 c 0,9,10
 317 -8 317 -8 230 33 c 0,11,12
 139 78 139 78 92 159 c 0,13,14
 50 229 50 229 50 311 c 0,15,16
 50 465 50 465 200 657 c 0,17,18
 231 697 231 697 301 774 c 128,-1,19
 371 851 371 851 483 968 c 1,20,-1
 717 950 l 1,21,22
 636 883 636 883 563 814.5 c 128,-1,23
 490 746 490 746 425 673 c 0,24,25
 297 533 297 533 247 435 c 0,26,27
 226 396 226 396 216.5 353 c 128,-1,28
 207 310 207 310 207 262 c 0,29,30
 207 233 207 233 210 215 c 128,-1,31
 213 197 213 197 218 186 c 0,32,33
 250 133 250 133 362 133 c 0,34,35
 391 133 391 133 432 137.5 c 128,-1,36
 473 142 473 142 527 150 c 1,37,38
 528 228 528 228 539.5 342 c 128,-1,39
 551 456 551 456 574 600 c 1,40,-1
 728 576 l 1,41,42
 712 513 712 513 699 419.5 c 128,-1,43
 686 326 686 326 675 185 c 1,44,-1
 868 248 l 2,45,46
 948 275 948 275 1010.5 298.5 c 128,-1,47
 1073 322 1073 322 1119 343 c 1,48,-1
 1175 204 l 1,0,1
EndSplineSet
EndChar

StartChar: five
Encoding: 53 53 24
Width: 1015
GlyphClass: 2
Flags: W
LayerCount: 2
Fore
SplineSet
922 333 m 0,0,1
 938 306 938 306 945.5 277.5 c 128,-1,2
 953 249 953 249 953 221 c 0,3,4
 953 76 953 76 758 -59 c 1,5,-1
 759 -59 l 1,6,7
 724 -85 724 -85 664.5 -118 c 128,-1,8
 605 -151 605 -151 531 -186 c 0,9,10
 428 -237 428 -237 361 -270.5 c 128,-1,11
 294 -304 294 -304 276 -314 c 1,12,-1
 139 -190 l 1,13,14
 184 -165 184 -165 234 -141 c 128,-1,15
 284 -117 284 -117 341 -92 c 0,16,17
 412 -62 412 -62 463.5 -38.5 c 128,-1,18
 515 -15 515 -15 548 0 c 1,19,-1
 547 0 l 1,20,21
 575 14 575 14 610 38.5 c 128,-1,22
 645 63 645 63 688 100 c 0,23,24
 804 198 804 198 804 260 c 0,25,26
 804 274 804 274 797 285 c 0,27,28
 729 401 729 401 510 401 c 0,29,30
 406 401 406 401 321 358 c 0,31,32
 231 313 231 313 201 218 c 1,33,-1
 48 248 l 1,34,-1
 57 848 l 1,35,36
 145 865 145 865 239.5 873.5 c 128,-1,37
 334 882 334 882 437 882 c 0,38,39
 654 882 654 882 725 869 c 1,40,-1
 717 735 l 1,41,42
 679 736 679 736 622 736.5 c 128,-1,43
 565 737 565 737 507 737 c 0,44,45
 446 737 446 737 374 730.5 c 128,-1,46
 302 724 302 724 217 710 c 1,47,48
 213 690 213 690 211.5 657 c 128,-1,49
 210 624 210 624 210 594 c 0,50,51
 212 561 212 561 212.5 532 c 128,-1,52
 213 503 213 503 213 486 c 1,53,54
 325 532 325 532 462 532 c 0,55,56
 579 532 579 532 705 491 c 0,57,58
 860 438 860 438 922 333 c 0,0,1
EndSplineSet
EndChar

StartChar: six
Encoding: 54 54 25
Width: 980
GlyphClass: 2
Flags: W
LayerCount: 2
Fore
SplineSet
873 290 m 0,0,1
 920 208 920 208 920 115 c 0,2,3
 920 42 920 42 896.5 -20.5 c 128,-1,4
 873 -83 873 -83 823 -137 c 1,5,-1
 823 -136 l 1,6,7
 722 -249 722 -249 562 -249 c 0,8,9
 502 -249 502 -249 438.5 -232 c 128,-1,10
 375 -215 375 -215 318 -188 c 0,11,12
 250 -154 250 -154 198 -108 c 128,-1,13
 146 -62 146 -62 112 -4 c 0,14,15
 48 105 48 105 48 249 c 0,16,17
 48 422 48 422 141 613 c 0,18,19
 232 800 232 800 403 969 c 1,20,-1
 626 969 l 1,21,22
 529 872 529 872 462 797 c 128,-1,23
 395 722 395 722 358 668 c 0,24,25
 276 549 276 549 225 382 c 1,26,27
 248 396 248 396 272.5 409 c 128,-1,28
 297 422 297 422 322 433 c 0,29,30
 368 453 368 453 411.5 465 c 128,-1,31
 455 477 455 477 489 477 c 0,32,33
 765 477 765 477 873 290 c 0,0,1
733 241 m 1,34,35
 685 323 685 323 566 323 c 0,36,37
 465 323 465 323 356 241 c 0,38,39
 240 158 240 158 240 76 c 0,40,41
 240 52 240 52 254 27 c 0,42,43
 286 -31 286 -31 350 -67 c 0,44,45
 402 -100 402 -100 436 -100 c 0,46,47
 564 -100 564 -100 663 -28 c 0,48,49
 761 40 761 40 761 139 c 0,50,51
 761 189 761 189 732 241 c 1,52,-1
 733 241 l 1,34,35
EndSplineSet
EndChar

StartChar: seven
Encoding: 55 55 26
Width: 985
GlyphClass: 2
Flags: W
LayerCount: 2
Fore
SplineSet
980 786 m 0,0,1
 994 764 994 764 994 732 c 0,2,3
 994 674 994 674 952 559 c 1,4,-1
 952 560 l 1,5,-1
 919 463 l 1,6,-1
 919 464 l 1,7,-1
 893 385 l 1,8,-1
 893 386 l 1,9,-1
 883 352 l 2,10,11
 864 287 864 287 845.5 224.5 c 128,-1,12
 827 162 827 162 810 98 c 0,13,14
 792 24 792 24 781.5 -48 c 128,-1,15
 771 -120 771 -120 771 -181 c 0,16,17
 771 -205 771 -205 773 -234 c 128,-1,18
 775 -263 775 -263 778 -296 c 1,19,-1
 622 -296 l 1,20,21
 605 -205 605 -205 605 -125 c 0,22,23
 605 86 605 86 717 404 c 0,24,25
 735 454 735 454 752.5 503 c 128,-1,26
 770 552 770 552 788 602 c 1,27,-1
 788 601 l 1,28,29
 820 695 820 695 820 728 c 0,30,31
 820 737 820 737 818 741 c 0,32,33
 801 773 801 773 540 773 c 0,34,35
 426 773 426 773 319 748 c 128,-1,36
 212 723 212 723 107 673 c 1,37,-1
 -24 773 l 1,38,39
 146 921 146 921 455 921 c 0,40,41
 510 921 510 921 568.5 917.5 c 128,-1,42
 627 914 627 914 687 907 c 0,43,44
 754 899 754 899 803.5 889 c 128,-1,45
 853 879 853 879 876 868 c 0,46,47
 960 824 960 824 980 786 c 0,0,1
EndSplineSet
EndChar

StartChar: eight
Encoding: 56 56 27
Width: 1191
GlyphClass: 2
Flags: W
LayerCount: 2
Fore
SplineSet
1104 260 m 0,0,1
 1127 219 1127 219 1127 169 c 0,2,3
 1127 25 1127 25 950 -99 c 0,4,5
 771 -223 771 -223 554 -223 c 0,6,7
 377 -223 377 -223 259 -174 c 128,-1,8
 141 -125 141 -125 84 -29 c 0,9,10
 67 0 67 0 58 28.5 c 128,-1,11
 49 57 49 57 49 83 c 0,12,13
 49 149 49 149 119 236.5 c 128,-1,14
 189 324 189 324 316 423 c 1,15,16
 229 460 229 460 190 528 c 0,17,18
 167 568 167 568 167 611 c 0,19,20
 167 658 167 658 185 701.5 c 128,-1,21
 203 745 203 745 238 787 c 0,22,23
 273 828 273 828 315 856.5 c 128,-1,24
 357 885 357 885 401 899 c 0,25,26
 447 914 447 914 507.5 922 c 128,-1,27
 568 930 568 930 643 930 c 0,28,29
 710 930 710 930 775 899 c 0,30,31
 838 869 838 869 869 814 c 0,32,33
 891 773 891 773 891 734 c 0,34,35
 891 670 891 670 848.5 610 c 128,-1,36
 806 550 806 550 717 491 c 1,37,38
 792 475 792 475 845.5 458.5 c 128,-1,39
 899 442 899 442 935 424 c 0,40,41
 1038 374 1038 374 1104 260 c 0,0,1
598 782 m 0,42,43
 495 782 495 782 416 713 c 0,44,45
 344 651 344 651 344 588 c 0,46,47
 344 571 344 571 353 555.5 c 128,-1,48
 362 540 362 540 391 532 c 1,49,-1
 390 532 l 1,50,-1
 455 514 l 1,51,-1
 596 631 l 2,52,53
 650 676 650 676 680 708.5 c 128,-1,54
 710 741 710 741 710 757 c 0,55,56
 710 782 710 782 598 782 c 0,42,43
949 244 m 0,57,58
 892 333 892 333 531 373 c 1,59,60
 466 331 466 331 412.5 284.5 c 128,-1,61
 359 238 359 238 313 185 c 0,62,63
 221 84 221 84 221 23 c 0,64,65
 221 -22 221 -22 315 -50 c 0,66,67
 350 -61 350 -61 387 -66.5 c 128,-1,68
 424 -72 424 -72 463 -72 c 0,69,70
 649 -72 649 -72 809 26 c 0,71,72
 958 114 958 114 958 206 c 0,73,74
 958 226 958 226 949 244 c 0,57,58
EndSplineSet
EndChar

StartChar: nine
Encoding: 57 57 28
Width: 1016
GlyphClass: 2
Flags: W
LayerCount: 2
Fore
SplineSet
908 716 m 0,0,1
 932 675 932 675 943.5 629 c 128,-1,2
 955 583 955 583 955 532 c 0,3,4
 955 345 955 345 833 174 c 1,5,-1
 833 175 l 1,6,7
 779 96 779 96 689 10.5 c 128,-1,8
 599 -75 599 -75 472 -169 c 1,9,-1
 235 -139 l 1,10,11
 359 -58 359 -58 448.5 9.5 c 128,-1,12
 538 77 538 77 591 132 c 0,13,14
 636 180 636 180 676.5 236.5 c 128,-1,15
 717 293 717 293 749 358 c 1,16,17
 583 290 583 290 489 290 c 0,18,19
 431 290 431 290 373.5 303 c 128,-1,20
 316 316 316 316 261 340 c 0,21,22
 204 367 204 367 159.5 401.5 c 128,-1,23
 115 436 115 436 91 478 c 0,24,25
 47 555 47 555 47 640 c 0,26,27
 47 778 47 778 154 879 c 0,28,29
 263 979 263 979 425 979 c 0,30,31
 493 979 493 979 561.5 961.5 c 128,-1,32
 630 944 630 944 694 912 c 0,33,34
 763 875 763 875 818 825.5 c 128,-1,35
 873 776 873 776 908 716 c 0,0,1
757 698 m 1,36,37
 683 827 683 827 520 827 c 0,38,39
 389 827 389 827 298 764 c 0,40,41
 209 705 209 705 209 615 c 0,42,43
 209 592 209 592 216 568.5 c 128,-1,44
 223 545 223 545 235 522 c 0,45,46
 281 448 281 448 417 448 c 0,47,48
 474 448 474 448 531.5 462 c 128,-1,49
 589 476 589 476 647 505 c 0,50,51
 774 568 774 568 774 644 c 0,52,53
 774 671 774 671 757 697 c 1,54,-1
 757 698 l 1,36,37
EndSplineSet
EndChar

StartChar: colon
Encoding: 58 58 29
Width: 880
GlyphClass: 2
Flags: W
LayerCount: 2
Fore
SplineSet
484 678 m 0,0,1
 484 598 484 598 426 532 c 128,-1,2
 368 466 368 466 286 466 c 0,3,4
 170 466 170 466 108 572 c 0,5,6
 70 638 70 638 70 698 c 0,7,8
 70 776 70 776 138 828 c 0,9,10
 196 872 196 872 264 872 c 0,11,12
 324 872 324 872 388 834 c 0,13,14
 442 802 442 802 463 764 c 128,-1,15
 484 726 484 726 484 678 c 0,0,1
772 174 m 0,16,17
 772 94 772 94 714 28 c 128,-1,18
 656 -38 656 -38 574 -38 c 0,19,20
 458 -38 458 -38 396 68 c 0,21,22
 358 134 358 134 358 194 c 0,23,24
 358 272 358 272 426 324 c 0,25,26
 484 368 484 368 552 368 c 0,27,28
 612 368 612 368 676 330 c 0,29,30
 730 298 730 298 751 260 c 128,-1,31
 772 222 772 222 772 174 c 0,16,17
EndSplineSet
EndChar

StartChar: semicolon
Encoding: 59 59 30
Width: 924
GlyphClass: 2
Flags: W
LayerCount: 2
Fore
SplineSet
484 678 m 0,0,1
 484 598 484 598 426 532 c 128,-1,2
 368 466 368 466 286 466 c 0,3,4
 170 466 170 466 108 572 c 0,5,6
 70 638 70 638 70 698 c 0,7,8
 70 776 70 776 138 828 c 0,9,10
 196 872 196 872 264 872 c 0,11,12
 324 872 324 872 388 834 c 0,13,14
 442 802 442 802 463 764 c 128,-1,15
 484 726 484 726 484 678 c 0,0,1
818 180 m 0,16,17
 854 116 854 116 854 56 c 0,18,19
 854 -40 854 -40 770 -110 c 0,20,21
 696 -172 696 -172 630 -172 c 0,22,23
 616 -172 616 -172 608 -168 c 1,24,25
 714 -102 714 -102 706 6 c 1,26,27
 660 -30 660 -30 568 -30 c 0,28,29
 518 -30 518 -30 462 -4 c 128,-1,30
 406 22 406 22 384 62 c 0,31,32
 350 120 350 120 350 170 c 0,33,34
 350 242 350 242 414 284 c 128,-1,35
 478 326 478 326 572 326 c 0,36,37
 634 326 634 326 698 292 c 0,38,39
 776 254 776 254 818 180 c 0,16,17
EndSplineSet
EndChar

StartChar: less
Encoding: 60 60 31
Width: 1240
GlyphClass: 2
Flags: W
LayerCount: 2
Fore
SplineSet
993 0 m 1,0,-1
 4 471 l 1,1,-1
 4 589 l 1,2,-1
 993 1070 l 1,3,-1
 993 859 l 1,4,-1
 261 531 l 1,5,-1
 993 202 l 1,6,-1
 993 0 l 1,0,-1
EndSplineSet
EndChar

StartChar: equal
Encoding: 61 61 32
Width: 1060
GlyphClass: 2
Flags: W
LayerCount: 2
Fore
SplineSet
840 554 m 1,0,1
 564 556 564 556 392 520 c 0,2,3
 260 492 260 492 134 426 c 1,4,-1
 84 622 l 1,5,6
 342 726 342 726 806 718 c 1,7,-1
 840 554 l 1,0,1
974 226 m 1,8,9
 818 234 818 234 650 188 c 0,10,11
 456 134 456 134 334 26 c 1,12,-1
 250 230 l 1,13,14
 430 380 430 380 934 388 c 1,15,-1
 974 226 l 1,8,9
EndSplineSet
EndChar

StartChar: greater
Encoding: 62 62 33
Width: 1306
GlyphClass: 2
Flags: W
LayerCount: 2
Fore
SplineSet
242 202 m 1,0,-1
 974 531 l 1,1,-1
 242 859 l 1,2,-1
 242 1070 l 1,3,-1
 1231 589 l 1,4,-1
 1231 471 l 1,5,-1
 242 0 l 1,6,-1
 242 202 l 1,0,-1
EndSplineSet
EndChar

StartChar: question
Encoding: 63 63 34
Width: 1030
GlyphClass: 2
Flags: W
LayerCount: 2
Fore
SplineSet
882 498 m 1,0,1
 886 478 886 478 886 454 c 0,2,3
 886 262 886 262 732 262 c 0,4,5
 680 262 680 262 610 302 c 0,6,7
 532 344 532 344 502 395 c 128,-1,8
 472 446 472 446 472 514 c 0,9,10
 472 586 472 586 512 704 c 0,11,12
 558 844 558 844 558 954 c 0,13,14
 558 1018 558 1018 530 1064 c 0,15,16
 494 1120 494 1120 434 1120 c 0,17,18
 244 1120 244 1120 190 876 c 1,19,-1
 22 974 l 1,20,21
 62 1244 62 1244 326 1244 c 0,22,23
 418 1244 418 1244 515 1193 c 128,-1,24
 612 1142 612 1142 657 1064 c 128,-1,25
 702 986 702 986 702 896 c 0,26,27
 702 840 702 840 678 726 c 0,28,29
 626 476 626 476 626 456 c 0,30,31
 626 432 626 432 632 422 c 0,32,33
 650 392 650 392 668 392 c 0,34,35
 688 392 688 392 707 418 c 128,-1,36
 726 444 726 444 726 484 c 0,37,38
 726 528 726 528 700 574 c 1,39,40
 740 566 740 566 882 498 c 1,0,1
1054 158 m 0,41,42
 1090 96 1090 96 1090 40 c 0,43,44
 1090 -34 1090 -34 1031 -79 c 128,-1,45
 972 -124 972 -124 886 -124 c 0,46,47
 828 -124 828 -124 772 -98 c 0,48,49
 710 -70 710 -70 682 -23 c 128,-1,50
 654 24 654 24 654 76 c 0,51,52
 654 150 654 150 712 202 c 128,-1,53
 770 254 770 254 860 254 c 0,54,55
 914 254 914 254 972 227 c 128,-1,56
 1030 200 1030 200 1054 158 c 0,41,42
EndSplineSet
EndChar

StartChar: at
Encoding: 64 64 35
Width: 1619
GlyphClass: 2
Flags: W
LayerCount: 2
Fore
SplineSet
877 71 m 0,0,1
 870 83 870 83 867 104 c 1,2,3
 849 87 849 87 827.5 71 c 128,-1,4
 806 55 806 55 783 41 c 0,5,6
 711 -2 711 -2 640 -2 c 0,7,8
 564 -2 564 -2 495 41 c 128,-1,9
 426 84 426 84 381 178 c 0,10,11
 336 269 336 269 336 371 c 0,12,13
 336 493 336 493 401 626 c 0,14,15
 467 758 467 758 568 824 c 0,16,17
 668 890 668 890 764 890 c 0,18,19
 843 890 843 890 903 851 c 0,20,21
 929 837 929 837 950.5 818.5 c 128,-1,22
 972 800 972 800 991 774 c 1,23,24
 996 798 996 798 1002 821.5 c 128,-1,25
 1008 845 1008 845 1013 865 c 1,26,-1
 1190 865 l 1,27,-1
 1073 320 l 1,28,-1
 1050 195 l 2,29,30
 1051 190 1051 190 1054 185.5 c 128,-1,31
 1057 181 1057 181 1062 176 c 2,32,-1
 1060 178 l 2,33,34
 1072 168 1072 168 1085 168 c 0,35,36
 1122 168 1122 168 1181 210 c 0,37,38
 1263 267 1263 267 1316 371 c 0,39,40
 1370 474 1370 474 1370 583 c 0,41,42
 1370 702 1370 702 1304 813 c 0,43,44
 1272 869 1272 869 1223.5 913 c 128,-1,45
 1175 957 1175 957 1112 991 c 0,46,47
 1048 1021 1048 1021 977.5 1040.5 c 128,-1,48
 907 1060 907 1060 829 1060 c 0,49,50
 648 1060 648 1060 503 976 c 0,51,52
 429 934 429 934 372.5 874 c 128,-1,53
 316 814 316 814 274 733 c 0,54,55
 191 570 191 570 191 402 c 0,56,57
 191 311 191 311 211 230.5 c 128,-1,58
 231 150 231 150 271 83.5 c 128,-1,59
 311 17 311 17 369 -34 c 128,-1,60
 427 -85 427 -85 504 -118 c 0,61,62
 582 -152 582 -152 668 -168 c 128,-1,63
 754 -184 754 -184 849 -184 c 0,64,65
 1050 -184 1050 -184 1181 -119 c 0,66,67
 1315 -54 1315 -54 1393 54 c 1,68,-1
 1574 54 l 1,69,70
 1519 -65 1519 -65 1421 -148 c 0,71,72
 1374 -188 1374 -188 1310.5 -223.5 c 128,-1,73
 1247 -259 1247 -259 1181 -285 c 0,74,75
 1152 -295 1152 -295 1113 -305.5 c 128,-1,76
 1074 -316 1074 -316 1031 -324 c 0,77,78
 993 -331 993 -331 951 -334.5 c 128,-1,79
 909 -338 909 -338 852 -338 c 0,80,81
 716 -338 716 -338 599 -312 c 128,-1,82
 482 -286 482 -286 387 -235.5 c 128,-1,83
 292 -185 292 -185 220.5 -110.5 c 128,-1,84
 149 -36 149 -36 104 61 c 0,85,86
 37 219 37 219 37 388 c 0,87,88
 37 488 37 488 57.5 580 c 128,-1,89
 78 672 78 672 117 760 c 0,90,91
 217 973 217 973 394 1091 c 0,92,93
 575 1210 575 1210 835 1210 c 0,94,95
 935 1210 935 1210 1022 1190.5 c 128,-1,96
 1109 1171 1109 1171 1191 1129 c 0,97,98
 1272 1090 1272 1090 1335.5 1029 c 128,-1,99
 1399 968 1399 968 1448 883 c 0,100,101
 1523 740 1523 740 1523 581 c 0,102,103
 1523 464 1523 464 1480.5 359 c 128,-1,104
 1438 254 1438 254 1358 163 c 0,105,106
 1285 85 1285 85 1202.5 41.5 c 128,-1,107
 1120 -2 1120 -2 1033 -2 c 2,108,-1
 1012 -2 l 1,109,-1
 977 0 l 2,110,111
 954 4 954 4 933 18 c 1,112,-1
 934 18 l 1,113,114
 917 27 917 27 903.5 40.5 c 128,-1,115
 890 54 890 54 877 71 c 0,0,1
521 360 m 0,116,117
 521 261 521 261 566 207 c 0,118,119
 610 154 610 154 667 154 c 0,120,121
 707 154 707 154 753.5 178.5 c 128,-1,122
 800 203 800 203 839 251 c 0,123,124
 859 274 859 274 876.5 305.5 c 128,-1,125
 894 337 894 337 907 376 c 0,126,127
 936 455 936 455 936 530 c 0,128,129
 936 627 936 627 889 682 c 0,130,131
 844 735 844 735 774 735 c 0,132,133
 751 735 751 735 730 729.5 c 128,-1,134
 709 724 709 724 690 711 c 0,135,136
 646 687 646 687 611 636 c 128,-1,137
 576 585 576 585 545 500 c 1,138,-1
 545 501 l 1,139,140
 521 427 521 427 521 360 c 0,116,117
EndSplineSet
EndChar

StartChar: bracketleft
Encoding: 91 91 36
Width: 426
GlyphClass: 2
Flags: W
LayerCount: 2
Fore
SplineSet
89 1496 m 1,0,-1
 404 1496 l 1,1,-1
 404 1328 l 1,2,-1
 252 1328 l 1,3,-1
 252 -81 l 1,4,-1
 404 -81 l 1,5,-1
 404 -259 l 1,6,-1
 89 -259 l 1,7,-1
 89 1496 l 1,0,-1
EndSplineSet
EndChar

StartChar: backslash
Encoding: 92 92 37
Width: 865
GlyphClass: 2
Flags: W
LayerCount: 2
Fore
SplineSet
184 1239 m 1,0,-1
 838 -119 l 1,1,-1
 674 -119 l 1,2,-1
 16 1239 l 1,3,-1
 184 1239 l 1,0,-1
EndSplineSet
EndChar

StartChar: bracketright
Encoding: 93 93 38
Width: 428
GlyphClass: 2
Flags: W
LayerCount: 2
Fore
SplineSet
331 -259 m 1,0,-1
 16 -259 l 1,1,-1
 16 -81 l 1,2,-1
 169 -81 l 1,3,-1
 169 1328 l 1,4,-1
 16 1328 l 1,5,-1
 16 1496 l 1,6,-1
 331 1496 l 1,7,-1
 331 -259 l 1,0,-1
EndSplineSet
EndChar

StartChar: asciicircum
Encoding: 94 94 39
Width: 719
GlyphClass: 2
Flags: W
LayerCount: 2
Fore
SplineSet
180 450 m 1,0,-1
 43 450 l 1,1,-1
 306 1234 l 1,2,-1
 414 1234 l 1,3,-1
 674 450 l 1,4,-1
 540 450 l 1,5,-1
 358 1032 l 1,6,-1
 180 450 l 1,0,-1
EndSplineSet
EndChar

StartChar: underscore
Encoding: 95 95 40
Width: 1192
GlyphClass: 2
Flags: W
LayerCount: 2
Fore
SplineSet
108 -333 m 1,0,-1
 108 -226 l 1,1,-1
 1083 -226 l 1,2,-1
 1083 -333 l 1,3,-1
 108 -333 l 1,0,-1
EndSplineSet
EndChar

StartChar: braceleft
Encoding: 123 123 41
Width: 623
GlyphClass: 2
Flags: W
LayerCount: 2
Fore
SplineSet
124 705 m 1,0,1
 178 705 178 705 213.5 737.5 c 128,-1,2
 249 770 249 770 260 823 c 1,3,-1
 260 820 l 1,4,-1
 265 921 l 2,5,6
 267 948 267 948 269 977.5 c 128,-1,7
 271 1007 271 1007 273 1034 c 0,8,9
 273 1111 273 1111 274 1164.5 c 128,-1,10
 275 1218 275 1218 277 1247 c 0,11,12
 279 1277 279 1277 284.5 1305.5 c 128,-1,13
 290 1334 290 1334 299 1358 c 0,14,15
 318 1407 318 1407 345 1437.5 c 128,-1,16
 372 1468 372 1468 420 1485 c 0,17,18
 460 1500 460 1500 518 1500 c 2,19,-1
 578 1500 l 1,20,-1
 578 1319 l 1,21,-1
 533 1319 l 2,22,23
 473 1319 473 1319 451 1287 c 1,24,-1
 452 1288 l 1,25,26
 432 1259 432 1259 432 1151 c 2,27,-1
 432 960 l 1,28,-1
 429 892 l 2,29,30
 429 867 429 867 423 851 c 0,31,32
 417 804 417 804 404.5 764.5 c 128,-1,33
 392 725 392 725 376 698 c 0,34,35
 363 678 363 678 342 655.5 c 128,-1,36
 321 633 321 633 297 613 c 1,37,38
 363 567 363 567 394 494 c 0,39,40
 412 449 412 449 422 376 c 128,-1,41
 432 303 432 303 432 203 c 2,42,-1
 434 -5 l 2,43,44
 437 -58 437 -58 454 -78 c 1,45,-1
 482 -93 l 1,46,47
 501 -97 501 -97 533 -97 c 2,48,-1
 578 -97 l 1,49,-1
 578 -275 l 1,50,-1
 518 -275 l 2,51,52
 442 -275 442 -275 409 -261 c 0,53,54
 363 -237 363 -237 324 -189 c 1,55,56
 298 -148 298 -148 281 -64 c 0,57,58
 277 -29 277 -29 275 31.5 c 128,-1,59
 273 92 273 92 273 177 c 0,60,61
 273 258 273 258 270 313.5 c 128,-1,62
 267 369 267 369 260 399 c 0,63,64
 248 454 248 454 220 485 c 1,65,66
 200 499 200 499 176.5 507 c 128,-1,67
 153 515 153 515 124 515 c 1,68,-1
 124 705 l 1,0,1
EndSplineSet
EndChar

StartChar: bar
Encoding: 124 124 42
Width: 313
GlyphClass: 2
Flags: W
LayerCount: 2
Fore
SplineSet
70 -259 m 1,0,-1
 70 1586 l 1,1,-1
 242 1586 l 1,2,-1
 239 -259 l 1,3,-1
 70 -259 l 1,0,-1
EndSplineSet
EndChar

StartChar: braceright
Encoding: 125 125 43
Width: 547
GlyphClass: 2
Flags: W
LayerCount: 2
Fore
SplineSet
489 517 m 1,0,1
 458 517 458 517 435 510 c 128,-1,2
 412 503 412 503 395 489 c 0,3,4
 379 472 379 472 368 451 c 128,-1,5
 357 430 357 430 351 401 c 0,6,7
 339 341 339 341 339 179 c 0,8,9
 339 11 339 11 330 -59 c 0,10,11
 316 -146 316 -146 289 -187 c 0,12,13
 270 -210 270 -210 248.5 -228.5 c 128,-1,14
 227 -247 227 -247 203 -259 c 0,15,16
 170 -273 170 -273 94 -273 c 2,17,-1
 33 -273 l 1,18,-1
 33 -95 l 1,19,-1
 79 -95 l 2,20,21
 96 -95 96 -95 108 -93.5 c 128,-1,22
 120 -92 120 -92 131 -90 c 2,23,-1
 158 -76 l 1,24,25
 176 -55 176 -55 179 -2 c 0,26,27
 179 49 179 49 180 101 c 128,-1,28
 181 153 181 153 181 205 c 0,29,30
 181 306 181 306 190 378.5 c 128,-1,31
 199 451 199 451 218 496 c 0,32,33
 252 572 252 572 315 615 c 1,34,35
 290 635 290 635 269 657.5 c 128,-1,36
 248 680 248 680 235 700 c 0,37,38
 219 726 219 726 207.5 767 c 128,-1,39
 196 808 196 808 188 853 c 0,40,41
 185 861 185 861 184.5 870.5 c 128,-1,42
 184 880 184 880 184 894 c 2,43,-1
 181 962 l 1,44,-1
 181 1153 l 2,45,46
 181 1261 181 1261 161 1290 c 1,47,-1
 162 1289 l 1,48,49
 140 1321 140 1321 79 1321 c 2,50,-1
 33 1321 l 1,51,-1
 33 1502 l 1,52,-1
 94 1502 l 2,53,54
 153 1502 153 1502 191 1487 c 0,55,56
 237 1470 237 1470 265.5 1439 c 128,-1,57
 294 1408 294 1408 311 1360 c 0,58,59
 321 1336 321 1336 326.5 1307.5 c 128,-1,60
 332 1279 332 1279 334 1249 c 0,61,62
 336 1220 336 1220 337.5 1166 c 128,-1,63
 339 1112 339 1112 339 1037 c 1,64,-1
 348 923 l 1,65,-1
 352 825 l 1,66,67
 364 773 364 773 399 740 c 128,-1,68
 434 707 434 707 489 707 c 1,69,-1
 489 517 l 1,0,1
EndSplineSet
EndChar

StartChar: asciitilde
Encoding: 126 126 44
Width: 1161
GlyphClass: 2
Flags: W
LayerCount: 2
Fore
SplineSet
1045 747 m 1,0,-1
 1086 747 l 1,1,2
 1082 571 1082 571 1014 469.5 c 128,-1,3
 946 368 946 368 850 368 c 0,4,5
 807 368 807 368 757.5 389 c 128,-1,6
 708 410 708 410 503 535 c 0,7,8
 356 620 356 620 294 620 c 0,9,10
 229 620 229 620 183.5 562 c 128,-1,11
 138 504 138 504 118 371 c 1,12,-1
 75 371 l 1,13,14
 83 557 83 557 148.5 654.5 c 128,-1,15
 214 752 214 752 302 752 c 0,16,17
 342 752 342 752 387 732 c 0,18,19
 484 691 484 691 642.5 592.5 c 128,-1,20
 801 494 801 494 867 494 c 0,21,22
 936 494 936 494 985 559.5 c 128,-1,23
 1034 625 1034 625 1045 747 c 1,0,-1
EndSplineSet
EndChar

StartChar: cent
Encoding: 162 162 45
Width: 721
GlyphClass: 2
Flags: W
LayerCount: 2
Fore
SplineSet
598 156 m 1,0,1
 537 71 537 71 467 31 c 128,-1,2
 397 -9 397 -9 304 -17 c 1,3,-1
 228 -265 l 1,4,-1
 187 -265 l 1,5,-1
 262 -17 l 1,6,7
 177 -8 177 -8 128.5 47 c 128,-1,8
 80 102 80 102 80 188 c 0,9,10
 80 345 80 345 191.5 478.5 c 128,-1,11
 303 612 303 612 457 638 c 1,12,-1
 541 917 l 1,13,-1
 580 917 l 1,14,-1
 499 638 l 1,15,16
 580 638 580 638 616.5 607 c 128,-1,17
 653 576 653 576 653 523 c 0,18,19
 653 482 653 482 631.5 455.5 c 128,-1,20
 610 429 610 429 580 429 c 0,21,22
 557 429 557 429 544 442 c 128,-1,23
 531 455 531 455 531 476 c 0,24,25
 531 491 531 491 536 502 c 128,-1,26
 541 513 541 513 560.5 534.5 c 128,-1,27
 580 556 580 556 580 570 c 0,28,29
 580 578 580 578 575 585 c 0,30,31
 565 596 565 596 549.5 601 c 128,-1,32
 534 606 534 606 489 606 c 1,33,-1
 322 49 l 1,34,-1
 352 47 l 1,35,36
 470 47 470 47 580 173 c 1,37,-1
 598 156 l 1,0,1
284 57 m 1,38,-1
 445 598 l 1,39,40
 383 570 383 570 342 533 c 0,41,42
 274 467 274 467 237 380.5 c 128,-1,43
 200 294 200 294 200 205 c 0,44,45
 200 146 200 146 224 108 c 0,46,47
 243 81 243 81 284 57 c 1,38,-1
EndSplineSet
EndChar

StartChar: multiply
Encoding: 215 215 46
Width: 975
GlyphClass: 2
Flags: W
LayerCount: 2
Fore
SplineSet
267 230 m 1,0,-1
 515 479 l 1,1,-1
 267 728 l 1,2,-1
 308 768 l 1,3,-1
 556 520 l 1,4,-1
 805 768 l 1,5,-1
 844 728 l 1,6,-1
 595 480 l 1,7,-1
 845 230 l 1,8,-1
 805 190 l 1,9,-1
 555 439 l 1,10,-1
 307 190 l 1,11,-1
 267 230 l 1,0,-1
EndSplineSet
EndChar

StartChar: divide
Encoding: 247 247 47
Width: 1094
GlyphClass: 2
Flags: W
LayerCount: 2
Fore
SplineSet
520 734 m 0,0,1
 540 700 540 700 540 662 c 0,2,3
 540 598 540 598 487 549 c 128,-1,4
 434 500 434 500 376 500 c 0,5,6
 298 500 298 500 226 554 c 0,7,8
 146 612 146 612 146 686 c 0,9,10
 146 748 146 748 189 796 c 128,-1,11
 232 844 232 844 304 844 c 0,12,13
 456 844 456 844 520 734 c 0,0,1
990 176 m 0,14,15
 1010 142 1010 142 1010 106 c 0,16,17
 1010 44 1010 44 959 1 c 128,-1,18
 908 -42 908 -42 830 -42 c 0,19,20
 770 -42 770 -42 706 -8 c 0,21,22
 636 28 636 28 604 82 c 0,23,24
 588 112 588 112 588 140 c 0,25,26
 588 198 588 198 642 240 c 128,-1,27
 696 282 696 282 764 282 c 0,28,29
 826 282 826 282 895 252 c 128,-1,30
 964 222 964 222 990 176 c 0,14,15
986 358 m 1,31,32
 920 368 920 368 850 368 c 0,33,34
 700 368 700 368 516 318 c 0,35,36
 402 288 402 288 162 204 c 1,37,-1
 84 338 l 1,38,39
 206 408 206 408 444 454 c 0,40,41
 640 490 640 490 770 490 c 0,42,43
 856 490 856 490 910 488 c 1,44,-1
 986 358 l 1,31,32
EndSplineSet
EndChar

StartChar: tm_visarga
Encoding: 2947 2947 48
Width: 1096
GlyphClass: 2
Flags: W
LayerCount: 2
Fore
SplineSet
500 838 m 0,0,1
 546 760 546 760 546 684 c 0,2,3
 546 562 546 562 452 562 c 0,4,5
 334 562 334 562 266 678 c 0,6,7
 208 778 208 778 208 860 c 0,8,9
 208 980 208 980 320 980 c 0,10,11
 368 980 368 980 422 932 c 0,12,13
 468 892 468 892 500 838 c 0,0,1
1028 252 m 0,14,15
 1064 190 1064 190 1064 120 c 0,16,17
 1064 -16 1064 -16 956 -16 c 0,18,19
 834 -16 834 -16 770 94 c 0,20,21
 724 172 724 172 724 250 c 0,22,23
 724 388 724 388 850 388 c 0,24,25
 950 388 950 388 1028 252 c 0,14,15
312 286 m 0,26,27
 364 196 364 196 364 112 c 0,28,29
 364 0 364 0 264 0 c 0,30,31
 152 0 152 0 78 128 c 0,32,33
 28 216 28 216 28 298 c 0,34,35
 28 420 28 420 138 420 c 0,36,37
 182 420 182 420 232 380 c 128,-1,38
 282 340 282 340 312 286 c 0,26,27
EndSplineSet
EndChar

StartChar: tm_a
Encoding: 2949 2949 49
Width: 1194
GlyphClass: 2
Flags: W
LayerCount: 2
Fore
SplineSet
1180 768 m 1,0,1
 1118 546 1118 546 1118 170 c 0,2,3
 1118 -40 1118 -40 1138 -302 c 1,4,-1
 988 -302 l 1,5,6
 960 -216 960 -216 960 8 c 0,7,8
 960 158 960 158 970 216 c 1,9,10
 924 210 924 210 876 194 c 1,11,12
 880 2 880 2 738 -150 c 0,13,14
 588 -312 588 -312 370 -312 c 0,15,16
 314 -312 314 -312 248 -269 c 128,-1,17
 182 -226 182 -226 152 -174 c 0,18,19
 126 -130 126 -130 126 -90 c 0,20,21
 126 22 126 22 374 152 c 0,22,23
 516 228 516 228 536 236 c 0,24,25
 616 274 616 274 712 302 c 1,26,27
 706 396 706 396 704 402 c 0,28,29
 694 470 694 470 660 528 c 0,30,31
 638 566 638 566 594 597 c 128,-1,32
 550 628 550 628 520 628 c 0,33,34
 496 628 496 628 446 610 c 0,35,36
 390 590 390 590 356 562 c 1,37,38
 486 476 486 476 486 334 c 0,39,40
 486 256 486 256 418 191 c 128,-1,41
 350 126 350 126 272 126 c 0,42,43
 220 126 220 126 161 165 c 128,-1,44
 102 204 102 204 66 265 c 128,-1,45
 30 326 30 326 30 396 c 0,46,47
 30 548 30 548 172 662 c 0,48,49
 240 716 240 716 328 749 c 128,-1,50
 416 782 416 782 482 782 c 0,51,52
 552 782 552 782 642 720 c 128,-1,53
 732 658 732 658 786 566 c 0,54,55
 856 446 856 446 874 344 c 1,56,57
 920 362 920 362 958 366 c 1,58,59
 958 534 958 534 1010 768 c 1,60,-1
 1180 768 l 1,0,1
258 470 m 1,61,62
 230 456 230 456 211 419 c 128,-1,63
 192 382 192 382 192 348 c 0,64,65
 192 330 192 330 198 318 c 0,66,67
 218 284 218 284 238 284 c 0,68,69
 256 284 256 284 288 323 c 128,-1,70
 320 362 320 362 320 402 c 0,71,72
 320 456 320 456 258 470 c 1,61,62
690 124 m 1,73,74
 520 56 520 56 418 -28 c 0,75,76
 310 -118 310 -118 310 -176 c 0,77,78
 310 -184 310 -184 314 -190 c 1,79,80
 330 -192 330 -192 348 -192 c 0,81,82
 454 -192 454 -192 520 -132 c 0,83,84
 680 16 680 16 690 124 c 1,73,74
EndSplineSet
EndChar

StartChar: tm_aa
Encoding: 2950 2950 50
Width: 1544
GlyphClass: 2
Flags: W
LayerCount: 2
Fore
SplineSet
1516 130 m 0,0,1
 1566 46 1566 46 1566 -38 c 0,2,3
 1566 -162 1566 -162 1472 -228 c 0,4,5
 1348 -316 1348 -316 1132 -316 c 0,6,7
 972 -316 972 -316 832 -254 c 1,8,-1
 860 -148 l 1,9,10
 958 -176 958 -176 1048 -176 c 0,11,12
 1228 -176 1228 -176 1328 -110 c 0,13,14
 1408 -56 1408 -56 1408 32 c 0,15,16
 1408 70 1408 70 1378 108 c 128,-1,17
 1348 146 1348 146 1312 146 c 0,18,19
 1262 146 1262 146 1172 106 c 0,20,21
 1062 56 1062 56 1008 -16 c 1,22,-1
 982 -8 l 1,23,24
 982 44 982 44 992 194 c 1,25,26
 962 196 962 196 886 180 c 1,27,28
 880 -14 880 -14 740 -156 c 0,29,30
 588 -312 588 -312 360 -312 c 0,31,32
 306 -312 306 -312 240 -269 c 128,-1,33
 174 -226 174 -226 146 -177 c 128,-1,34
 118 -128 118 -128 118 -86 c 0,35,36
 118 -22 118 -22 188 36 c 0,37,38
 238 78 238 78 356 138 c 0,39,40
 446 186 446 186 534 232 c 0,41,42
 640 288 640 288 706 304 c 1,43,44
 706 452 706 452 664 524 c 0,45,46
 642 562 642 562 596 596 c 128,-1,47
 550 630 550 630 518 630 c 0,48,49
 474 630 474 630 352 562 c 1,50,51
 424 508 424 508 446 472 c 0,52,53
 488 400 488 400 488 332 c 0,54,55
 488 304 488 304 480 278 c 0,56,57
 460 214 460 214 395 171 c 128,-1,58
 330 128 330 128 276 128 c 0,59,60
 146 128 146 128 68 262 c 0,61,62
 30 328 30 328 30 400 c 0,63,64
 30 552 30 552 166 660 c 0,65,66
 232 712 232 712 338 750 c 0,67,68
 430 784 430 784 480 784 c 0,69,70
 550 784 550 784 645 715 c 128,-1,71
 740 646 740 646 794 554 c 0,72,73
 866 430 866 430 866 356 c 0,74,75
 866 350 866 350 864 346 c 1,76,77
 922 354 922 354 1000 374 c 1,78,79
 1000 552 1000 552 1058 768 c 1,80,-1
 1226 768 l 1,81,82
 1202 692 1202 692 1186 546 c 0,83,84
 1168 384 1168 384 1174 254 c 1,85,86
 1244 276 1244 276 1274 276 c 0,87,88
 1338 276 1338 276 1409 234 c 128,-1,89
 1480 192 1480 192 1516 130 c 0,0,1
262 464 m 1,90,91
 232 452 232 452 211 412 c 128,-1,92
 190 372 190 372 190 340 c 0,93,94
 190 286 190 286 246 286 c 0,95,96
 270 286 270 286 299 325 c 128,-1,97
 328 364 328 364 328 404 c 0,98,99
 328 460 328 460 262 464 c 1,90,91
690 120 m 1,100,101
 684 116 684 116 568 62 c 0,102,103
 460 10 460 10 408 -34 c 128,-1,104
 356 -78 356 -78 325 -125 c 128,-1,105
 294 -172 294 -172 300 -186 c 1,106,107
 312 -194 312 -194 340 -194 c 0,108,109
 454 -194 454 -194 520 -134 c 0,110,111
 688 18 688 18 690 120 c 1,100,101
EndSplineSet
EndChar

StartChar: tm_i
Encoding: 2951 2951 51
Width: 1440
GlyphClass: 2
Flags: W
LayerCount: 2
Fore
SplineSet
1408 86 m 0,0,1
 1408 -74 1408 -74 1194 -194 c 0,2,3
 1018 -294 1018 -294 878 -294 c 0,4,5
 680 -294 680 -294 494 -226 c 1,6,7
 334 -294 334 -294 212 -294 c 0,8,9
 148 -294 148 -294 105 -254 c 128,-1,10
 62 -214 62 -214 62 -154 c 0,11,12
 62 -86 62 -86 164 16 c 1,13,14
 104 56 104 56 64 148 c 0,15,16
 30 230 30 230 30 304 c 0,17,18
 30 446 30 446 144 610 c 0,19,20
 272 796 272 796 480 894 c 0,21,22
 630 966 630 966 782 1000 c 0,23,24
 900 1026 900 1026 1110 1046 c 1,25,-1
 1110 930 l 1,26,27
 740 892 740 892 536 786 c 0,28,29
 380 706 380 706 280 567 c 128,-1,30
 180 428 180 428 180 286 c 0,31,32
 180 216 180 216 208 176 c 0,33,34
 230 146 230 146 302 88 c 1,35,36
 538 206 538 206 896 314 c 1,37,38
 976 452 976 452 976 528 c 0,39,40
 976 568 976 568 951 598 c 128,-1,41
 926 628 926 628 888 628 c 0,42,43
 810 628 810 628 690 568 c 1,44,45
 726 512 726 512 726 476 c 0,46,47
 726 346 726 346 586 236 c 0,48,49
 466 142 466 142 374 142 c 0,50,51
 228 142 228 142 228 284 c 0,52,53
 228 452 228 452 484 622 c 0,54,55
 730 784 730 784 938 784 c 0,56,57
 1026 784 1026 784 1078 710 c 0,58,59
 1120 650 1120 650 1120 576 c 0,60,61
 1120 454 1120 454 1080 348 c 1,62,63
 1202 352 1202 352 1302 280 c 0,64,65
 1408 200 1408 200 1408 86 c 0,0,1
1268 90 m 0,66,67
 1268 206 1268 206 1072 206 c 0,68,69
 1014 206 1014 206 918 90 c 0,70,71
 796 -56 796 -56 676 -122 c 1,72,73
 752 -160 752 -160 870 -160 c 0,74,75
 1004 -160 1004 -160 1130 -88 c 0,76,77
 1268 -10 1268 -10 1268 90 c 0,66,67
580 452 m 0,78,79
 580 474 580 474 546 480 c 1,80,81
 510 470 510 470 454 422 c 0,82,83
 390 368 390 368 390 330 c 0,84,85
 390 298 390 298 420 298 c 0,86,87
 442 298 442 298 511 354 c 128,-1,88
 580 410 580 410 580 452 c 0,78,79
768 130 m 1,89,90
 508 50 508 50 440 0 c 1,91,92
 478 -26 478 -26 548 -60 c 1,93,94
 602 -24 602 -24 644 8 c 0,95,96
 746 86 746 86 768 130 c 1,89,90
384 -146 m 1,97,98
 316 -110 316 -110 288 -84 c 1,99,100
 254 -128 254 -128 198 -166 c 1,101,102
 220 -174 220 -174 256 -174 c 0,103,104
 324 -174 324 -174 384 -146 c 1,97,98
EndSplineSet
EndChar

StartChar: tm_ii
Encoding: 2952 2952 52
Width: 828
GlyphClass: 2
Flags: W
LayerCount: 2
Fore
SplineSet
814 292 m 0,0,1
 814 260 814 260 790 232 c 128,-1,2
 766 204 766 204 722 204 c 0,3,4
 672 204 672 204 648 244 c 0,5,6
 640 258 640 258 640 274 c 0,7,8
 640 308 640 308 665 338 c 128,-1,9
 690 368 690 368 712 368 c 0,10,11
 750 368 750 368 782 348 c 128,-1,12
 814 328 814 328 814 292 c 0,0,1
640 0 m 1,13,-1
 500 0 l 1,14,15
 478 456 478 456 450 620 c 1,16,17
 380 602 380 602 294 464 c 0,18,19
 214 336 214 336 174 194 c 1,20,21
 94 212 94 212 14 274 c 1,22,23
 216 778 216 778 420 778 c 0,24,25
 490 778 490 778 544 686 c 0,26,27
 626 544 626 544 640 0 c 1,13,-1
452 378 m 0,28,29
 460 364 460 364 460 348 c 0,30,31
 460 314 460 314 430 286 c 128,-1,32
 400 258 400 258 362 258 c 0,33,34
 312 258 312 258 286 302 c 0,35,36
 270 328 270 328 270 352 c 0,37,38
 270 390 270 390 306 416 c 0,39,40
 334 436 334 436 358 436 c 0,41,42
 418 436 418 436 452 378 c 0,28,29
EndSplineSet
EndChar

StartChar: tm_u
Encoding: 2953 2953 53
Width: 1244
GlyphClass: 2
Flags: W
LayerCount: 2
Fore
SplineSet
1230 128 m 1,0,-1
 1224 0 l 1,1,2
 1036 28 1036 28 582 28 c 0,3,4
 428 28 428 28 78 0 c 1,5,-1
 64 122 l 1,6,7
 308 200 308 200 464 294 c 0,8,9
 606 380 606 380 606 508 c 0,10,11
 606 542 606 542 590 570 c 0,12,13
 568 610 568 610 521 629 c 128,-1,14
 474 648 474 648 434 644 c 1,15,16
 452 632 452 632 481 582 c 128,-1,17
 510 532 510 532 510 482 c 0,18,19
 510 402 510 402 440 349 c 128,-1,20
 370 296 370 296 268 296 c 0,21,22
 136 296 136 296 54 438 c 0,23,24
 30 480 30 480 30 526 c 0,25,26
 30 626 30 626 138 704 c 128,-1,27
 246 782 246 782 382 782 c 0,28,29
 520 782 520 782 644 678 c 0,30,31
 772 568 772 568 772 430 c 0,32,33
 772 274 772 274 572 172 c 1,34,35
 946 164 946 164 1230 128 c 1,0,-1
292 584 m 0,36,37
 250 584 250 584 219 553 c 128,-1,38
 188 522 188 522 188 492 c 0,39,40
 188 480 188 480 203 460 c 128,-1,41
 218 440 218 440 250 440 c 0,42,43
 276 440 276 440 304 474 c 128,-1,44
 332 508 332 508 332 540 c 0,45,46
 332 584 332 584 292 584 c 0,36,37
EndSplineSet
EndChar

StartChar: tm_uu
Encoding: 2954 2954 54
Width: 1846
GlyphClass: 2
Flags: W
LayerCount: 2
Fore
SplineSet
1726 160 m 1,0,1
 1638 156 1638 156 1550 186 c 1,2,3
 1562 410 1562 410 1530 466 c 0,4,5
 1514 496 1514 496 1498 496 c 0,6,7
 1486 496 1486 496 1462 472 c 128,-1,8
 1438 448 1438 448 1426 412 c 0,9,10
 1412 368 1412 368 1430 172 c 1,11,-1
 1284 186 l 1,12,13
 1276 420 1276 420 1220 516 c 0,14,15
 1194 560 1194 560 1152 594 c 0,16,17
 1104 632 1104 632 1066 632 c 0,18,19
 1036 632 1036 632 1008 610 c 128,-1,20
 980 588 980 588 976 564 c 1,21,22
 1124 520 1124 520 1204 382 c 0,23,24
 1226 344 1226 344 1226 308 c 0,25,26
 1226 258 1226 258 1192 224 c 128,-1,27
 1158 190 1158 190 1116 190 c 0,28,29
 1042 190 1042 190 962 239 c 128,-1,30
 882 288 882 288 842 356 c 0,31,32
 790 446 790 446 790 546 c 0,33,34
 790 642 790 642 844 707 c 128,-1,35
 898 772 898 772 1004 772 c 0,36,37
 1080 772 1080 772 1176 709 c 128,-1,38
 1272 646 1272 646 1326 564 c 1,39,40
 1380 662 1380 662 1468 662 c 0,41,42
 1508 662 1508 662 1563 617 c 128,-1,43
 1618 572 1618 572 1650 516 c 0,44,45
 1740 358 1740 358 1726 160 c 1,0,1
1836 -24 m 1,46,47
 1612 -4 1612 -4 1180 14 c 0,48,49
 796 28 796 28 588 28 c 0,50,51
 468 28 468 28 60 0 c 1,52,-1
 60 116 l 1,53,54
 370 226 370 226 478 296 c 0,55,56
 536 334 536 334 573 396 c 128,-1,57
 610 458 610 458 610 514 c 0,58,59
 610 574 610 574 555 610 c 128,-1,60
 500 646 500 646 436 646 c 1,61,62
 454 628 454 628 480 594 c 1,63,64
 514 534 514 534 514 480 c 0,65,66
 514 396 514 396 441 346 c 128,-1,67
 368 296 368 296 272 296 c 0,68,69
 140 296 140 296 52 448 c 0,70,71
 30 486 30 486 30 526 c 0,72,73
 30 624 30 624 138 703 c 128,-1,74
 246 782 246 782 390 782 c 0,75,76
 612 782 612 782 738 564 c 0,77,78
 778 492 778 492 778 426 c 0,79,80
 778 240 778 240 508 146 c 1,81,82
 688 152 688 152 1106 139 c 128,-1,83
 1524 126 1524 126 1812 106 c 1,84,85
 1822 62 1822 62 1836 -24 c 1,46,47
1068 382 m 0,86,87
 1036 436 1036 436 974 436 c 0,88,89
 960 436 960 436 958 414 c 256,90,91
 956 392 956 392 970 368 c 0,92,93
 1000 312 1000 312 1046 312 c 0,94,95
 1080 312 1080 312 1080 346 c 0,96,97
 1080 362 1080 362 1068 382 c 0,86,87
310 594 m 0,98,99
 274 594 274 594 231 558 c 128,-1,100
 188 522 188 522 188 490 c 0,101,102
 188 464 188 464 218 446 c 0,103,104
 234 434 234 434 258 434 c 0,105,106
 284 434 284 434 324 471 c 128,-1,107
 364 508 364 508 364 542 c 0,108,109
 364 562 364 562 347 578 c 128,-1,110
 330 594 330 594 310 594 c 0,98,99
EndSplineSet
EndChar

StartChar: tm_e
Encoding: 2958 2958 55
Width: 1110
GlyphClass: 2
Flags: W
LayerCount: 2
Fore
SplineSet
1096 634 m 1,0,1
 932 392 932 392 918 0 c 1,2,-1
 752 0 l 1,3,4
 752 158 752 158 794 348 c 0,5,6
 834 526 834 526 888 628 c 1,7,8
 594 590 594 590 422 506 c 1,9,10
 516 436 516 436 550 376 c 0,11,12
 596 296 596 296 596 222 c 0,13,14
 596 120 596 120 510 52 c 0,15,16
 436 -8 436 -8 348 -8 c 0,17,18
 274 -8 274 -8 196 44 c 128,-1,19
 118 96 118 96 72 174 c 0,20,21
 30 246 30 246 30 320 c 0,22,23
 30 510 30 510 292 630 c 0,24,25
 620 780 620 780 922 770 c 1,26,-1
 1096 634 l 1,0,1
304 414 m 0,27,28
 256 414 256 414 220 366 c 128,-1,29
 184 318 184 318 184 262 c 0,30,31
 184 226 184 226 200 200 c 0,32,33
 242 128 242 128 320 128 c 0,34,35
 356 128 356 128 393 173 c 128,-1,36
 430 218 430 218 430 272 c 0,37,38
 430 306 430 306 413 334 c 128,-1,39
 396 362 396 362 362 388 c 128,-1,40
 328 414 328 414 304 414 c 0,27,28
EndSplineSet
EndChar

StartChar: tm_ee
Encoding: 2959 2959 56
Width: 1110
GlyphClass: 2
Flags: W
LayerCount: 2
Fore
SplineSet
1096 634 m 1,0,1
 976 88 976 88 900 -68 c 0,2,3
 806 -258 806 -258 614 -258 c 0,4,5
 504 -258 504 -258 278 -170 c 1,6,-1
 306 -56 l 1,7,8
 442 -112 442 -112 556 -112 c 0,9,10
 688 -112 688 -112 758 39 c 128,-1,11
 828 190 828 190 888 628 c 1,12,13
 594 590 594 590 422 506 c 1,14,15
 516 436 516 436 550 376 c 0,16,17
 596 296 596 296 596 222 c 0,18,19
 596 120 596 120 510 52 c 0,20,21
 436 -8 436 -8 348 -8 c 0,22,23
 274 -8 274 -8 196 44 c 128,-1,24
 118 96 118 96 72 174 c 0,25,26
 30 246 30 246 30 320 c 0,27,28
 30 510 30 510 292 630 c 0,29,30
 620 780 620 780 922 770 c 1,31,-1
 1096 634 l 1,0,1
304 414 m 0,32,33
 256 414 256 414 220 366 c 128,-1,34
 184 318 184 318 184 262 c 0,35,36
 184 226 184 226 200 200 c 0,37,38
 242 128 242 128 320 128 c 0,39,40
 356 128 356 128 393 173 c 128,-1,41
 430 218 430 218 430 272 c 0,42,43
 430 306 430 306 413 334 c 128,-1,44
 396 362 396 362 362 388 c 128,-1,45
 328 414 328 414 304 414 c 0,32,33
EndSplineSet
EndChar

StartChar: tm_ai
Encoding: 2960 2960 57
Width: 1250
GlyphClass: 2
Flags: W
LayerCount: 2
Fore
SplineSet
1220 308 m 1,0,1
 1218 -12 1218 -12 1188 -138 c 0,2,3
 1154 -274 1154 -274 1066 -274 c 0,4,5
 1008 -274 1008 -274 936 -234 c 0,6,7
 852 -188 852 -188 794 -112 c 1,8,9
 796 -254 796 -254 576 -254 c 0,10,11
 524 -254 524 -254 468 -219 c 128,-1,12
 412 -184 412 -184 379 -127 c 128,-1,13
 346 -70 346 -70 346 -10 c 0,14,15
 346 96 346 96 438 148 c 0,16,17
 508 192 508 192 656 272 c 1,18,19
 786 334 786 334 875 426 c 128,-1,20
 964 518 964 518 964 586 c 0,21,22
 964 616 964 616 942 639 c 128,-1,23
 920 662 920 662 890 662 c 0,24,25
 850 662 850 662 800 604 c 0,26,27
 736 526 736 526 722 392 c 1,28,-1
 570 320 l 1,29,30
 558 442 558 442 552 476 c 0,31,32
 538 552 538 552 510 600 c 0,33,34
 470 670 470 670 418 670 c 0,35,36
 372 670 372 670 360 644 c 1,37,38
 444 602 444 602 490 522 c 128,-1,39
 536 442 536 442 536 362 c 0,40,41
 536 262 536 262 468 192 c 128,-1,42
 400 122 400 122 310 122 c 0,43,44
 258 122 258 122 188 166 c 0,45,46
 110 216 110 216 68 288 c 0,47,48
 30 354 30 354 30 440 c 0,49,50
 30 576 30 576 114 676 c 0,51,52
 208 786 208 786 360 786 c 0,53,54
 436 786 436 786 508 742 c 0,55,56
 590 692 590 692 622 606 c 1,57,58
 646 702 646 702 732 750 c 0,59,60
 798 786 798 786 882 786 c 0,61,62
 970 786 970 786 1041 719 c 128,-1,63
 1112 652 1112 652 1112 564 c 0,64,65
 1112 420 1112 420 932 282 c 1,66,67
 808 206 808 206 610 76 c 0,68,69
 500 0 500 0 500 -54 c 0,70,71
 500 -62 500 -62 504 -68 c 0,72,73
 518 -94 518 -94 556 -94 c 0,74,75
 606 -94 606 -94 662 -50 c 0,76,77
 730 4 730 4 742 88 c 1,78,-1
 836 136 l 1,79,80
 824 74 824 74 894 -44 c 0,81,82
 940 -124 940 -124 1000 -124 c 0,83,84
 1038 -124 1038 -124 1054 6 c 0,85,86
 1062 82 1062 82 1068 308 c 1,87,-1
 1220 308 l 1,0,1
366 486 m 0,88,89
 332 548 332 548 274 560 c 1,90,91
 234 552 234 552 201 508 c 128,-1,92
 168 464 168 464 168 412 c 0,93,94
 168 372 168 372 188 338 c 0,95,96
 222 280 222 280 272 280 c 0,97,98
 316 280 316 280 352 317 c 128,-1,99
 388 354 388 354 388 408 c 0,100,101
 388 446 388 446 366 486 c 0,88,89
EndSplineSet
EndChar

StartChar: tm_o
Encoding: 2962 2962 58
Width: 1164
GlyphClass: 2
Flags: W
LayerCount: 2
Fore
SplineSet
1150 148 m 1,0,1
 1070 124 1070 124 1010 18 c 0,2,3
 962 -70 962 -70 914 -158 c 1,4,5
 852 -248 852 -248 760 -248 c 0,6,7
 652 -248 652 -248 542 -176 c 0,8,9
 440 -110 440 -110 360 0 c 1,10,-1
 508 0 l 1,11,12
 578 -114 578 -114 674 -114 c 0,13,14
 742 -114 742 -114 812 14 c 0,15,16
 894 166 894 166 922 184 c 1,17,18
 712 224 712 224 580 326 c 1,19,20
 592 376 592 376 642 472 c 1,21,22
 684 468 684 468 720 468 c 0,23,24
 824 468 824 468 884 496 c 0,25,26
 934 520 934 520 934 554 c 0,27,28
 934 612 934 612 780 642 c 0,29,30
 680 660 680 660 588 660 c 0,31,32
 464 660 464 660 396 642 c 1,33,34
 440 604 440 604 472 550 c 0,35,36
 492 514 492 514 492 478 c 0,37,38
 492 410 492 410 431 362 c 128,-1,39
 370 314 370 314 280 314 c 0,40,41
 224 314 224 314 158 349 c 128,-1,42
 92 384 92 384 66 430 c 0,43,44
 32 490 32 490 32 534 c 0,45,46
 32 576 32 576 66 628 c 0,47,48
 170 782 170 782 504 782 c 0,49,50
 974 782 974 782 1094 574 c 0,51,52
 1116 534 1116 534 1116 500 c 0,53,54
 1116 432 1116 432 1041 387 c 128,-1,55
 966 342 966 342 854 330 c 1,56,57
 934 294 934 294 1004 294 c 0,58,59
 1072 294 1072 294 1130 330 c 1,60,-1
 1150 148 l 1,0,1
330 552 m 0,61,62
 312 582 312 582 280 582 c 0,63,64
 246 582 246 582 217 546 c 128,-1,65
 188 510 188 510 188 478 c 256,66,67
 188 446 188 446 238 446 c 0,68,69
 278 446 278 446 309 466 c 128,-1,70
 340 486 340 486 340 518 c 0,71,72
 340 534 340 534 330 552 c 0,61,62
EndSplineSet
EndChar

StartChar: tm_oo
Encoding: 2963 2963 59
Width: 1164
GlyphClass: 2
Flags: W
LayerCount: 2
Fore
SplineSet
1150 146 m 1,0,1
 1078 132 1078 132 1004 8 c 0,2,3
 902 -164 902 -164 902 -164 c 1,4,5
 838 -250 838 -250 754 -250 c 0,6,7
 650 -250 650 -250 527 -179 c 128,-1,8
 404 -108 404 -108 350 -14 c 0,9,10
 306 62 306 62 306 124 c 0,11,12
 306 228 306 228 422 228 c 0,13,14
 634 228 634 228 780 -46 c 1,15,16
 822 44 822 44 842 78 c 0,17,18
 880 148 880 148 922 184 c 1,19,20
 714 222 714 222 578 328 c 1,21,22
 602 384 602 384 642 472 c 1,23,24
 682 468 682 468 722 468 c 0,25,26
 816 468 816 468 876 492 c 128,-1,27
 936 516 936 516 936 552 c 0,28,29
 936 610 936 610 782 640 c 0,30,31
 678 660 678 660 584 660 c 0,32,33
 478 660 478 660 396 640 c 1,34,35
 442 606 442 606 469 562 c 128,-1,36
 496 518 496 518 496 474 c 0,37,38
 496 406 496 406 436 359 c 128,-1,39
 376 312 376 312 280 312 c 0,40,41
 224 312 224 312 157 349 c 128,-1,42
 90 386 90 386 64 432 c 0,43,44
 30 490 30 490 30 534 c 0,45,46
 30 576 30 576 62 622 c 0,47,48
 172 782 172 782 488 782 c 0,49,50
 976 782 976 782 1098 570 c 0,51,52
 1122 528 1122 528 1122 494 c 0,53,54
 1122 382 1122 382 858 330 c 1,55,56
 930 292 930 292 998 292 c 0,57,58
 1068 292 1068 292 1126 332 c 1,59,-1
 1150 146 l 1,0,1
330 550 m 0,60,61
 314 580 314 580 286 580 c 0,62,63
 246 580 246 580 213 533 c 128,-1,64
 180 486 180 486 190 466 c 0,65,66
 206 444 206 444 246 444 c 0,67,68
 284 444 284 444 312 463 c 128,-1,69
 340 482 340 482 340 514 c 0,70,71
 340 530 340 530 330 550 c 0,60,61
676 -122 m 1,72,73
 668 -80 668 -80 640 -30 c 0,74,75
 622 2 622 2 580 37 c 128,-1,76
 538 72 538 72 512 72 c 256,77,78
 486 72 486 72 486 36 c 0,79,80
 486 14 486 14 498 -6 c 0,81,82
 528 -56 528 -56 584 -90 c 0,83,84
 634 -120 634 -120 676 -122 c 1,72,73
EndSplineSet
EndChar

StartChar: tm_au
Encoding: 2964 2964 60
Width: 2384
GlyphClass: 2
Flags: W
LayerCount: 2
Fore
SplineSet
2350 0 m 1,0,-1
 2210 0 l 1,1,2
 2214 78 2214 78 2214 148 c 0,3,4
 2214 296 2214 296 2196 382 c 0,5,6
 2182 454 2182 454 2166 454 c 0,7,8
 2142 454 2142 454 2082 330 c 0,9,10
 2006 174 2006 174 2012 0 c 1,11,-1
 1878 0 l 1,12,13
 1846 178 1846 178 1814 358 c 0,14,15
 1786 516 1786 516 1760 560 c 128,-1,16
 1734 604 1734 604 1686 604 c 0,17,18
 1666 604 1666 604 1570 562 c 1,19,20
 1662 518 1662 518 1722 412 c 0,21,22
 1770 326 1770 326 1770 236 c 0,23,24
 1770 130 1770 130 1708 58 c 128,-1,25
 1646 -14 1646 -14 1540 -14 c 0,26,27
 1456 -14 1456 -14 1363 39 c 128,-1,28
 1270 92 1270 92 1228 164 c 0,29,30
 1194 224 1194 224 1194 300 c 0,31,32
 1194 466 1194 466 1334 620 c 128,-1,33
 1474 774 1474 774 1628 774 c 0,34,35
 1734 774 1734 774 1824 664 c 128,-1,36
 1914 554 1914 554 1930 420 c 1,37,38
 2042 606 2042 606 2136 606 c 0,39,40
 2234 606 2234 606 2308 480 c 0,41,42
 2362 388 2362 388 2350 0 c 1,0,-1
1150 148 m 1,43,44
 1070 124 1070 124 1010 18 c 0,45,46
 962 -70 962 -70 914 -158 c 1,47,48
 852 -248 852 -248 760 -248 c 0,49,50
 652 -248 652 -248 542 -176 c 0,51,52
 440 -110 440 -110 360 0 c 1,53,-1
 508 0 l 1,54,55
 578 -114 578 -114 674 -114 c 0,56,57
 742 -114 742 -114 812 14 c 0,58,59
 894 166 894 166 922 184 c 1,60,61
 712 224 712 224 580 326 c 1,62,63
 592 376 592 376 642 472 c 1,64,65
 684 468 684 468 720 468 c 0,66,67
 824 468 824 468 884 496 c 0,68,69
 934 520 934 520 934 554 c 0,70,71
 934 612 934 612 780 642 c 0,72,73
 680 660 680 660 588 660 c 0,74,75
 464 660 464 660 396 642 c 1,76,77
 440 604 440 604 472 550 c 0,78,79
 492 514 492 514 492 478 c 0,80,81
 492 410 492 410 431 362 c 128,-1,82
 370 314 370 314 280 314 c 0,83,84
 224 314 224 314 158 349 c 128,-1,85
 92 384 92 384 66 430 c 0,86,87
 32 490 32 490 32 534 c 0,88,89
 32 576 32 576 66 628 c 0,90,91
 170 782 170 782 504 782 c 0,92,93
 974 782 974 782 1094 574 c 0,94,95
 1116 534 1116 534 1116 500 c 0,96,97
 1116 432 1116 432 1041 387 c 128,-1,98
 966 342 966 342 854 330 c 1,99,100
 934 294 934 294 1004 294 c 0,101,102
 1072 294 1072 294 1130 330 c 1,103,-1
 1150 148 l 1,43,44
1588 398 m 0,104,105
 1556 454 1556 454 1484 490 c 1,106,107
 1440 466 1440 466 1396 408 c 0,108,109
 1342 334 1342 334 1342 258 c 0,110,111
 1342 206 1342 206 1370 156 c 0,112,113
 1380 136 1380 136 1418 120 c 128,-1,114
 1456 104 1456 104 1488 104 c 0,115,116
 1538 104 1538 104 1575 164 c 128,-1,117
 1612 224 1612 224 1612 298 c 0,118,119
 1612 356 1612 356 1588 398 c 0,104,105
330 552 m 0,120,121
 312 582 312 582 280 582 c 0,122,123
 246 582 246 582 217 546 c 128,-1,124
 188 510 188 510 188 478 c 256,125,126
 188 446 188 446 238 446 c 0,127,128
 278 446 278 446 309 466 c 128,-1,129
 340 486 340 486 340 518 c 0,130,131
 340 534 340 534 330 552 c 0,120,121
EndSplineSet
EndChar

StartChar: tm_ka
Encoding: 2965 2965 61
Width: 1096
GlyphClass: 2
Flags: W
LayerCount: 2
Fore
SplineSet
1038 344 m 0,0,1
 1066 294 1066 294 1066 250 c 0,2,3
 1066 162 1066 162 932 80 c 0,4,5
 786 -10 786 -10 618 -10 c 0,6,7
 566 -10 566 -10 520 0 c 1,8,-1
 464 96 l 1,9,10
 366 0 366 0 248 0 c 0,11,12
 196 0 196 0 140 26 c 0,13,14
 76 54 76 54 53 95 c 128,-1,15
 30 136 30 136 30 176 c 0,16,17
 30 372 30 372 486 482 c 1,18,19
 494 590 494 590 478 648 c 1,20,21
 370 630 370 630 182 458 c 1,22,-1
 10 532 l 1,23,24
 284 768 284 768 432 768 c 0,25,26
 536 768 536 768 586 684 c 0,27,28
 604 652 604 652 616 594 c 0,29,30
 624 546 624 546 632 498 c 1,31,32
 670 500 670 500 702 500 c 0,33,34
 948 500 948 500 1038 344 c 0,0,1
750 388 m 0,35,36
 674 388 674 388 608 364 c 1,37,38
 596 324 596 324 580 286 c 0,39,40
 540 194 540 194 486 124 c 1,41,42
 622 110 622 110 772 178 c 128,-1,43
 922 246 922 246 922 312 c 0,44,45
 922 352 922 352 852 374 c 0,46,47
 804 388 804 388 750 388 c 0,35,36
416 302 m 1,48,49
 196 240 196 240 196 146 c 0,50,51
 196 130 196 130 204 114 c 1,52,53
 362 170 362 170 416 302 c 1,48,49
EndSplineSet
EndChar

StartChar: tm_nga
Encoding: 2969 2969 62
Width: 1276
GlyphClass: 2
Flags: W
LayerCount: 2
Fore
SplineSet
1154 768 m 1,0,1
 1244 504 1244 504 1244 334 c 0,2,3
 1244 -6 1244 -6 884 -6 c 0,4,5
 694 -6 694 -6 560 44 c 1,6,-1
 546 162 l 1,7,8
 670 160 670 160 744 208 c 0,9,10
 808 248 808 248 808 306 c 0,11,12
 808 326 808 326 798 344 c 0,13,14
 782 372 782 372 690 372 c 0,15,16
 646 372 646 372 576 330 c 0,17,18
 488 276 488 276 450 194 c 1,19,-1
 308 320 l 1,20,21
 408 462 408 462 408 596 c 0,22,23
 408 620 408 620 402 638 c 1,24,25
 320 622 320 622 239 497 c 128,-1,26
 158 372 158 372 150 270 c 1,27,-1
 16 308 l 1,28,29
 12 326 12 326 12 348 c 0,30,31
 12 462 12 462 98 582 c 0,32,33
 154 662 154 662 230 718 c 0,34,35
 322 786 322 786 400 786 c 0,36,37
 484 786 484 786 534 700 c 0,38,39
 572 634 572 634 572 560 c 0,40,41
 572 522 572 522 562 476 c 1,42,43
 608 500 608 500 676 500 c 0,44,45
 756 500 756 500 837 458 c 128,-1,46
 918 416 918 416 952 356 c 0,47,48
 970 324 970 324 970 288 c 0,49,50
 970 250 970 250 944 202 c 0,51,52
 926 170 926 170 908 138 c 1,53,54
 1018 160 1018 160 1054 228 c 0,55,56
 1076 272 1076 272 1080 386 c 0,57,58
 1082 484 1082 484 1066 577 c 128,-1,59
 1050 670 1050 670 1032 768 c 1,60,-1
 1154 768 l 1,0,1
EndSplineSet
EndChar

StartChar: tm_ca
Encoding: 2970 2970 63
Width: 880
GlyphClass: 2
Flags: W
LayerCount: 2
Fore
SplineSet
864 492 m 1,0,1
 868 436 868 436 846 390 c 1,2,3
 798 406 798 406 746 406 c 0,4,5
 676 406 676 406 590 372 c 1,6,7
 492 -20 492 -20 284 -20 c 0,8,9
 136 -20 136 -20 86 68 c 0,10,11
 58 118 58 118 58 162 c 0,12,13
 58 322 58 322 466 488 c 1,14,15
 462 546 462 546 438 650 c 1,16,17
 386 640 386 640 328 592 c 0,18,19
 296 564 296 564 176 440 c 1,20,-1
 14 502 l 1,21,22
 254 774 254 774 404 774 c 0,23,24
 498 774 498 774 546 688 c 0,25,26
 576 636 576 636 598 508 c 1,27,28
 638 518 638 518 716 516 c 0,29,30
 810 514 810 514 864 492 c 1,0,1
418 298 m 1,31,32
 352 282 352 282 290 234 c 0,33,34
 220 180 220 180 220 126 c 0,35,36
 220 106 220 106 232 86 c 1,37,38
 376 164 376 164 418 298 c 1,31,32
EndSplineSet
EndChar

StartChar: tm_ja
Encoding: 2972 2972 64
Width: 1332
GlyphClass: 2
Flags: W
LayerCount: 2
Fore
SplineSet
1328 102 m 0,0,1
 1374 24 1374 24 1374 -50 c 0,2,3
 1374 -146 1374 -146 1299 -207 c 128,-1,4
 1224 -268 1224 -268 1100 -268 c 0,5,6
 980 -268 980 -268 874 -232 c 1,7,-1
 866 -102 l 1,8,9
 962 -132 962 -132 1002 -132 c 0,10,11
 1062 -132 1062 -132 1128 -94 c 0,12,13
 1208 -48 1208 -48 1208 16 c 0,14,15
 1208 46 1208 46 1190 76 c 0,16,17
 1152 142 1152 142 1082 142 c 256,18,19
 1012 142 1012 142 830 -74 c 0,20,21
 774 -144 774 -144 716 -214 c 1,22,23
 646 -282 646 -282 544 -282 c 0,24,25
 502 -282 502 -282 446 -242 c 0,26,27
 396 -208 396 -208 378 -178 c 0,28,29
 346 -122 346 -122 346 -64 c 0,30,31
 346 38 346 38 470 128 c 1,32,33
 576 192 576 192 680 256 c 1,34,35
 928 428 928 428 928 542 c 0,36,37
 928 580 928 580 894 610 c 0,38,39
 876 626 876 626 854 626 c 0,40,41
 802 626 802 626 758 568 c 0,42,43
 700 492 700 492 698 348 c 1,44,-1
 560 262 l 1,45,46
 496 616 496 616 380 616 c 0,47,48
 342 616 342 616 326 586 c 1,49,50
 424 542 424 542 473 457 c 128,-1,51
 522 372 522 372 522 294 c 0,52,53
 522 196 522 196 454 132 c 128,-1,54
 386 68 386 68 298 68 c 0,55,56
 242 68 242 68 171 117 c 128,-1,57
 100 166 100 166 68 222 c 0,58,59
 28 292 28 292 28 392 c 0,60,61
 28 530 28 530 100 626 c 0,62,63
 184 738 184 738 332 738 c 0,64,65
 496 738 496 738 578 572 c 1,66,67
 588 652 588 652 653 717 c 128,-1,68
 718 782 718 782 806 782 c 0,69,70
 870 782 870 782 936 739 c 128,-1,71
 1002 696 1002 696 1038 634 c 0,72,73
 1082 560 1082 560 1082 492 c 0,74,75
 1082 362 1082 362 914 254 c 1,76,77
 986 276 986 276 1040 276 c 0,78,79
 1130 276 1130 276 1212 222 c 0,80,81
 1286 174 1286 174 1328 102 c 0,0,1
800 172 m 1,82,83
 494 -58 494 -58 494 -102 c 0,84,85
 494 -134 494 -134 538 -134 c 0,86,87
 584 -134 584 -134 658 -38 c 0,88,89
 686 -2 686 -2 800 172 c 1,82,83
352 414 m 0,90,91
 310 488 310 488 256 488 c 0,92,93
 224 488 224 488 200 444 c 128,-1,94
 176 400 176 400 176 344 c 0,95,96
 176 292 176 292 198 252 c 0,97,98
 230 196 230 196 278 196 c 0,99,100
 314 196 314 196 347 232 c 128,-1,101
 380 268 380 268 380 322 c 0,102,103
 380 366 380 366 352 414 c 0,90,91
EndSplineSet
EndChar

StartChar: tm_nya
Encoding: 2974 2974 65
Width: 1460
GlyphClass: 2
Flags: W
LayerCount: 2
Fore
SplineSet
1390 266 m 0,0,1
 1430 196 1430 196 1430 124 c 0,2,3
 1430 -20 1430 -20 1280 -123 c 128,-1,4
 1130 -226 1130 -226 912 -226 c 0,5,6
 660 -226 660 -226 444 -126 c 0,7,8
 212 -16 212 -16 100 178 c 0,9,10
 26 304 26 304 26 430 c 0,11,12
 26 634 26 634 210 786 c 1,13,-1
 388 688 l 1,14,15
 320 666 320 666 258 562 c 0,16,17
 190 450 190 450 190 338 c 0,18,19
 190 258 190 258 226 196 c 0,20,21
 310 52 310 52 510 -30 c 0,22,23
 672 -96 672 -96 820 -96 c 0,24,25
 1020 -96 1020 -96 1152 -16 c 0,26,27
 1278 60 1278 60 1278 162 c 0,28,29
 1278 202 1278 202 1256 238 c 0,30,31
 1220 302 1220 302 1170 302 c 0,32,33
 1124 302 1124 302 1064 246 c 0,34,35
 986 174 986 174 986 62 c 0,36,37
 986 32 986 32 992 0 c 1,38,-1
 852 0 l 1,39,40
 848 328 848 328 932 598 c 1,41,42
 876 590 876 590 774 542 c 0,43,44
 662 490 662 490 608 442 c 1,45,46
 726 386 726 386 784 286 c 0,47,48
 810 240 810 240 810 188 c 0,49,50
 810 106 810 106 754 50 c 0,51,52
 694 -12 694 -12 598 -12 c 0,53,54
 526 -12 526 -12 442 41 c 128,-1,55
 358 94 358 94 318 163 c 128,-1,56
 278 232 278 232 278 298 c 0,57,58
 278 424 278 424 438 540 c 0,59,60
 712 740 712 740 1020 768 c 1,61,-1
 1132 648 l 1,62,63
 1092 594 1092 594 1042 426 c 1,64,65
 1092 444 1092 444 1132 444 c 0,66,67
 1202 444 1202 444 1274 394 c 128,-1,68
 1346 344 1346 344 1390 266 c 0,0,1
626 272 m 0,69,70
 594 326 594 326 546 326 c 1,71,72
 500 332 500 332 475 299 c 128,-1,73
 450 266 450 266 450 220 c 0,74,75
 450 188 450 188 462 166 c 0,76,77
 470 152 470 152 495 135 c 128,-1,78
 520 118 520 118 536 118 c 0,79,80
 570 118 570 118 606 146 c 128,-1,81
 642 174 642 174 642 216 c 0,82,83
 642 244 642 244 626 272 c 0,69,70
EndSplineSet
EndChar

StartChar: tm_tta
Encoding: 2975 2975 66
Width: 1008
GlyphClass: 2
Flags: W
LayerCount: 2
Fore
SplineSet
998 128 m 1,0,1
 702 -20 702 -20 494 -20 c 0,2,3
 362 -20 362 -20 253 30 c 128,-1,4
 144 80 144 80 94 166 c 0,5,6
 30 278 30 278 30 388 c 0,7,8
 30 526 30 526 136 768 c 1,9,-1
 326 768 l 1,10,11
 200 504 200 504 200 336 c 0,12,13
 200 184 200 184 280 142 c 0,14,15
 324 118 324 118 384 118 c 0,16,17
 636 118 636 118 866 248 c 1,18,-1
 998 128 l 1,0,1
EndSplineSet
EndChar

StartChar: tm_nna
Encoding: 2979 2979 67
Width: 1996
GlyphClass: 2
Flags: W
LayerCount: 2
Fore
SplineSet
1980 670 m 1,0,1
 1912 346 1912 346 1912 118 c 0,2,3
 1912 56 1912 56 1916 0 c 1,4,-1
 1770 0 l 1,5,6
 1764 418 1764 418 1804 590 c 1,7,8
 1734 576 1734 576 1604 506 c 1,9,10
 1624 484 1624 484 1662 430 c 1,11,12
 1730 314 1730 314 1730 208 c 0,13,14
 1730 112 1730 112 1673 53 c 128,-1,15
 1616 -6 1616 -6 1510 -6 c 0,16,17
 1432 -6 1432 -6 1335 53 c 128,-1,18
 1238 112 1238 112 1199 180 c 128,-1,19
 1160 248 1160 248 1160 316 c 0,20,21
 1160 466 1160 466 1356 580 c 1,22,23
 1234 636 1234 636 1110 636 c 0,24,25
 1032 636 1032 636 996 608 c 1,26,27
 1042 558 1042 558 1056 534 c 0,28,29
 1134 398 1134 398 1134 272 c 0,30,31
 1134 162 1134 162 1072 95 c 128,-1,32
 1010 28 1010 28 898 28 c 0,33,34
 806 28 806 28 712 78 c 0,35,36
 610 132 610 132 562 218 c 0,37,38
 516 298 516 298 516 366 c 0,39,40
 516 464 516 464 652 614 c 1,41,42
 640 616 640 616 626 616 c 0,43,44
 544 616 544 616 434 552 c 0,45,46
 334 494 334 494 286 434 c 1,47,48
 404 392 404 392 456 300 c 0,49,50
 494 232 494 232 494 160 c 0,51,52
 494 90 494 90 458 48 c 0,53,54
 416 0 416 0 342 0 c 0,55,56
 256 0 256 0 176 52 c 0,57,58
 106 100 106 100 64 172 c 0,59,60
 28 234 28 234 28 314 c 0,61,62
 28 462 28 462 130 570 c 0,63,64
 210 654 210 654 358 710 c 0,65,66
 494 762 494 762 598 762 c 0,67,68
 680 762 680 762 836 714 c 1,69,70
 984 774 984 774 1096 774 c 0,71,72
 1202 774 1202 774 1296 734 c 0,73,74
 1360 706 1360 706 1466 636 c 1,75,76
 1552 676 1552 676 1814 766 c 1,77,-1
 1980 670 l 1,0,1
1510 384 m 2,78,-1
 1486 426 l 1,79,80
 1434 406 1434 406 1386 358 c 0,81,82
 1330 304 1330 304 1330 254 c 0,83,84
 1330 234 1330 234 1340 216 c 0,85,86
 1354 190 1354 190 1386 167 c 128,-1,87
 1418 144 1418 144 1442 144 c 0,88,89
 1534 144 1534 144 1534 272 c 0,90,91
 1534 342 1534 342 1510 384 c 2,78,-1
952 458 m 0,92,93
 932 492 932 492 864 550 c 1,94,95
 806 522 806 522 756 458 c 0,96,97
 704 388 704 388 704 320 c 0,98,99
 704 282 704 282 722 250 c 0,100,101
 772 164 772 164 844 164 c 0,102,103
 890 164 890 164 935 222 c 128,-1,104
 980 280 980 280 980 354 c 0,105,106
 980 408 980 408 952 458 c 0,92,93
310 258 m 0,107,108
 290 292 290 292 250 292 c 0,109,110
 208 292 208 292 208 236 c 0,111,112
 208 200 208 200 222 178 c 0,113,114
 242 144 242 144 280 144 c 0,115,116
 322 144 322 144 322 212 c 0,117,118
 322 238 322 238 310 258 c 0,107,108
EndSplineSet
EndChar

StartChar: tm_ta
Encoding: 2980 2980 68
Width: 948
GlyphClass: 2
Flags: W
LayerCount: 2
Fore
SplineSet
874 364 m 0,0,1
 918 288 918 288 918 214 c 0,2,3
 918 32 918 32 674 -108 c 0,4,5
 464 -228 464 -228 228 -250 c 1,6,-1
 152 -118 l 1,7,8
 238 -118 238 -118 400 -58 c 0,9,10
 586 12 586 12 682 104 c 0,11,12
 804 220 804 220 736 338 c 0,13,14
 704 394 704 394 556 386 c 1,15,16
 550 -20 550 -20 238 -20 c 0,17,18
 102 -20 102 -20 56 58 c 0,19,20
 28 104 28 104 28 156 c 0,21,22
 28 260 28 260 132 358 c 128,-1,23
 236 456 236 456 402 502 c 1,24,25
 400 554 400 554 380 612 c 1,26,27
 250 570 250 570 154 442 c 1,28,-1
 20 540 l 1,29,30
 88 662 88 662 206 724 c 0,31,32
 300 774 300 774 398 774 c 0,33,34
 440 774 440 774 472 722 c 0,35,36
 520 642 520 642 544 524 c 1,37,38
 774 536 774 536 874 364 c 0,0,1
370 312 m 1,39,40
 310 300 310 300 251 231 c 128,-1,41
 192 162 192 162 200 104 c 1,42,43
 258 98 258 98 315 167 c 128,-1,44
 372 236 372 236 370 312 c 1,39,40
EndSplineSet
EndChar

StartChar: tm_na
Encoding: 2984 2984 69
Width: 1108
GlyphClass: 2
Flags: W
LayerCount: 2
Fore
SplineSet
1030 276 m 0,0,1
 1094 168 1094 168 1094 68 c 0,2,3
 1094 -92 1094 -92 948 -190 c 128,-1,4
 802 -288 802 -288 588 -288 c 0,5,6
 486 -288 486 -288 330 -240 c 1,7,-1
 320 -124 l 1,8,9
 460 -152 460 -152 504 -152 c 0,10,11
 706 -152 706 -152 826 -52 c 0,12,13
 928 32 928 32 928 140 c 0,14,15
 928 182 928 182 910 212 c 0,16,17
 864 292 864 292 774 292 c 256,18,19
 684 292 684 292 624 242 c 0,20,21
 542 174 542 174 556 32 c 1,22,-1
 418 74 l 1,23,24
 412 288 412 288 392 592 c 1,25,26
 336 568 336 568 252 450 c 0,27,28
 170 340 170 340 152 276 c 1,29,30
 62 336 62 336 14 390 c 1,31,32
 40 516 40 516 136 620 c 0,33,34
 240 734 240 734 378 768 c 1,35,-1
 566 624 l 1,36,-1
 566 418 l 1,37,38
 616 448 616 448 732 448 c 0,39,40
 816 448 816 448 899 403 c 128,-1,41
 982 358 982 358 1030 276 c 0,0,1
EndSplineSet
EndChar

StartChar: tm_nnna
Encoding: 2985 2985 70
Width: 1420
GlyphClass: 2
Flags: W
LayerCount: 2
Fore
SplineSet
1412 768 m 1,0,1
 1392 642 1392 642 1374 518 c 0,2,3
 1352 360 1352 360 1352 240 c 0,4,5
 1352 114 1352 114 1374 0 c 1,6,-1
 1222 0 l 1,7,8
 1208 134 1208 134 1208 314 c 0,9,10
 1208 530 1208 530 1226 642 c 1,11,12
 1214 644 1214 644 1196 644 c 0,13,14
 1104 644 1104 644 986 604 c 1,15,16
 1020 562 1020 562 1042 524 c 0,17,18
 1104 418 1104 418 1104 298 c 0,19,20
 1104 192 1104 192 1050 130 c 0,21,22
 990 56 990 56 870 56 c 0,23,24
 762 56 762 56 666 120 c 0,25,26
 584 172 584 172 540 250 c 0,27,28
 500 320 500 320 500 386 c 0,29,30
 500 506 500 506 632 634 c 1,31,32
 480 642 480 642 270 444 c 1,33,34
 392 406 392 406 450 306 c 0,35,36
 486 242 486 242 486 172 c 256,37,38
 486 102 486 102 452 60 c 0,39,40
 412 12 412 12 340 12 c 0,41,42
 168 12 168 12 72 178 c 0,43,44
 28 254 28 254 28 338 c 0,45,46
 28 480 28 480 136 584 c 0,47,48
 220 666 220 666 348 722 c 128,-1,49
 476 778 476 778 574 778 c 0,50,51
 684 778 684 778 800 738 c 1,52,53
 866 768 866 768 1010 768 c 2,54,-1
 1412 768 l 1,0,1
928 472 m 0,55,56
 910 504 910 504 846 568 c 1,57,58
 772 540 772 540 728 480 c 128,-1,59
 684 420 684 420 684 354 c 0,60,61
 684 282 684 282 734 230 c 0,62,63
 776 188 776 188 828 188 c 0,64,65
 868 188 868 188 911 245 c 128,-1,66
 954 302 954 302 954 374 c 0,67,68
 954 424 954 424 928 472 c 0,55,56
308 264 m 0,69,70
 284 306 284 306 248 306 c 0,71,72
 206 306 206 306 206 246 c 0,73,74
 206 216 206 216 223 186 c 128,-1,75
 240 156 240 156 282 156 c 0,76,77
 318 156 318 156 318 222 c 0,78,79
 318 244 318 244 308 264 c 0,69,70
EndSplineSet
EndChar

StartChar: tm_pa
Encoding: 2986 2986 71
Width: 756
GlyphClass: 2
Flags: W
LayerCount: 2
Fore
SplineSet
740 768 m 1,0,1
 714 350 714 350 626 160 c 0,2,3
 542 -20 542 -20 392 -20 c 0,4,5
 318 -20 318 -20 236 28 c 0,6,7
 144 84 144 84 90 176 c 0,8,9
 26 288 26 288 26 460 c 0,10,11
 26 588 26 588 60 768 c 1,12,-1
 236 768 l 1,13,14
 184 586 184 586 184 426 c 0,15,16
 184 280 184 280 224 212 c 0,17,18
 272 128 272 128 362 128 c 0,19,20
 450 128 450 128 518 362 c 0,21,22
 578 578 578 578 570 768 c 1,23,-1
 740 768 l 1,0,1
EndSplineSet
EndChar

StartChar: tm_ma
Encoding: 2990 2990 72
Width: 1076
GlyphClass: 2
Flags: W
LayerCount: 2
Fore
SplineSet
1010 630 m 0,0,1
 1046 568 1046 568 1046 490 c 0,2,3
 1046 308 1046 308 886 162 c 0,4,5
 708 0 708 0 438 0 c 0,6,7
 182 0 182 0 78 178 c 0,8,9
 30 260 30 260 30 340 c 0,10,11
 30 492 30 492 230 768 c 1,12,-1
 434 768 l 1,13,14
 184 438 184 438 184 292 c 0,15,16
 184 216 184 216 237 164 c 128,-1,17
 290 112 290 112 366 112 c 0,18,19
 402 112 402 112 424 122 c 1,20,21
 408 180 408 180 408 242 c 0,22,23
 408 432 408 432 531 597 c 128,-1,24
 654 762 654 762 782 762 c 0,25,26
 934 762 934 762 1010 630 c 0,0,1
830 612 m 0,27,28
 784 612 784 612 728 569 c 128,-1,29
 672 526 672 526 644 472 c 0,30,31
 594 372 594 372 580 336 c 0,32,33
 556 266 556 266 556 180 c 1,34,35
 742 282 742 282 800 350 c 0,36,37
 900 466 900 466 900 544 c 0,38,39
 900 568 900 568 887 590 c 128,-1,40
 874 612 874 612 830 612 c 0,27,28
EndSplineSet
EndChar

StartChar: tm_ya
Encoding: 2991 2991 73
Width: 1048
GlyphClass: 2
Flags: W
LayerCount: 2
Fore
SplineSet
1034 768 m 1,0,1
 1046 458 1046 458 958 238 c 0,2,3
 862 0 862 0 692 0 c 0,4,5
 646 0 646 0 574 54 c 128,-1,6
 502 108 502 108 466 170 c 0,7,8
 436 224 436 224 426 294 c 1,9,10
 380 176 380 176 374 166 c 0,11,12
 330 84 330 84 262 84 c 0,13,14
 146 84 146 84 76 206 c 0,15,16
 28 288 28 288 28 420 c 0,17,18
 28 422 28 422 58 768 c 1,19,-1
 220 768 l 1,20,21
 218 710 218 710 202 504 c 0,22,23
 190 336 190 336 194 294 c 0,24,25
 198 254 198 254 216 236 c 1,26,27
 262 276 262 276 298 398 c 0,28,29
 320 484 320 484 342 570 c 1,30,-1
 536 570 l 1,31,32
 522 326 522 326 594 202 c 0,33,34
 620 156 620 156 640 156 c 0,35,36
 726 156 726 156 798 339 c 128,-1,37
 870 522 870 522 886 768 c 1,38,-1
 1034 768 l 1,0,1
EndSplineSet
EndChar

StartChar: tm_ra
Encoding: 2992 2992 74
Width: 660
GlyphClass: 2
Flags: W
LayerCount: 2
Fore
SplineSet
606 208 m 0,0,1
 630 66 630 66 630 -20 c 0,2,3
 630 -150 630 -150 572 -204 c 128,-1,4
 514 -258 514 -258 376 -258 c 0,5,6
 196 -258 196 -258 46 -170 c 1,7,-1
 76 -54 l 1,8,9
 196 -112 196 -112 310 -112 c 0,10,11
 466 -112 466 -112 466 64 c 0,12,13
 466 116 466 116 454 188 c 0,14,15
 400 530 400 530 360 604 c 1,16,17
 296 616 296 616 240 472 c 0,18,19
 212 404 212 404 168 222 c 1,20,-1
 12 308 l 1,21,22
 2 390 2 390 100 574 c 0,23,24
 202 768 202 768 282 768 c 0,25,26
 340 768 340 768 403 732 c 128,-1,27
 466 696 466 696 500 638 c 0,28,29
 548 558 548 558 606 208 c 0,0,1
EndSplineSet
EndChar

StartChar: tm_rra
Encoding: 2993 2993 75
Width: 964
GlyphClass: 2
Flags: W
LayerCount: 2
Fore
SplineSet
934 340 m 0,0,1
 934 100 934 100 816 -84 c 0,2,3
 682 -298 682 -298 456 -298 c 0,4,5
 324 -298 324 -298 158 -206 c 1,6,-1
 174 -92 l 1,7,8
 292 -162 292 -162 348 -162 c 0,9,10
 454 -162 454 -162 558 -100 c 0,11,12
 644 -50 644 -50 686 10 c 0,13,14
 760 120 760 120 760 368 c 0,15,16
 760 468 760 468 742 546 c 1,17,18
 670 518 670 518 630 476 c 1,19,20
 596 428 596 428 560 380 c 1,21,22
 508 272 508 272 508 136 c 0,23,24
 508 104 508 104 512 74 c 1,25,-1
 390 74 l 1,26,27
 352 270 352 270 348 538 c 1,28,29
 246 448 246 448 158 206 c 1,30,31
 112 236 112 236 12 298 c 1,32,33
 76 506 76 506 312 768 c 1,34,35
 340 754 340 754 464 678 c 1,36,-1
 466 532 l 1,37,38
 592 682 592 682 732 682 c 0,39,40
 824 682 824 682 879 588 c 128,-1,41
 934 494 934 494 934 340 c 0,0,1
EndSplineSet
EndChar

StartChar: tm_la
Encoding: 2994 2994 76
Width: 1092
GlyphClass: 2
Flags: W
LayerCount: 2
Fore
SplineSet
1018 768 m 1,0,1
 1062 602 1062 602 1062 462 c 0,2,3
 1062 246 1062 246 956 112 c 0,4,5
 862 -8 862 -8 738 -8 c 0,6,7
 680 -8 680 -8 615 30 c 128,-1,8
 550 68 550 68 514 130 c 0,9,10
 450 242 450 242 450 412 c 0,11,12
 450 520 450 520 486 588 c 1,13,14
 448 584 448 584 374 521 c 128,-1,15
 300 458 300 458 280 420 c 1,16,17
 380 388 380 388 426 308 c 0,18,19
 452 262 452 262 452 206 c 0,20,21
 452 122 452 122 399 59 c 128,-1,22
 346 -4 346 -4 264 -4 c 0,23,24
 208 -4 208 -4 150 25 c 128,-1,25
 92 54 92 54 70 94 c 0,26,27
 28 166 28 166 28 250 c 0,28,29
 28 414 28 414 166 560 c 0,30,31
 312 714 312 714 546 774 c 1,32,-1
 704 632 l 1,33,34
 592 518 592 518 592 364 c 0,35,36
 592 264 592 264 631 195 c 128,-1,37
 670 126 670 126 706 126 c 0,38,39
 774 126 774 126 838 246 c 0,40,41
 908 378 908 378 908 548 c 0,42,43
 908 660 908 660 876 768 c 1,44,-1
 1018 768 l 1,0,1
290 274 m 0,45,46
 268 314 268 314 236 314 c 0,47,48
 218 314 218 314 205 276 c 128,-1,49
 192 238 192 238 192 198 c 0,50,51
 192 168 192 168 200 154 c 0,52,53
 214 128 214 128 242 128 c 0,54,55
 258 128 258 128 279 162 c 128,-1,56
 300 196 300 196 300 232 c 0,57,58
 300 256 300 256 290 274 c 0,45,46
EndSplineSet
EndChar

StartChar: tm_lla
Encoding: 2995 2995 77
Width: 1232
GlyphClass: 2
Flags: W
LayerCount: 2
Fore
SplineSet
1192 0 m 1,0,-1
 1052 0 l 1,1,2
 1060 126 1060 126 1060 226 c 0,3,4
 1060 434 1060 434 1030 434 c 0,5,6
 996 434 996 434 942 320 c 0,7,8
 876 180 876 180 866 0 c 1,9,-1
 718 0 l 1,10,11
 692 182 692 182 664 366 c 0,12,13
 646 484 646 484 622 524 c 0,14,15
 568 618 568 618 510 618 c 0,16,17
 468 618 468 618 410 576 c 1,18,19
 502 534 502 534 560 444 c 128,-1,20
 618 354 618 354 618 254 c 0,21,22
 618 144 618 144 547 71 c 128,-1,23
 476 -2 476 -2 380 -2 c 0,24,25
 290 -2 290 -2 199 51 c 128,-1,26
 108 104 108 104 62 184 c 0,27,28
 28 242 28 242 28 310 c 0,29,30
 28 472 28 472 188 626 c 0,31,32
 340 772 340 772 478 772 c 0,33,34
 594 772 594 772 686 660 c 0,35,36
 770 556 770 556 782 426 c 1,37,38
 908 604 908 604 988 604 c 0,39,40
 1090 604 1090 604 1158 486 c 0,41,42
 1202 410 1202 410 1202 240 c 0,43,44
 1202 190 1202 190 1198 112 c 0,45,46
 1192 16 1192 16 1192 0 c 1,0,-1
440 406 m 0,47,48
 394 486 394 486 292 476 c 1,49,50
 196 386 196 386 196 268 c 0,51,52
 196 224 196 224 216 188 c 0,53,54
 250 128 250 128 290 128 c 0,55,56
 342 128 342 128 398 203 c 128,-1,57
 454 278 454 278 454 350 c 0,58,59
 454 382 454 382 440 406 c 0,47,48
EndSplineSet
EndChar

StartChar: tm_llla
Encoding: 2996 2996 78
Width: 1056
GlyphClass: 2
Flags: W
LayerCount: 2
Fore
SplineSet
984 620 m 0,0,1
 1026 546 1026 546 1026 464 c 0,2,3
 1026 330 1026 330 920 190 c 0,4,5
 830 70 830 70 710 -2 c 1,6,7
 776 -88 776 -88 938 -124 c 1,8,-1
 916 -244 l 1,9,10
 818 -216 818 -216 746 -180 c 1,11,12
 612 -284 612 -284 436 -284 c 0,13,14
 302 -284 302 -284 137 -196 c 128,-1,15
 -28 -108 -28 -108 -90 0 c 1,16,-1
 70 0 l 1,17,18
 108 -52 108 -52 210 -99 c 128,-1,19
 312 -146 312 -146 394 -146 c 0,20,21
 542 -146 542 -146 596 -78 c 1,22,-1
 570 -58 l 1,23,24
 522 -78 522 -78 474 -78 c 0,25,26
 340 -78 340 -78 218 14 c 0,27,28
 128 84 128 84 79 167 c 128,-1,29
 30 250 30 250 30 348 c 0,30,31
 30 496 30 496 154 768 c 1,32,-1
 348 768 l 1,33,34
 200 492 200 492 200 310 c 0,35,36
 200 136 200 136 302 82 c 0,37,38
 336 64 336 64 380 64 c 0,39,40
 408 64 408 64 456 80 c 1,41,42
 404 190 404 190 404 326 c 0,43,44
 404 466 404 466 450 556 c 0,45,46
 562 778 562 778 742 778 c 0,47,48
 802 778 802 778 880 724 c 0,49,50
 952 674 952 674 984 620 c 0,0,1
852 578 m 0,51,52
 824 628 824 628 782 628 c 0,53,54
 716 628 716 628 634 486 c 0,55,56
 568 372 568 372 568 246 c 0,57,58
 568 186 568 186 590 154 c 1,59,60
 690 194 690 194 802 368 c 0,61,62
 864 464 864 464 864 528 c 0,63,64
 864 556 864 556 852 578 c 0,51,52
EndSplineSet
EndChar

StartChar: tm_va
Encoding: 2997 2997 79
Width: 1136
GlyphClass: 2
Flags: W
LayerCount: 2
Fore
SplineSet
1106 332 m 0,0,1
 1096 162 1096 162 1048 88 c 0,2,3
 976 -20 976 -20 788 -20 c 0,4,5
 634 -20 634 -20 446 42 c 1,6,-1
 466 222 l 1,7,8
 516 242 516 242 576 322 c 0,9,10
 644 412 644 412 644 492 c 0,11,12
 644 530 644 530 627 560 c 128,-1,13
 610 590 610 590 571 609 c 128,-1,14
 532 628 532 628 508 628 c 0,15,16
 474 628 474 628 388 566 c 128,-1,17
 302 504 302 504 272 464 c 1,18,19
 364 408 364 408 398 348 c 0,20,21
 428 296 428 296 428 228 c 0,22,23
 428 146 428 146 384 88 c 0,24,25
 338 24 338 24 258 24 c 0,26,27
 142 24 142 24 68 152 c 0,28,29
 26 224 26 224 26 320 c 0,30,31
 26 438 26 438 80 532 c 128,-1,32
 134 626 134 626 234 694 c 0,33,34
 350 772 350 772 470 772 c 0,35,36
 648 772 648 772 750 598 c 0,37,38
 804 506 804 506 804 418 c 0,39,40
 804 248 804 248 628 134 c 1,41,42
 656 120 656 120 730 120 c 0,43,44
 950 120 950 120 950 416 c 0,45,46
 950 646 950 646 906 768 c 1,47,-1
 1056 768 l 1,48,49
 1110 556 1110 556 1110 428 c 0,50,51
 1110 386 1110 386 1106 332 c 0,0,1
226 374 m 0,52,53
 212 374 212 374 200 327 c 128,-1,54
 188 280 188 280 188 232 c 0,55,56
 188 162 188 162 214 150 c 1,57,58
 232 158 232 158 252 194 c 128,-1,59
 272 230 272 230 272 272 c 0,60,61
 272 310 272 310 253 342 c 128,-1,62
 234 374 234 374 226 374 c 0,52,53
EndSplineSet
EndChar

StartChar: tm_ssa
Encoding: 2999 2999 80
Width: 1740
GlyphClass: 2
Flags: W
LayerCount: 2
Fore
SplineSet
1730 8 m 1,0,1
 1582 52 1582 52 1356 94 c 1,2,-1
 1370 -256 l 1,3,-1
 1198 -256 l 1,4,-1
 1188 100 l 1,5,6
 1042 104 1042 104 892 82 c 0,7,8
 700 54 700 54 670 0 c 1,9,-1
 496 114 l 1,10,11
 440 10 440 10 340 10 c 0,12,13
 172 10 172 10 80 170 c 0,14,15
 28 260 28 260 28 368 c 0,16,17
 28 528 28 528 130 644 c 0,18,19
 240 768 240 768 420 768 c 0,20,21
 490 768 490 768 582 707 c 128,-1,22
 674 646 674 646 716 572 c 0,23,24
 768 482 768 482 768 404 c 0,25,26
 768 330 768 330 720 196 c 1,27,28
 1042 236 1042 236 1180 236 c 1,29,-1
 1174 256 l 1,30,31
 958 266 958 266 886 392 c 0,32,33
 850 454 850 454 850 530 c 0,34,35
 850 630 850 630 906 700 c 0,36,37
 968 778 968 778 1066 778 c 0,38,39
 1136 778 1136 778 1203 722 c 128,-1,40
 1270 666 1270 666 1296 596 c 0,41,42
 1306 566 1306 566 1304 520 c 1,43,44
 1364 596 1364 596 1388 662 c 1,45,-1
 1670 456 l 1,46,47
 1658 398 1658 398 1658 322 c 0,48,49
 1658 124 1658 124 1730 8 c 1,0,1
1528 194 m 1,50,51
 1498 242 1498 242 1494 322 c 0,52,53
 1494 340 1494 340 1496 456 c 1,54,55
 1446 358 1446 358 1334 300 c 1,56,-1
 1338 220 l 1,57,58
 1408 214 1408 214 1528 194 c 1,50,51
1084 602 m 0,59,60
 1050 602 1050 602 1030 560 c 0,61,62
 1012 526 1012 526 1012 482 c 0,63,64
 1012 454 1012 454 1020 440 c 0,65,66
 1042 402 1042 402 1088 402 c 0,67,68
 1172 402 1172 402 1172 482 c 0,69,70
 1172 526 1172 526 1150 564 c 128,-1,71
 1128 602 1128 602 1084 602 c 0,59,60
482 628 m 1,72,73
 438 628 438 628 356 582 c 0,74,75
 262 528 262 528 264 478 c 1,76,77
 316 482 316 482 384 436 c 0,78,79
 442 396 442 396 468 351 c 128,-1,80
 494 306 494 306 502 230 c 1,81,82
 606 344 606 344 606 464 c 0,83,84
 606 514 606 514 583 555 c 128,-1,85
 560 596 560 596 482 628 c 1,72,73
322 264 m 0,86,87
 282 332 282 332 258 332 c 0,88,89
 222 332 222 332 222 270 c 0,90,91
 222 214 222 214 244 175 c 128,-1,92
 266 136 266 136 306 136 c 0,93,94
 342 136 342 136 342 196 c 0,95,96
 342 230 342 230 322 264 c 0,86,87
EndSplineSet
EndChar

StartChar: tm_sa
Encoding: 3000 3000 81
Width: 1540
GlyphClass: 2
Flags: W
LayerCount: 2
Fore
SplineSet
1470 542 m 0,0,1
 1512 470 1512 470 1512 368 c 0,2,3
 1512 222 1512 222 1438 106 c 0,4,5
 1362 -20 1362 -20 1248 -20 c 0,6,7
 1036 -20 1036 -20 920 180 c 0,8,9
 868 268 868 268 868 396 c 0,10,11
 868 460 868 460 882 496 c 1,12,13
 810 428 810 428 760 300 c 0,14,15
 706 156 706 156 708 0 c 1,16,-1
 502 0 l 1,17,18
 576 256 576 256 576 360 c 0,19,20
 576 454 576 454 528 538 c 0,21,22
 492 602 492 602 440 602 c 0,23,24
 406 602 406 602 342 547 c 128,-1,25
 278 492 278 492 252 442 c 1,26,27
 308 436 308 436 366 393 c 128,-1,28
 424 350 424 350 456 296 c 128,-1,29
 488 242 488 242 488 178 c 0,30,31
 488 98 488 98 438 48 c 0,32,33
 384 -12 384 -12 280 -12 c 0,34,35
 228 -12 228 -12 171 26 c 128,-1,36
 114 64 114 64 80 122 c 0,37,38
 26 214 26 214 26 314 c 0,39,40
 26 482 26 482 166 624 c 0,41,42
 292 752 292 752 406 752 c 0,43,44
 474 752 474 752 552 698 c 0,45,46
 640 636 640 636 680 542 c 1,47,48
 704 586 704 586 782 658 c 0,49,50
 870 738 870 738 946 768 c 1,51,-1
 1116 598 l 1,52,53
 1016 402 1016 402 1016 310 c 0,54,55
 1016 256 1016 256 1048 200 c 0,56,57
 1084 136 1084 136 1144 136 c 0,58,59
 1242 136 1242 136 1298 238 c 0,60,61
 1346 324 1346 324 1346 438 c 0,62,63
 1346 512 1346 512 1324 550 c 0,64,65
 1280 626 1280 626 1204 626 c 0,66,67
 1190 626 1190 626 1178 622 c 1,68,-1
 1100 760 l 1,69,70
 1122 764 1122 764 1144 764 c 0,71,72
 1238 764 1238 764 1330 698 c 0,73,74
 1414 638 1414 638 1470 542 c 0,0,1
300 282 m 0,75,76
 276 326 276 326 230 326 c 0,77,78
 188 326 188 326 188 256 c 0,79,80
 188 206 188 206 204 178 c 0,81,82
 228 136 228 136 258 136 c 0,83,84
 280 136 280 136 296 167 c 128,-1,85
 312 198 312 198 312 234 c 0,86,87
 312 262 312 262 300 282 c 0,75,76
EndSplineSet
EndChar

StartChar: tm_ha
Encoding: 3001 3001 82
Width: 1540
GlyphClass: 2
Flags: W
LayerCount: 2
Fore
SplineSet
1484 104 m 0,0,1
 1370 -262 1370 -262 838 -262 c 0,2,3
 576 -262 576 -262 268 -148 c 1,4,-1
 264 -32 l 1,5,6
 550 -134 550 -134 810 -134 c 0,7,8
 1190 -134 1190 -134 1322 130 c 0,9,10
 1368 220 1368 220 1368 344 c 0,11,12
 1368 506 1368 506 1316 598 c 0,13,14
 1278 664 1278 664 1226 664 c 0,15,16
 1194 664 1194 664 1176 642 c 1,17,18
 1176 642 1176 642 1154 600 c 1,19,20
 1210 492 1210 492 1210 320 c 0,21,22
 1210 174 1210 174 1168 34 c 1,23,-1
 1020 54 l 1,24,25
 1050 166 1050 166 1050 334 c 0,26,27
 1050 498 1050 498 1010 568 c 0,28,29
 992 598 992 598 976 598 c 0,30,31
 922 598 922 598 922 438 c 0,32,33
 922 266 922 266 972 58 c 1,34,35
 832 74 832 74 760 74 c 0,36,37
 598 74 598 74 526 0 c 1,38,-1
 420 94 l 1,39,40
 366 10 366 10 290 10 c 0,41,42
 232 10 232 10 164 72 c 0,43,44
 106 126 106 126 64 196 c 0,45,46
 28 260 28 260 28 356 c 0,47,48
 28 502 28 502 102 608 c 0,49,50
 190 732 190 732 342 732 c 0,51,52
 396 732 396 732 484 684 c 0,53,54
 594 626 594 626 644 538 c 0,55,56
 684 468 684 468 684 396 c 0,57,58
 684 314 684 314 628 220 c 1,59,-1
 788 212 l 1,60,61
 764 352 764 352 764 462 c 0,62,63
 764 626 764 626 816 710 c 0,64,65
 860 780 860 780 930 780 c 0,66,67
 978 780 978 780 1044 724 c 1,68,69
 1080 798 1080 798 1162 798 c 0,70,71
 1338 798 1338 798 1444 614 c 0,72,73
 1508 502 1508 502 1508 292 c 0,74,75
 1508 182 1508 182 1484 104 c 0,0,1
508 502 m 0,76,77
 490 534 490 534 452 558 c 128,-1,78
 414 582 414 582 382 582 c 0,79,80
 322 582 322 582 271 536 c 128,-1,81
 220 490 220 490 220 456 c 1,82,83
 342 434 342 434 406 324 c 0,84,85
 436 272 436 272 436 218 c 1,86,87
 458 244 458 244 486 320 c 0,88,89
 516 406 516 406 516 460 c 0,90,91
 516 486 516 486 508 502 c 0,76,77
266 296 m 0,92,93
 242 340 242 340 206 340 c 0,94,95
 190 340 190 340 190 302 c 0,96,97
 190 232 190 232 224 172 c 0,98,99
 232 158 232 158 254 130 c 1,100,101
 284 166 284 166 284 222 c 0,102,103
 284 262 284 262 266 296 c 0,92,93
EndSplineSet
EndChar

StartChar: tm_aakaar
Encoding: 3006 3006 83
Width: 700
GlyphClass: 2
Flags: W
LayerCount: 2
Fore
SplineSet
682 0 m 1,0,-1
 504 0 l 1,1,2
 502 156 502 156 452 374 c 0,3,4
 408 568 408 568 382 600 c 1,5,6
 324 598 324 598 279 509 c 128,-1,7
 234 420 234 420 176 202 c 1,8,-1
 8 288 l 1,9,10
 52 488 52 488 142 628 c 128,-1,11
 232 768 232 768 308 768 c 0,12,13
 364 768 364 768 429 732 c 128,-1,14
 494 696 494 696 528 636 c 0,15,16
 598 518 598 518 682 0 c 1,0,-1
EndSplineSet
EndChar

StartChar: tm_ikaar
Encoding: 3007 3007 84
Width: 836
GlyphClass: 2
Flags: W
LayerCount: 2
Fore
SplineSet
124 630 m 1,0,1
 76 728 76 728 76 812 c 0,2,3
 76 932 76 932 171 1003 c 128,-1,4
 266 1074 266 1074 438 1074 c 0,5,6
 620 1074 620 1074 722 1028 c 1,7,-1
 742 914 l 1,8,9
 618 946 618 946 536 946 c 0,10,11
 394 946 394 946 321 894 c 128,-1,12
 248 842 248 842 248 762 c 0,13,14
 248 736 248 736 256 710 c 1,15,-1
 124 630 l 1,0,1
EndSplineSet
EndChar

StartChar: tm_iikaar
Encoding: 3008 3008 85
Width: 890
GlyphClass: 4
Flags: W
LayerCount: 2
Fore
SplineSet
160 646 m 1,0,1
 96 734 96 734 96 814 c 0,2,3
 96 914 96 914 192 977 c 128,-1,4
 288 1040 288 1040 452 1040 c 0,5,6
 826 1040 826 1040 958 810 c 0,7,8
 986 762 986 762 986 724 c 0,9,10
 986 678 986 678 942 652 c 0,11,12
 908 632 908 632 862 632 c 0,13,14
 792 632 792 632 684 680 c 0,15,16
 536 746 536 746 378 882 c 1,17,18
 272 866 272 866 272 760 c 0,19,20
 272 740 272 740 276 718 c 1,21,-1
 160 646 l 1,0,1
566 912 m 0,22,23
 544 912 544 912 534 908 c 1,24,25
 650 786 650 786 778 786 c 0,26,27
 820 786 820 786 820 810 c 0,28,29
 820 852 820 852 710 886 c 0,30,31
 622 912 622 912 566 912 c 0,22,23
EndSplineSet
EndChar

StartChar: tm_ukaar
Encoding: 3009 3009 86
Width: 362
GlyphClass: 4
Flags: W
LayerCount: 2
Fore
SplineSet
238 821 m 1,0,1
 280 749 280 749 280 629 c 0,2,3
 280 445 280 445 130 445 c 0,4,5
 70 445 70 445 4 479 c 0,6,7
 -72 519 -72 519 -110 583 c 0,8,9
 -140 635 -140 635 -140 697 c 1,10,-1
 -416 697 l 1,11,-1
 -448 821 l 1,12,-1
 238 821 l 1,0,1
126 697 m 1,13,-1
 10 697 l 1,14,15
 10 629 10 629 24 605 c 0,16,17
 44 571 44 571 80 571 c 0,18,19
 100 571 100 571 117 596 c 128,-1,20
 134 621 134 621 134 655 c 0,21,22
 134 677 134 677 126 697 c 1,13,-1
EndSplineSet
EndChar

StartChar: tm_uukaar
Encoding: 3010 3010 87
Width: 547
GlyphClass: 4
Flags: W
LayerCount: 2
Fore
SplineSet
444 774 m 0,0,1
 496 682 496 682 496 572 c 0,2,3
 496 446 496 446 426 364 c 0,4,5
 344 272 344 272 196 272 c 0,6,7
 170 272 170 272 66 296 c 1,8,-1
 50 432 l 1,9,10
 104 420 104 420 140 420 c 0,11,12
 228 420 228 420 287 484 c 128,-1,13
 346 548 346 548 346 636 c 0,14,15
 346 700 346 700 312 758 c 0,16,17
 284 806 284 806 224 845 c 128,-1,18
 164 884 164 884 126 884 c 0,19,20
 98 884 98 884 66 872 c 0,21,22
 28 856 28 856 28 834 c 0,23,24
 28 828 28 828 32 820 c 1,25,-1
 198 820 l 1,26,27
 250 732 250 732 250 630 c 0,28,29
 250 448 250 448 110 448 c 0,30,31
 36 448 36 448 -29 483 c 128,-1,32
 -94 518 -94 518 -126 572 c 0,33,34
 -150 612 -150 612 -174 696 c 1,35,-1
 -438 696 l 1,36,-1
 -476 820 l 1,37,-1
 -188 820 l 1,38,39
 -182 900 -182 900 -132 952 c 0,40,41
 -72 1018 -72 1018 42 1018 c 0,42,43
 132 1018 132 1018 250 954 c 0,44,45
 382 882 382 882 444 774 c 0,0,1
94 696 m 1,46,-1
 -26 696 l 1,47,48
 -26 668 -26 668 -8 608 c 1,49,50
 12 572 12 572 56 572 c 0,51,52
 106 572 106 572 106 644 c 0,53,54
 106 670 106 670 94 696 c 1,46,-1
EndSplineSet
EndChar

StartChar: tm_ekaar
Encoding: 3014 3014 88
Width: 804
GlyphClass: 2
Flags: W
LayerCount: 2
Fore
SplineSet
704 0 m 1,0,-1
 552 0 l 1,1,2
 568 284 568 284 568 476 c 0,3,4
 568 738 568 738 540 784 c 0,5,6
 502 848 502 848 446 848 c 0,7,8
 396 848 396 848 330 776 c 0,9,10
 276 716 276 716 236 636 c 1,11,12
 366 556 366 556 428 450 c 0,13,14
 484 352 484 352 484 222 c 0,15,16
 484 4 484 4 326 4 c 0,17,18
 270 4 270 4 202 56 c 0,19,20
 138 102 138 102 104 162 c 0,21,22
 28 294 28 294 28 442 c 0,23,24
 28 610 28 610 122 774 c 0,25,26
 242 984 242 984 410 984 c 0,27,28
 484 984 484 984 562 932 c 0,29,30
 634 884 634 884 670 822 c 0,31,32
 732 714 732 714 732 492 c 0,33,34
 732 394 732 394 704 0 c 1,0,-1
218 496 m 0,35,36
 196 496 196 496 196 420 c 0,37,38
 196 270 196 270 244 184 c 0,39,40
 256 164 256 164 272 154 c 1,41,42
 316 178 316 178 316 304 c 0,43,44
 316 390 316 390 285 443 c 128,-1,45
 254 496 254 496 218 496 c 0,35,36
EndSplineSet
EndChar

StartChar: tm_eekaar
Encoding: 3015 3015 89
Width: 844
GlyphClass: 2
Flags: W
LayerCount: 2
Fore
SplineSet
788 396 m 0,0,1
 824 332 824 332 824 256 c 0,2,3
 824 146 824 146 752 66 c 0,4,5
 672 -20 672 -20 542 -20 c 256,6,7
 412 -20 412 -20 291 50 c 128,-1,8
 170 120 170 120 112 222 c 0,9,10
 20 380 20 380 20 554 c 0,11,12
 20 758 20 758 140 900 c 128,-1,13
 260 1042 260 1042 448 1042 c 0,14,15
 628 1042 628 1042 706 908 c 0,16,17
 732 862 732 862 732 824 c 0,18,19
 732 756 732 756 661 719 c 128,-1,20
 590 682 590 682 492 682 c 0,21,22
 344 682 344 682 240 712 c 1,23,24
 226 690 226 690 214 668 c 0,25,26
 186 614 186 614 180 558 c 1,27,28
 270 618 270 618 392 618 c 0,29,30
 520 618 520 618 634 548 c 0,31,32
 736 486 736 486 788 396 c 0,0,1
532 924 m 0,33,34
 500 924 500 924 450 902 c 0,35,36
 356 862 356 862 312 798 c 1,37,38
 338 790 338 790 394 792 c 0,39,40
 460 792 460 792 496 810 c 0,41,42
 576 848 576 848 576 884 c 0,43,44
 576 924 576 924 532 924 c 0,33,34
586 446 m 0,45,46
 546 472 546 472 464 472 c 256,47,48
 382 472 382 472 315 436 c 128,-1,49
 248 400 248 400 220 336 c 1,50,51
 244 246 244 246 318 182 c 128,-1,52
 392 118 392 118 486 118 c 0,53,54
 540 118 540 118 597 188 c 128,-1,55
 654 258 654 258 654 328 c 0,56,57
 654 402 654 402 586 446 c 0,45,46
EndSplineSet
EndChar

StartChar: tm_aikaar
Encoding: 3016 3016 90
Width: 1572
GlyphClass: 2
Flags: W
LayerCount: 2
Fore
SplineSet
1478 442 m 0,0,1
 1540 334 1540 334 1540 236 c 0,2,3
 1540 134 1540 134 1472 76 c 0,4,5
 1396 10 1396 10 1246 10 c 0,6,7
 1220 10 1220 10 1190 12 c 1,8,-1
 1142 170 l 1,9,10
 1184 150 1184 150 1238 150 c 0,11,12
 1290 150 1290 150 1333 200 c 128,-1,13
 1376 250 1376 250 1376 322 c 0,14,15
 1376 384 1376 384 1338 450 c 128,-1,16
 1300 516 1300 516 1230 560 c 128,-1,17
 1160 604 1160 604 1080 604 c 0,18,19
 1032 604 1032 604 986 586 c 1,20,21
 1026 544 1026 544 1054 494 c 0,22,23
 1122 376 1122 376 1122 254 c 0,24,25
 1122 148 1122 148 1066 84 c 0,26,27
 1006 12 1006 12 894 12 c 0,28,29
 796 12 796 12 704 62 c 0,30,31
 602 116 602 116 544 216 c 0,32,33
 508 280 508 280 508 346 c 0,34,35
 508 472 508 472 642 598 c 1,36,37
 544 600 544 600 468 560 c 0,38,39
 402 526 402 526 276 414 c 1,40,41
 400 366 400 366 454 272 c 0,42,43
 490 210 490 210 490 142 c 0,44,45
 490 72 490 72 454 28 c 0,46,47
 412 -20 412 -20 338 -20 c 0,48,49
 164 -20 164 -20 72 140 c 0,50,51
 28 218 28 218 28 306 c 0,52,53
 28 430 28 430 107 524 c 128,-1,54
 186 618 186 618 324 682 c 0,55,56
 456 744 456 744 564 744 c 0,57,58
 692 744 692 744 772 712 c 1,59,60
 846 766 846 766 1014 766 c 0,61,62
 1142 766 1142 766 1286 654 c 0,63,64
 1412 558 1412 558 1478 442 c 0,0,1
914 438 m 0,65,66
 884 490 884 490 834 522 c 1,67,68
 778 490 778 490 738 432 c 0,69,70
 694 368 694 368 694 306 c 0,71,72
 694 266 694 266 714 230 c 0,73,74
 762 148 762 148 816 148 c 0,75,76
 840 148 840 148 888 194 c 0,77,78
 948 252 948 252 948 326 c 0,79,80
 948 380 948 380 914 438 c 0,65,66
304 232 m 0,81,82
 282 270 282 270 250 270 c 0,83,84
 206 270 206 270 206 208 c 0,85,86
 206 182 206 182 220 156 c 0,87,88
 240 122 240 122 282 122 c 0,89,90
 318 122 318 122 318 182 c 0,91,92
 318 208 318 208 304 232 c 0,81,82
EndSplineSet
EndChar

StartChar: tm_halant
Encoding: 3021 3021 94
Width: 339
GlyphClass: 4
Flags: W
LayerCount: 2
Fore
SplineSet
223 1149 m 0,0,1
 157 1149 157 1149 109.5 1196.5 c 128,-1,2
 62 1244 62 1244 62 1310 c 0,3,4
 62 1378 62 1378 109.5 1424.5 c 128,-1,5
 157 1471 157 1471 223 1471 c 0,6,7
 290 1471 290 1471 337 1424.5 c 128,-1,8
 384 1378 384 1378 384 1310 c 0,9,10
 384 1244 384 1244 337 1196.5 c 128,-1,11
 290 1149 290 1149 223 1149 c 0,0,1
EndSplineSet
EndChar

StartChar: tm_two
Encoding: 3048 3048 97
Width: 1425
GlyphClass: 2
Flags: W
LayerCount: 2
Fore
SplineSet
1244 70 m 1,0,-1
 1226 0 l 1,1,-1
 586 0 l 2,2,3
 429 0 429 0 429 106 c 0,4,5
 429 153 429 153 478 181.5 c 128,-1,6
 527 210 527 210 586 210 c 2,7,-1
 779 210 l 2,8,9
 867 210 867 210 928 271.5 c 128,-1,10
 989 333 989 333 989 420 c 0,11,12
 989 500 989 500 945 560.5 c 128,-1,13
 901 621 901 621 831 621 c 0,14,15
 793 621 793 621 744 595 c 1,16,17
 814 555 814 555 814 437 c 0,18,19
 814 382 814 382 772.5 344.5 c 128,-1,20
 731 307 731 307 675 307 c 0,21,22
 618 307 618 307 580 351 c 128,-1,23
 542 395 542 395 542 455 c 0,24,25
 542 565 542 565 646.5 632.5 c 128,-1,26
 751 700 751 700 884 700 c 0,27,28
 987 700 987 700 1058 629 c 128,-1,29
 1129 558 1129 558 1129 455 c 0,30,31
 1129 321 1129 321 1025.5 230.5 c 128,-1,32
 922 140 922 140 779 140 c 2,33,-1
 595 140 l 2,34,35
 551 140 551 140 551 106 c 0,36,37
 551 70 551 70 604 70 c 2,38,-1
 1244 70 l 1,0,-1
675 560 m 1,39,40
 621 516 621 516 621 473 c 0,41,42
 621 386 621 386 666 386 c 0,43,44
 709 386 709 386 709 473 c 0,45,46
 709 518 709 518 675 560 c 1,39,40
EndSplineSet
EndChar

StartChar: tm_three
Encoding: 3049 3049 98
Width: 1424
GlyphClass: 2
Flags: W
LayerCount: 2
Fore
SplineSet
1270 70 m 1,0,-1
 1252 0 l 1,1,-1
 640 0 l 1,2,-1
 657 70 l 1,3,-1
 780 70 l 2,4,5
 874 70 874 70 941 130.5 c 128,-1,6
 1008 191 1008 191 1008 280 c 0,7,8
 1008 317 1008 317 982.5 342.5 c 128,-1,9
 957 368 957 368 920 368 c 0,10,11
 890 368 890 368 865 341 c 128,-1,12
 840 314 840 314 833 280 c 2,13,-1
 815 193 l 1,14,-1
 675 193 l 1,15,-1
 764 630 l 1,16,-1
 571 630 l 1,17,-1
 444 0 l 1,18,-1
 378 0 l 1,19,-1
 517 700 l 1,20,-1
 1095 700 l 1,21,-1
 1077 630 l 1,22,-1
 902 630 l 1,23,-1
 859 403 l 1,24,25
 918 455 918 455 990 455 c 0,26,27
 1057 455 1057 455 1102.5 403.5 c 128,-1,28
 1148 352 1148 352 1148 280 c 0,29,30
 1148 209 1148 209 1090 151 c 128,-1,31
 1032 93 1032 93 947 70 c 1,32,-1
 1270 70 l 1,0,-1
EndSplineSet
EndChar

StartChar: tm_four
Encoding: 3050 3050 99
Width: 1427
GlyphClass: 2
Flags: W
LayerCount: 2
Fore
SplineSet
915 316 m 1,0,-1
 644 316 l 2,1,2
 601 316 601 316 570.5 291 c 128,-1,3
 540 266 540 266 540 228 c 0,4,5
 540 158 540 158 609.5 114 c 128,-1,6
 679 70 679 70 766 70 c 0,7,8
 811 70 811 70 844 99.5 c 128,-1,9
 877 129 877 129 887 175 c 2,10,-1
 915 316 l 1,0,-1
979 630 m 1,11,-1
 784 630 l 1,12,-1
 735 386 l 1,13,-1
 930 386 l 1,14,-1
 979 630 l 1,11,-1
1042 245 m 2,15,16
 1017 125 1017 125 940 62.5 c 128,-1,17
 863 0 863 0 766 0 c 0,18,19
 651 0 651 0 559.5 64 c 128,-1,20
 468 128 468 128 468 228 c 0,21,22
 468 294 468 294 520.5 340 c 128,-1,23
 573 386 573 386 644 386 c 2,24,-1
 669 386 l 1,25,-1
 731 700 l 1,26,-1
 1344 700 l 1,27,-1
 1329 630 l 1,28,-1
 1118 630 l 1,29,-1
 1068 386 l 1,30,-1
 1232 386 l 1,31,-1
 1248 464 l 1,32,-1
 1309 464 l 1,33,-1
 1279 316 l 1,34,-1
 1055 316 l 1,35,-1
 1042 245 l 2,15,16
EndSplineSet
EndChar

StartChar: tm_five
Encoding: 3051 3051 100
Width: 1424
GlyphClass: 2
Flags: W
LayerCount: 2
Fore
SplineSet
1412 517 m 1,0,-1
 1359 526 l 1,1,2
 1369 563 1369 563 1369 598 c 0,3,4
 1369 723 1369 723 1253.5 825.5 c 128,-1,5
 1138 928 1138 928 965 928 c 0,6,7
 728 928 728 928 575.5 716 c 128,-1,8
 423 504 423 504 423 228 c 0,9,10
 423 -43 423 -43 515 -179.5 c 128,-1,11
 607 -316 607 -316 790 -316 c 0,12,13
 979 -316 979 -316 1103.5 -163.5 c 128,-1,14
 1228 -11 1228 -11 1228 193 c 0,15,16
 1228 257 1228 257 1200 304.5 c 128,-1,17
 1172 352 1172 352 1126 352 c 0,18,19
 1099 352 1099 352 1072.5 336.5 c 128,-1,20
 1046 321 1046 321 1039 298 c 2,21,-1
 980 0 l 1,22,-1
 840 0 l 1,23,-1
 965 630 l 1,24,-1
 759 630 l 1,25,-1
 634 0 l 1,26,-1
 566 0 l 1,27,-1
 706 700 l 1,28,-1
 1237 700 l 1,29,-1
 1219 630 l 1,30,-1
 1105 630 l 1,31,-1
 1057 386 l 1,32,33
 1101 437 1101 437 1171 437 c 0,34,35
 1261 437 1261 437 1314.5 368.5 c 128,-1,36
 1368 300 1368 300 1368 193 c 0,37,38
 1368 -47 1368 -47 1202.5 -216 c 128,-1,39
 1037 -385 1037 -385 799 -385 c 0,40,41
 589 -385 589 -385 471.5 -223 c 128,-1,42
 354 -61 354 -61 354 193 c 0,43,44
 354 513 354 513 519 764 c 128,-1,45
 684 1015 684 1015 948 1015 c 0,46,47
 1152 1015 1152 1015 1288.5 889.5 c 128,-1,48
 1425 764 1425 764 1425 613 c 0,49,50
 1425 566 1425 566 1412 517 c 1,0,-1
EndSplineSet
EndChar

StartChar: tm_six
Encoding: 3052 3052 101
Width: 1424
GlyphClass: 2
Flags: W
LayerCount: 2
Fore
SplineSet
784 316 m 1,0,-1
 513 316 l 2,1,2
 469 316 469 316 438 291 c 128,-1,3
 407 266 407 266 407 228 c 0,4,5
 407 158 407 158 477 114 c 128,-1,6
 547 70 547 70 635 70 c 0,7,8
 680 70 680 70 713 99.5 c 128,-1,9
 746 129 746 129 756 175 c 2,10,-1
 784 316 l 1,0,-1
846 630 m 1,11,-1
 653 630 l 1,12,-1
 603 386 l 1,13,-1
 798 386 l 1,14,-1
 846 630 l 1,11,-1
910 245 m 2,15,16
 884 125 884 125 808 62.5 c 128,-1,17
 732 0 732 0 635 0 c 0,18,19
 518 0 518 0 428 64 c 128,-1,20
 338 128 338 128 338 228 c 0,21,22
 338 294 338 294 389.5 340 c 128,-1,23
 441 386 441 386 513 386 c 2,24,-1
 537 386 l 1,25,-1
 600 700 l 1,26,-1
 1229 700 l 1,27,-1
 1213 630 l 1,28,-1
 988 630 l 1,29,-1
 938 386 l 1,30,-1
 1422 386 l 1,31,-1
 1410 316 l 1,32,-1
 1353 316 l 1,33,-1
 1291 0 l 1,34,-1
 1151 0 l 1,35,-1
 1213 316 l 1,36,-1
 1116 316 l 1,37,-1
 1055 0 l 1,38,-1
 967 0 l 1,39,-1
 1028 316 l 1,40,-1
 924 316 l 1,41,-1
 910 245 l 2,15,16
EndSplineSet
EndChar

StartChar: tm_seven
Encoding: 3053 3053 102
Width: 1425
GlyphClass: 2
Flags: W
LayerCount: 2
Fore
SplineSet
643 88 m 1,0,1
 706 88 706 88 753 128 c 128,-1,2
 800 168 800 168 800 228 c 0,3,4
 800 269 800 269 781 301 c 128,-1,5
 762 333 762 333 729 333 c 0,6,7
 684 333 684 333 654.5 296.5 c 128,-1,8
 625 260 625 260 625 210 c 0,9,10
 625 135 625 135 643 88 c 1,0,1
1042 0 m 1,11,-1
 1167 630 l 1,12,-1
 852 630 l 2,13,14
 704 630 704 630 594.5 540.5 c 128,-1,15
 485 451 485 451 485 316 c 0,16,17
 485 247 485 247 507 194.5 c 128,-1,18
 529 142 529 142 572 106 c 1,19,20
 555 135 555 135 555 228 c 256,21,22
 555 321 555 321 614.5 388 c 128,-1,23
 674 455 674 455 765 455 c 0,24,25
 837 455 837 455 884 398 c 128,-1,26
 931 341 931 341 931 263 c 0,27,28
 931 155 931 155 863 77.5 c 128,-1,29
 795 0 795 0 695 0 c 0,30,31
 576 0 576 0 495.5 94 c 128,-1,32
 415 188 415 188 415 316 c 0,33,34
 415 481 415 481 545.5 590.5 c 128,-1,35
 676 700 676 700 852 700 c 2,36,-1
 1430 700 l 1,37,-1
 1412 630 l 1,38,-1
 1307 630 l 1,39,-1
 1181 0 l 1,40,-1
 1042 0 l 1,11,-1
EndSplineSet
EndChar

StartChar: tm_eight
Encoding: 3054 3054 103
Width: 1427
GlyphClass: 2
Flags: W
LayerCount: 2
Fore
SplineSet
849 629 m 1,0,1
 745 611 745 611 670 548.5 c 128,-1,2
 595 486 595 486 595 402 c 0,3,4
 595 338 595 338 638.5 291 c 128,-1,5
 682 244 682 244 744 244 c 0,6,7
 817 244 817 244 864 307.5 c 128,-1,8
 911 371 911 371 911 454 c 0,9,10
 911 580 911 580 849 629 c 1,0,1
1024 140 m 1,11,-1
 411 140 l 2,12,13
 381 140 381 140 357 125 c 128,-1,14
 333 110 333 110 333 87 c 0,15,16
 333 43 333 43 412 -13.5 c 128,-1,17
 491 -70 491 -70 639 -70 c 0,18,19
 743 -70 743 -70 839.5 -18 c 128,-1,20
 936 34 936 34 1024 140 c 1,11,-1
1414 -245 m 1,21,-1
 1269 -245 l 1,22,-1
 1348 140 l 1,23,-1
 1164 140 l 1,24,25
 1051 4 1051 4 915 -63.5 c 128,-1,26
 779 -131 779 -131 621 -131 c 0,27,28
 421 -131 421 -131 311.5 -52.5 c 128,-1,29
 202 26 202 26 202 123 c 0,30,31
 202 160 202 160 233 184.5 c 128,-1,32
 264 209 264 209 307 209 c 2,33,-1
 666 209 l 1,34,35
 604 231 604 231 565 284.5 c 128,-1,36
 526 338 526 338 526 402 c 0,37,38
 526 534 526 534 652 617 c 128,-1,39
 778 700 778 700 937 700 c 0,40,41
 1069 700 1069 700 1169 620.5 c 128,-1,42
 1269 541 1269 541 1269 420 c 0,43,44
 1269 306 1269 306 1213 209 c 1,45,-1
 1364 209 l 1,46,-1
 1463 700 l 1,47,-1
 1603 700 l 1,48,-1
 1414 -245 l 1,21,-1
989 620 m 1,49,50
 1042 530 1042 530 1042 411 c 0,51,52
 1042 267 1042 267 919 209 c 1,53,-1
 1077 209 l 1,54,55
 1146 308 1146 308 1146 402 c 0,56,57
 1146 486 1146 486 1103 553 c 128,-1,58
 1060 620 1060 620 989 620 c 1,49,50
EndSplineSet
EndChar

StartChar: tm_nine
Encoding: 3055 3055 104
Width: 1427
GlyphClass: 2
Flags: W
LayerCount: 2
Fore
SplineSet
692 316 m 1,0,-1
 422 316 l 2,1,2
 379 316 379 316 348 291 c 128,-1,3
 317 266 317 266 317 228 c 0,4,5
 317 158 317 158 387 114 c 128,-1,6
 457 70 457 70 544 70 c 0,7,8
 589 70 589 70 622 99.5 c 128,-1,9
 655 129 655 129 665 175 c 2,10,-1
 692 316 l 1,0,-1
756 630 m 1,11,-1
 562 630 l 1,12,-1
 513 386 l 1,13,-1
 707 386 l 1,14,-1
 756 630 l 1,11,-1
1157 175 m 0,15,16
 1157 259 1157 259 1052 298 c 1,17,18
 982 240 982 240 982 158 c 0,19,20
 982 121 982 121 1007.5 95.5 c 128,-1,21
 1033 70 1033 70 1068 70 c 0,22,23
 1107 70 1107 70 1132 101.5 c 128,-1,24
 1157 133 1157 133 1157 175 c 0,15,16
1297 0 m 1,25,26
 1375 93 1375 93 1375 193 c 0,27,28
 1375 263 1375 263 1332.5 315.5 c 128,-1,29
 1290 368 1290 368 1226 368 c 0,30,31
 1163 368 1163 368 1113 342 c 1,32,33
 1167 322 1167 322 1201 276.5 c 128,-1,34
 1235 231 1235 231 1235 175 c 0,35,36
 1235 104 1235 104 1187 52 c 128,-1,37
 1139 0 1139 0 1068 0 c 0,38,39
 1005 0 1005 0 958.5 46.5 c 128,-1,40
 912 93 912 93 912 158 c 0,41,42
 912 257 912 257 982 316 c 1,43,-1
 833 316 l 1,44,-1
 819 245 l 2,45,46
 795 125 795 125 718.5 62.5 c 128,-1,47
 642 0 642 0 544 0 c 0,48,49
 428 0 428 0 337 64 c 128,-1,50
 246 128 246 128 246 228 c 0,51,52
 246 294 246 294 299 340 c 128,-1,53
 352 386 352 386 422 386 c 2,54,-1
 446 386 l 1,55,-1
 508 700 l 1,56,-1
 1122 700 l 1,57,-1
 1104 630 l 1,58,-1
 896 630 l 1,59,-1
 847 386 l 1,60,-1
 947 386 l 2,61,62
 1014 386 1014 386 1052 368 c 1,63,64
 1111 420 1111 420 1226 420 c 0,65,66
 1327 420 1327 420 1399.5 354.5 c 128,-1,67
 1472 289 1472 289 1472 193 c 0,68,69
 1472 109 1472 109 1410 0 c 1,70,-1
 1297 0 l 1,25,26
EndSplineSet
EndChar

StartChar: tm_ten
Encoding: 3056 3056 105
Width: 1260
GlyphClass: 2
Flags: W
LayerCount: 2
Fore
SplineSet
597 149 m 1,0,1
 558 74 558 74 508 37 c 128,-1,2
 458 0 458 0 395 0 c 0,3,4
 302 0 302 0 242 64 c 128,-1,5
 182 128 182 128 182 200 c 0,6,7
 182 224 182 224 186 244 c 2,8,-1
 279 700 l 1,9,-1
 419 700 l 1,10,-1
 325 244 l 2,11,12
 320 223 320 223 320 205 c 0,13,14
 320 155 320 155 346.5 112.5 c 128,-1,15
 373 70 373 70 413 70 c 0,16,17
 472 70 472 70 525 146 c 128,-1,18
 578 222 578 222 606 359 c 2,19,-1
 675 700 l 1,20,-1
 815 700 l 1,21,-1
 746 351 l 2,22,23
 728 262 728 262 728 204 c 0,24,25
 728 150 728 150 760.5 110 c 128,-1,26
 793 70 793 70 841 70 c 0,27,28
 957 70 957 70 1026 204 c 128,-1,29
 1095 338 1095 338 1095 500 c 0,30,31
 1095 691 1095 691 995.5 840 c 128,-1,32
 896 989 896 989 737 989 c 1,33,-1
 755 1042 l 1,34,35
 960 1042 960 1042 1097.5 880.5 c 128,-1,36
 1235 719 1235 719 1235 500 c 0,37,38
 1235 300 1235 300 1118.5 150 c 128,-1,39
 1002 0 1002 0 824 0 c 0,40,41
 739 0 739 0 673.5 40.5 c 128,-1,42
 608 81 608 81 597 149 c 1,0,1
EndSplineSet
EndChar

StartChar: tm_hundred
Encoding: 3057 3057 106
Width: 1166
GlyphClass: 2
Flags: W
LayerCount: 2
Fore
SplineSet
1284 700 m 1,0,-1
 1267 629 l 1,1,-1
 1117 629 l 1,2,-1
 991 0 l 1,3,-1
 851 0 l 1,4,-1
 977 629 l 1,5,-1
 770 629 l 1,6,-1
 644 0 l 1,7,-1
 504 0 l 1,8,-1
 599 472 l 2,9,10
 606 507 606 507 606 534 c 0,11,12
 606 579 606 579 589 613 c 128,-1,13
 572 647 572 647 540 647 c 0,14,15
 483 647 483 647 440 595.5 c 128,-1,16
 397 544 397 544 382 472 c 2,17,-1
 285 0 l 1,18,-1
 146 0 l 1,19,-1
 242 472 l 2,20,21
 263 577 263 577 336.5 647 c 128,-1,22
 410 717 410 717 503 717 c 0,23,24
 567 717 567 717 614 679.5 c 128,-1,25
 661 642 661 642 661 585 c 1,26,-1
 685 700 l 1,27,-1
 1284 700 l 1,0,-1
EndSplineSet
EndChar

StartChar: tm_thousand
Encoding: 3058 3058 107
Width: 1256
GlyphClass: 2
Flags: W
LayerCount: 2
Fore
SplineSet
551 316 m 1,0,-1
 280 316 l 2,1,2
 237 316 237 316 206 291 c 128,-1,3
 175 266 175 266 175 228 c 0,4,5
 175 158 175 158 245.5 114 c 128,-1,6
 316 70 316 70 402 70 c 0,7,8
 447 70 447 70 480 99.5 c 128,-1,9
 513 129 513 129 523 175 c 2,10,-1
 551 316 l 1,0,-1
615 630 m 1,11,-1
 420 630 l 1,12,-1
 371 386 l 1,13,-1
 565 386 l 1,14,-1
 615 630 l 1,11,-1
677 245 m 2,15,16
 653 125 653 125 576 62.5 c 128,-1,17
 499 0 499 0 402 0 c 0,18,19
 285 0 285 0 195 64 c 128,-1,20
 105 128 105 128 105 228 c 0,21,22
 105 294 105 294 156.5 340 c 128,-1,23
 208 386 208 386 280 386 c 2,24,-1
 304 386 l 1,25,-1
 367 700 l 1,26,-1
 997 700 l 1,27,-1
 983 630 l 1,28,-1
 755 630 l 1,29,-1
 705 386 l 1,30,-1
 1120 386 l 1,31,-1
 1105 316 l 1,32,-1
 971 316 l 1,33,-1
 945 175 l 1,34,35
 990 228 990 228 1067 228 c 0,36,37
 1134 228 1134 228 1179.5 176 c 128,-1,38
 1225 124 1225 124 1225 53 c 0,39,40
 1225 -78 1225 -78 1108 -161 c 128,-1,41
 991 -244 991 -244 840 -244 c 0,42,43
 740 -244 740 -244 542 -205 c 0,44,45
 346 -167 346 -167 244 -167 c 0,46,47
 181 -167 181 -167 134 -206.5 c 128,-1,48
 87 -246 87 -246 87 -307 c 0,49,50
 87 -384 87 -384 158 -411 c 1,51,-1
 149 -445 l 1,52,53
 82 -433 82 -433 36.5 -387 c 128,-1,54
 -9 -341 -9 -341 -9 -280 c 0,55,56
 -9 -205 -9 -205 70.5 -159.5 c 128,-1,57
 150 -114 150 -114 244 -114 c 0,58,59
 346 -114 346 -114 542 -153 c 0,60,61
 740 -192 740 -192 840 -192 c 0,62,63
 938 -192 938 -192 1011.5 -135 c 128,-1,64
 1085 -78 1085 -78 1085 9 c 0,65,66
 1085 61 1085 61 1061 100.5 c 128,-1,67
 1037 140 1037 140 997 140 c 256,68,69
 957 140 957 140 927 88 c 1,70,-1
 910 0 l 1,71,-1
 769 0 l 1,72,-1
 831 316 l 1,73,-1
 691 316 l 1,74,-1
 677 245 l 2,15,16
EndSplineSet
EndChar

StartChar: zerowidthnonjoiner
Encoding: 8204 8204 108
Width: 0
GlyphClass: 2
Flags: W
LayerCount: 2
Fore
SplineSet
315 1225 m 1,0,-1
 -34 -516 l 1,1,-1
 -103 -516 l 1,2,-1
 244 1225 l 1,3,-1
 315 1225 l 1,0,-1
EndSplineSet
EndChar

StartChar: zerowidthjoiner
Encoding: 8205 8205 109
Width: 0
GlyphClass: 2
Flags: W
LayerCount: 2
Fore
SplineSet
415 997 m 1,0,-1
 363 953 l 1,1,-1
 270 1073 l 1,2,-1
 -24 -441 l 1,3,-1
 -87 -441 l 1,4,-1
 206 1073 l 1,5,-1
 65 953 l 1,6,-1
 32 997 l 1,7,-1
 210 1145 l 1,8,-1
 89 1292 l 1,9,-1
 140 1334 l 1,10,-1
 260 1185 l 1,11,-1
 437 1334 l 1,12,-1
 472 1292 l 1,13,-1
 294 1145 l 1,14,-1
 415 997 l 1,0,-1
EndSplineSet
EndChar

StartChar: u2013
Encoding: 8211 8211 110
Width: 722
GlyphClass: 2
Flags: W
LayerCount: 2
Fore
SplineSet
733 319 m 1,0,-1
 -12 319 l 1,1,-1
 -12 370 l 1,2,-1
 733 370 l 1,3,-1
 733 319 l 1,0,-1
EndSplineSet
EndChar

StartChar: u2014
Encoding: 8212 8212 111
Width: 1284
GlyphClass: 2
Flags: W
LayerCount: 2
Fore
SplineSet
1296 318 m 1,0,-1
 -13 319 l 1,1,-1
 -13 371 l 1,2,-1
 1296 370 l 1,3,-1
 1296 318 l 1,0,-1
EndSplineSet
EndChar

StartChar: u2018
Encoding: 8216 8216 112
Width: 458
GlyphClass: 2
Flags: W
LayerCount: 2
Fore
SplineSet
416 882 m 0,0,1
 442 836 442 836 442 794 c 0,2,3
 442 732 442 732 388 694 c 128,-1,4
 334 656 334 656 256 656 c 0,5,6
 118 656 118 656 46 780 c 0,7,8
 14 834 14 834 14 886 c 0,9,10
 14 966 14 966 84 1024 c 0,11,12
 146 1076 146 1076 224 1078 c 1,13,14
 142 1022 142 1022 138 932 c 1,15,16
 184 962 184 962 250 962 c 0,17,18
 370 962 370 962 416 882 c 0,0,1
EndSplineSet
EndChar

StartChar: u2019
Encoding: 8217 8217 113
Width: 458
GlyphClass: 2
Flags: W
LayerCount: 2
Fore
SplineSet
410 952 m 0,0,1
 442 898 442 898 442 846 c 0,2,3
 442 766 442 766 372 708 c 0,4,5
 310 656 310 656 232 654 c 1,6,7
 314 710 314 710 318 800 c 1,8,9
 272 770 272 770 206 770 c 0,10,11
 86 770 86 770 40 850 c 0,12,13
 14 896 14 896 14 938 c 0,14,15
 14 1000 14 1000 68 1038 c 128,-1,16
 122 1076 122 1076 200 1076 c 0,17,18
 338 1076 338 1076 410 952 c 0,0,1
EndSplineSet
EndChar

StartChar: u201C
Encoding: 8220 8220 114
Width: 803
GlyphClass: 2
Flags: W
LayerCount: 2
Fore
SplineSet
416 1082 m 0,0,1
 442 1036 442 1036 442 994 c 0,2,3
 442 932 442 932 388 894 c 128,-1,4
 334 856 334 856 256 856 c 0,5,6
 118 856 118 856 46 980 c 0,7,8
 14 1034 14 1034 14 1086 c 0,9,10
 14 1166 14 1166 84 1224 c 0,11,12
 146 1276 146 1276 224 1278 c 1,13,14
 142 1222 142 1222 138 1132 c 1,15,16
 184 1162 184 1162 250 1162 c 0,17,18
 370 1162 370 1162 416 1082 c 0,0,1
856 1082 m 0,19,20
 882 1036 882 1036 882 994 c 0,21,22
 882 932 882 932 828 894 c 128,-1,23
 774 856 774 856 696 856 c 0,24,25
 558 856 558 856 486 980 c 0,26,27
 454 1034 454 1034 454 1086 c 0,28,29
 454 1166 454 1166 524 1224 c 0,30,31
 586 1276 586 1276 664 1278 c 1,32,33
 582 1222 582 1222 578 1132 c 1,34,35
 624 1162 624 1162 690 1162 c 0,36,37
 810 1162 810 1162 856 1082 c 0,19,20
EndSplineSet
EndChar

StartChar: u201D
Encoding: 8221 8221 115
Width: 803
GlyphClass: 2
Flags: W
LayerCount: 2
Fore
SplineSet
310 1152 m 0,0,1
 342 1098 342 1098 342 1046 c 0,2,3
 342 966 342 966 272 908 c 0,4,5
 210 856 210 856 132 854 c 1,6,7
 214 910 214 910 218 1000 c 1,8,9
 172 970 172 970 106 970 c 0,10,11
 -14 970 -14 970 -60 1050 c 0,12,13
 -86 1096 -86 1096 -86 1138 c 0,14,15
 -86 1200 -86 1200 -32 1238 c 128,-1,16
 22 1276 22 1276 100 1276 c 0,17,18
 238 1276 238 1276 310 1152 c 0,0,1
770 1152 m 0,19,20
 802 1098 802 1098 802 1046 c 0,21,22
 802 966 802 966 732 908 c 0,23,24
 670 856 670 856 592 854 c 1,25,26
 674 910 674 910 678 1000 c 1,27,28
 632 970 632 970 566 970 c 0,29,30
 446 970 446 970 400 1050 c 0,31,32
 374 1096 374 1096 374 1138 c 0,33,34
 374 1200 374 1200 428 1238 c 128,-1,35
 482 1276 482 1276 560 1276 c 0,36,37
 698 1276 698 1276 770 1152 c 0,19,20
EndSplineSet
EndChar

StartChar: u2026
Encoding: 8230 8230 116
Width: 1283
GlyphClass: 2
Flags: W
LayerCount: 2
Fore
SplineSet
265 136 m 0,0,1
 298 136 298 136 320.5 114 c 128,-1,2
 343 92 343 92 343 58 c 0,3,4
 343 26 343 26 320.5 3 c 128,-1,5
 298 -20 298 -20 265 -20 c 0,6,7
 233 -20 233 -20 210 3 c 128,-1,8
 187 26 187 26 187 58 c 0,9,10
 187 92 187 92 210 114 c 128,-1,11
 233 136 233 136 265 136 c 0,0,1
638 136 m 256,12,13
 670 136 670 136 693 114 c 128,-1,14
 716 92 716 92 716 58 c 0,15,16
 716 26 716 26 692.5 3 c 128,-1,17
 669 -20 669 -20 638 -20 c 0,18,19
 606 -20 606 -20 583 3 c 128,-1,20
 560 26 560 26 560 58 c 0,21,22
 560 92 560 92 583 114 c 128,-1,23
 606 136 606 136 638 136 c 256,12,13
1010 136 m 0,24,25
 1043 136 1043 136 1066 114 c 128,-1,26
 1089 92 1089 92 1089 58 c 0,27,28
 1089 26 1089 26 1065.5 3 c 128,-1,29
 1042 -20 1042 -20 1010 -20 c 256,30,31
 978 -20 978 -20 955.5 3 c 128,-1,32
 933 26 933 26 933 58 c 0,33,34
 933 92 933 92 955.5 114 c 128,-1,35
 978 136 978 136 1010 136 c 0,24,25
EndSplineSet
EndChar

StartChar: u2212
Encoding: 8722 8722 117
Width: 974
GlyphClass: 2
Flags: W
LayerCount: 2
Fore
SplineSet
133 450 m 1,0,-1
 133 508 l 1,1,-1
 894 508 l 1,2,-1
 894 450 l 1,3,-1
 133 450 l 1,0,-1
EndSplineSet
EndChar

StartChar: u25CC
Encoding: 9676 9676 118
Width: 1167
GlyphClass: 2
Flags: W
LayerCount: 2
Fore
SplineSet
654 665 m 0,0,1
 626 665 626 665 612 679 c 128,-1,2
 598 693 598 693 598 724 c 0,3,4
 598 746 598 746 615 762.5 c 128,-1,5
 632 779 632 779 654 779 c 0,6,7
 683 779 683 779 697.5 765 c 128,-1,8
 712 751 712 751 712 724 c 0,9,10
 712 693 712 693 697.5 679 c 128,-1,11
 683 665 683 665 654 665 c 0,0,1
840 616 m 0,12,13
 811 616 811 616 796.5 630.5 c 128,-1,14
 782 645 782 645 782 674 c 0,15,16
 782 701 782 701 796.5 715 c 128,-1,17
 811 729 811 729 840 729 c 0,18,19
 862 729 862 729 879 713 c 128,-1,20
 896 697 896 697 896 674 c 0,21,22
 896 645 896 645 882 630.5 c 128,-1,23
 868 616 868 616 840 616 c 0,12,13
470 616 m 0,24,25
 442 616 442 616 428 630.5 c 128,-1,26
 414 645 414 645 414 674 c 0,27,28
 414 697 414 697 431 713 c 128,-1,29
 448 729 448 729 470 729 c 0,30,31
 494 729 494 729 510 713 c 128,-1,32
 526 697 526 697 526 674 c 0,33,34
 526 645 526 645 512.5 630.5 c 128,-1,35
 499 616 499 616 470 616 c 0,24,25
973 482 m 0,36,37
 951 482 951 482 933.5 498 c 128,-1,38
 916 514 916 514 916 538 c 0,39,40
 916 567 916 567 930.5 581 c 128,-1,41
 945 595 945 595 973 595 c 256,42,43
 1001 595 1001 595 1014.5 581 c 128,-1,44
 1028 567 1028 567 1028 538 c 0,45,46
 1028 514 1028 514 1012 498 c 128,-1,47
 996 482 996 482 973 482 c 0,36,37
336 482 m 0,48,49
 307 482 307 482 293 495.5 c 128,-1,50
 279 509 279 509 279 538 c 256,51,52
 279 567 279 567 293 581 c 128,-1,53
 307 595 307 595 336 595 c 0,54,55
 364 595 364 595 378 581 c 128,-1,56
 392 567 392 567 392 538 c 0,57,58
 392 514 392 514 375 498 c 128,-1,59
 358 482 358 482 336 482 c 0,48,49
1024 298 m 0,60,61
 994 298 994 298 979.5 311.5 c 128,-1,62
 965 325 965 325 965 354 c 0,63,64
 965 382 965 382 979.5 396 c 128,-1,65
 994 410 994 410 1024 410 c 0,66,67
 1046 410 1046 410 1063 393 c 128,-1,68
 1080 376 1080 376 1080 354 c 0,69,70
 1080 331 1080 331 1063 314.5 c 128,-1,71
 1046 298 1046 298 1024 298 c 0,60,61
287 298 m 0,72,73
 257 298 257 298 243 311.5 c 128,-1,74
 229 325 229 325 229 354 c 0,75,76
 229 382 229 382 243 396 c 128,-1,77
 257 410 257 410 287 410 c 0,78,79
 310 410 310 410 326.5 393 c 128,-1,80
 343 376 343 376 343 354 c 0,81,82
 343 331 343 331 326.5 314.5 c 128,-1,83
 310 298 310 298 287 298 c 0,72,73
973 112 m 256,84,85
 945 112 945 112 930.5 126.5 c 128,-1,86
 916 141 916 141 916 169 c 0,87,88
 916 193 916 193 933.5 209.5 c 128,-1,89
 951 226 951 226 973 226 c 0,90,91
 996 226 996 226 1012 209.5 c 128,-1,92
 1028 193 1028 193 1028 169 c 0,93,94
 1028 141 1028 141 1014.5 126.5 c 128,-1,95
 1001 112 1001 112 973 112 c 256,84,85
336 112 m 0,96,97
 307 112 307 112 293 126.5 c 128,-1,98
 279 141 279 141 279 169 c 0,99,100
 279 198 279 198 293 212 c 128,-1,101
 307 226 307 226 336 226 c 0,102,103
 358 226 358 226 375 209.5 c 128,-1,104
 392 193 392 193 392 169 c 0,105,106
 392 141 392 141 378 126.5 c 128,-1,107
 364 112 364 112 336 112 c 0,96,97
840 -22 m 0,108,109
 811 -22 811 -22 796.5 -8 c 128,-1,110
 782 6 782 6 782 34 c 0,111,112
 782 63 782 63 796.5 78 c 128,-1,113
 811 93 811 93 840 93 c 0,114,115
 863 93 863 93 879.5 75 c 128,-1,116
 896 57 896 57 896 34 c 256,117,118
 896 11 896 11 879 -5.5 c 128,-1,119
 862 -22 862 -22 840 -22 c 0,108,109
470 -22 m 0,120,121
 448 -22 448 -22 431 -5.5 c 128,-1,122
 414 11 414 11 414 34 c 256,123,124
 414 57 414 57 430.5 75 c 128,-1,125
 447 93 447 93 470 93 c 0,126,127
 495 93 495 93 510.5 75 c 128,-1,128
 526 57 526 57 526 34 c 256,129,130
 526 11 526 11 510 -5.5 c 128,-1,131
 494 -22 494 -22 470 -22 c 0,120,121
654 -72 m 0,132,133
 632 -72 632 -72 615 -55 c 128,-1,134
 598 -38 598 -38 598 -16 c 0,135,136
 598 14 598 14 612 28.5 c 128,-1,137
 626 43 626 43 654 43 c 0,138,139
 683 43 683 43 697.5 28.5 c 128,-1,140
 712 14 712 14 712 -16 c 0,141,142
 712 -44 712 -44 697.5 -58 c 128,-1,143
 683 -72 683 -72 654 -72 c 0,132,133
EndSplineSet
EndChar

StartChar: tm_k_ikaar
Encoding: 65539 -1 119
Width: 1092
GlyphClass: 2
Flags: W
LayerCount: 2
Fore
SplineSet
1034 348 m 0,0,1
 1062 300 1062 300 1062 254 c 0,2,3
 1062 160 1062 160 930 80 c 0,4,5
 790 -6 790 -6 600 -6 c 0,6,7
 556 -6 556 -6 516 0 c 1,8,-1
 460 96 l 1,9,10
 374 0 374 0 244 0 c 0,11,12
 202 0 202 0 146 22 c 0,13,14
 78 46 78 46 56 86 c 0,15,16
 26 136 26 136 26 182 c 0,17,18
 26 376 26 376 482 480 c 1,19,20
 496 586 496 586 476 646 c 1,21,22
 386 650 386 650 180 454 c 1,23,-1
 14 530 l 1,24,25
 44 588 44 588 124 630 c 1,26,27
 76 728 76 728 76 812 c 0,28,29
 76 932 76 932 171 1003 c 128,-1,30
 266 1074 266 1074 438 1074 c 0,31,32
 620 1074 620 1074 722 1028 c 1,33,-1
 742 914 l 1,34,35
 618 946 618 946 536 946 c 0,36,37
 394 946 394 946 321 894 c 128,-1,38
 248 842 248 842 248 762 c 0,39,40
 248 736 248 736 256 710 c 1,41,42
 326 768 326 768 432 768 c 0,43,44
 532 768 532 768 584 680 c 0,45,46
 604 646 604 646 628 500 c 1,47,48
 790 506 790 506 880 476 c 0,49,50
 980 442 980 442 1034 348 c 0,0,1
752 386 m 0,51,52
 668 386 668 386 606 362 c 1,53,54
 596 304 596 304 557 244 c 128,-1,55
 518 184 518 184 478 126 c 1,56,57
 498 124 498 124 522 124 c 0,58,59
 646 124 646 124 781 191 c 128,-1,60
 916 258 916 258 916 314 c 0,61,62
 916 352 916 352 850 372 c 0,63,64
 804 386 804 386 752 386 c 0,51,52
404 302 m 1,65,66
 304 274 304 274 246 224 c 0,67,68
 196 180 196 180 196 136 c 0,69,70
 196 116 196 116 208 100 c 1,71,72
 350 172 350 172 404 302 c 1,65,66
EndSplineSet
Ligature2: "'psts' Post Base Substitutions lookup 8 subtable" tm_ka tm_ikaar
EndChar

StartChar: tm_ng_ikaar
Encoding: 65540 -1 120
Width: 1318
GlyphClass: 2
Flags: W
LayerCount: 2
Fore
SplineSet
1061 550 m 1,0,1
 925 658 925 658 889 718 c 0,2,3
 821 838 821 838 821 950 c 0,4,5
 821 1052 821 1052 877 1112 c 0,6,7
 941 1178 941 1178 1055 1178 c 0,8,9
 1199 1178 1199 1178 1467 1058 c 1,10,-1
 1457 944 l 1,11,12
 1331 1006 1331 1006 1276 1022 c 128,-1,13
 1221 1038 1221 1038 1139 1038 c 0,14,15
 1063 1038 1063 1038 1024 994 c 128,-1,16
 985 950 985 950 985 882 c 0,17,18
 985 812 985 812 1025 744 c 0,19,20
 1031 734 1031 734 1040 724 c 1,21,-1
 1032 768 l 1,22,-1
 1154 768 l 1,23,24
 1244 504 1244 504 1244 334 c 0,25,26
 1244 -6 1244 -6 884 -6 c 0,27,28
 694 -6 694 -6 560 44 c 1,29,-1
 546 162 l 1,30,31
 670 160 670 160 744 208 c 0,32,33
 808 248 808 248 808 306 c 0,34,35
 808 326 808 326 798 344 c 0,36,37
 782 372 782 372 690 372 c 0,38,39
 646 372 646 372 576 330 c 0,40,41
 488 276 488 276 450 194 c 1,42,-1
 308 320 l 1,43,44
 408 462 408 462 408 596 c 0,45,46
 408 620 408 620 402 638 c 1,47,48
 320 622 320 622 239 497 c 128,-1,49
 158 372 158 372 150 270 c 1,50,-1
 16 308 l 1,51,52
 12 326 12 326 12 348 c 0,53,54
 12 462 12 462 98 582 c 0,55,56
 154 662 154 662 230 718 c 0,57,58
 322 786 322 786 400 786 c 0,59,60
 484 786 484 786 534 700 c 0,61,62
 572 634 572 634 572 560 c 0,63,64
 572 522 572 522 562 476 c 1,65,66
 608 500 608 500 676 500 c 0,67,68
 756 500 756 500 837 458 c 128,-1,69
 918 416 918 416 952 356 c 0,70,71
 970 324 970 324 970 288 c 0,72,73
 970 250 970 250 944 202 c 2,74,-1
 908 138 l 1,75,76
 1018 160 1018 160 1054 228 c 0,77,78
 1076 272 1076 272 1080 386 c 0,79,80
 1082 484 1082 484 1066 577 c 1,81,-1
 1066 578 l 1,82,-1
 1061 550 l 1,0,1
EndSplineSet
Ligature2: "'psts' Post Base Substitutions lookup 8 subtable" tm_nga tm_ikaar
EndChar

StartChar: tm_c_ikaar
Encoding: 65541 -1 121
Width: 868
GlyphClass: 2
Flags: W
LayerCount: 2
Fore
SplineSet
852 498 m 1,0,1
 856 438 856 438 840 396 c 1,2,3
 792 410 792 410 742 410 c 0,4,5
 658 410 658 410 584 376 c 1,6,7
 562 242 562 242 504 138 c 0,8,9
 414 -20 414 -20 276 -20 c 0,10,11
 132 -20 132 -20 78 76 c 0,12,13
 52 122 52 122 52 166 c 0,14,15
 52 340 52 340 464 494 c 1,16,17
 460 544 460 544 446 638 c 1,18,19
 330 596 330 596 168 450 c 1,20,21
 82 480 82 480 14 510 c 1,22,23
 32 548 32 548 122 624 c 1,24,-1
 66 722 l 2,25,26
 18 808 18 808 18 876 c 0,27,28
 18 1062 18 1062 326 1062 c 0,29,30
 554 1062 554 1062 634 1018 c 1,31,-1
 616 902 l 1,32,33
 516 930 516 930 418 930 c 0,34,35
 328 930 328 930 268 898 c 0,36,37
 200 862 200 862 200 792 c 0,38,39
 200 752 200 752 222 706 c 1,40,41
 334 778 334 778 400 778 c 0,42,43
 494 778 494 778 546 688 c 0,44,45
 576 636 576 636 594 510 c 1,46,47
 650 520 650 520 716 520 c 0,48,49
 802 520 802 520 852 498 c 1,0,1
410 304 m 1,50,51
 216 234 216 234 216 132 c 0,52,53
 216 108 216 108 230 88 c 1,54,55
 378 174 378 174 410 304 c 1,50,51
EndSplineSet
Ligature2: "'psts' Post Base Substitutions lookup 8 subtable" tm_ca tm_ikaar
EndChar

StartChar: tm_j_ikaar
Encoding: 65542 -1 122
Width: 1370
GlyphClass: 2
Flags: W
LayerCount: 2
Fore
SplineSet
1324 116 m 0,0,1
 1374 30 1374 30 1374 -46 c 0,2,3
 1374 -144 1374 -144 1296 -203 c 128,-1,4
 1218 -262 1218 -262 1092 -262 c 0,5,6
 982 -262 982 -262 874 -226 c 1,7,-1
 870 -100 l 1,8,9
 976 -128 976 -128 1000 -128 c 0,10,11
 1062 -128 1062 -128 1128 -90 c 0,12,13
 1208 -44 1208 -44 1208 20 c 0,14,15
 1208 52 1208 52 1190 84 c 0,16,17
 1154 148 1154 148 1080 148 c 0,18,19
 1038 148 1038 148 970 82 c 0,20,21
 946 60 946 60 840 -60 c 1,22,23
 784 -132 784 -132 728 -204 c 1,24,25
 654 -284 654 -284 554 -284 c 0,26,27
 512 -284 512 -284 454 -246 c 0,28,29
 404 -214 404 -214 386 -184 c 0,30,31
 354 -128 354 -128 354 -68 c 0,32,33
 354 38 354 38 478 132 c 1,34,35
 584 198 584 198 690 266 c 1,36,37
 922 428 922 428 922 546 c 0,38,39
 922 576 922 576 900 603 c 128,-1,40
 878 630 878 630 848 630 c 0,41,42
 794 630 794 630 752 572 c 0,43,44
 694 496 694 496 696 352 c 1,45,-1
 562 262 l 1,46,47
 556 284 556 284 528 408 c 0,48,49
 512 474 512 474 476 538 c 0,50,51
 432 616 432 616 376 616 c 0,52,53
 338 616 338 616 324 586 c 1,54,55
 424 540 424 540 474 454 c 128,-1,56
 524 368 524 368 524 288 c 0,57,58
 524 190 524 190 452 124 c 0,59,60
 388 64 388 64 310 64 c 0,61,62
 252 64 252 64 179 111 c 128,-1,63
 106 158 106 158 72 218 c 0,64,65
 28 294 28 294 28 396 c 0,66,67
 28 532 28 532 102 628 c 0,68,69
 186 736 186 736 332 736 c 0,70,71
 394 736 394 736 458 698 c 0,72,73
 532 654 532 654 570 574 c 1,74,75
 578 606 578 606 600 652 c 1,76,77
 574 682 574 682 546 730 c 0,78,79
 506 798 506 798 506 862 c 0,80,81
 506 950 506 950 579 1006 c 128,-1,82
 652 1062 652 1062 758 1062 c 0,83,84
 972 1062 972 1062 1178 918 c 1,85,86
 1136 880 1136 880 1114 830 c 1,87,88
 960 912 960 912 836 912 c 0,89,90
 690 912 690 912 690 800 c 0,91,92
 690 780 690 780 696 758 c 1,93,94
 750 784 750 784 812 784 c 0,95,96
 866 784 866 784 932 740 c 128,-1,97
 998 696 998 696 1032 640 c 0,98,99
 1076 566 1076 566 1076 498 c 0,100,101
 1076 366 1076 366 910 256 c 1,102,103
 1002 282 1002 282 1050 282 c 0,104,105
 1136 282 1136 282 1222 220 c 0,106,107
 1292 172 1292 172 1324 116 c 0,0,1
808 176 m 1,108,109
 682 94 682 94 590 10 c 0,110,111
 486 -84 486 -84 502 -112 c 0,112,113
 516 -136 516 -136 544 -136 c 0,114,115
 594 -136 594 -136 658 -40 c 0,116,117
 796 160 796 160 808 176 c 1,108,109
352 412 m 0,118,119
 310 486 310 486 258 486 c 0,120,121
 226 486 226 486 200 443 c 128,-1,122
 174 400 174 400 174 344 c 0,123,124
 174 294 174 294 198 250 c 0,125,126
 230 194 230 194 284 194 c 0,127,128
 318 194 318 194 349 229 c 128,-1,129
 380 264 380 264 380 316 c 0,130,131
 380 362 380 362 352 412 c 0,118,119
EndSplineSet
Ligature2: "'psts' Post Base Substitutions lookup 8 subtable" tm_ja tm_ikaar
EndChar

StartChar: tm_ny_ikaar
Encoding: 65543 -1 123
Width: 1459
GlyphClass: 2
Flags: W
LayerCount: 2
Fore
SplineSet
756 722 m 1,0,1
 708 808 708 808 708 876 c 0,2,3
 708 1062 708 1062 1016 1062 c 0,4,5
 1244 1062 1244 1062 1324 1018 c 1,6,-1
 1306 902 l 1,7,8
 1206 930 1206 930 1108 930 c 0,9,10
 1018 930 1018 930 958 898 c 0,11,12
 890 862 890 862 890 792 c 0,13,14
 890 771 890 771 895 749 c 1,15,16
 957 762 957 762 1020 768 c 1,17,-1
 1132 648 l 1,18,19
 1092 594 1092 594 1042 426 c 1,20,21
 1092 444 1092 444 1132 444 c 0,22,23
 1202 444 1202 444 1274 394 c 128,-1,24
 1346 344 1346 344 1390 266 c 0,25,26
 1430 196 1430 196 1430 124 c 0,27,28
 1430 -20 1430 -20 1280 -123 c 128,-1,29
 1130 -226 1130 -226 912 -226 c 0,30,31
 660 -226 660 -226 444 -126 c 0,32,33
 212 -16 212 -16 100 178 c 0,34,35
 26 304 26 304 26 430 c 0,36,37
 26 634 26 634 210 786 c 1,38,-1
 388 688 l 1,39,40
 320 666 320 666 258 562 c 0,41,42
 190 450 190 450 190 338 c 0,43,44
 190 258 190 258 226 196 c 0,45,46
 310 52 310 52 510 -30 c 0,47,48
 672 -96 672 -96 820 -96 c 0,49,50
 1020 -96 1020 -96 1152 -16 c 0,51,52
 1278 60 1278 60 1278 162 c 0,53,54
 1278 202 1278 202 1256 238 c 0,55,56
 1220 302 1220 302 1170 302 c 0,57,58
 1124 302 1124 302 1064 246 c 0,59,60
 986 174 986 174 986 62 c 0,61,62
 986 32 986 32 992 0 c 1,63,-1
 852 0 l 1,64,65
 848 328 848 328 932 598 c 1,66,67
 876 590 876 590 774 542 c 0,68,69
 662 490 662 490 608 442 c 1,70,71
 726 386 726 386 784 286 c 0,72,73
 810 240 810 240 810 188 c 0,74,75
 810 106 810 106 754 50 c 0,76,77
 694 -12 694 -12 598 -12 c 0,78,79
 526 -12 526 -12 442 41 c 128,-1,80
 358 94 358 94 318 163 c 128,-1,81
 278 232 278 232 278 298 c 0,82,83
 278 424 278 424 438 540 c 0,84,85
 604 661 604 661 783 719 c 1,86,-1
 756 722 l 1,0,1
626 272 m 0,87,88
 594 326 594 326 546 326 c 1,89,90
 500 332 500 332 475 299 c 128,-1,91
 450 266 450 266 450 220 c 0,92,93
 450 188 450 188 462 166 c 0,94,95
 470 152 470 152 495 135 c 128,-1,96
 520 118 520 118 536 118 c 0,97,98
 570 118 570 118 606 146 c 128,-1,99
 642 174 642 174 642 216 c 0,100,101
 642 244 642 244 626 272 c 0,87,88
EndSplineSet
Ligature2: "'psts' Post Base Substitutions lookup 8 subtable" tm_nya tm_ikaar
EndChar

StartChar: tm_tt_ikaar
Encoding: 65544 -1 124
Width: 996
GlyphClass: 2
Flags: W
LayerCount: 2
Fore
SplineSet
980 162 m 1,0,1
 922 124 922 124 784 50 c 1,2,3
 796 -76 796 -76 826 -244 c 1,4,-1
 662 -244 l 1,5,6
 670 -202 670 -202 640 -2 c 1,7,8
 578 -20 578 -20 484 -20 c 0,9,10
 200 -20 200 -20 76 196 c 0,11,12
 26 282 26 282 26 404 c 0,13,14
 26 548 26 548 96 768 c 1,15,-1
 274 768 l 1,16,17
 182 574 182 574 182 370 c 0,18,19
 182 112 182 112 376 112 c 0,20,21
 476 112 476 112 604 158 c 1,22,23
 600 188 600 188 590 230 c 1,24,25
 566 210 566 210 526 210 c 0,26,27
 464 210 464 210 393 253 c 128,-1,28
 322 296 322 296 284 364 c 0,29,30
 250 422 250 422 250 480 c 0,31,32
 250 556 250 556 303 609 c 128,-1,33
 356 662 356 662 430 662 c 0,34,35
 616 662 616 662 710 498 c 0,36,37
 738 448 738 448 770 226 c 1,38,39
 796 242 796 242 848 272 c 1,40,-1
 980 162 l 1,0,1
556 494 m 0,41,42
 536 528 536 528 482 528 c 0,43,44
 450 528 450 528 430 503 c 128,-1,45
 410 478 410 478 410 442 c 0,46,47
 410 412 410 412 426 384 c 0,48,49
 450 344 450 344 498 344 c 0,50,51
 570 344 570 344 570 434 c 0,52,53
 570 470 570 470 556 494 c 0,41,42
EndSplineSet
Ligature2: "'psts' Post Base Substitutions lookup 8 subtable" tm_tta tm_ikaar
EndChar

StartChar: tm_nn_ikaar
Encoding: 65545 -1 125
Width: 1992
GlyphClass: 2
Flags: W
LayerCount: 2
Fore
SplineSet
2210 890 m 1,0,1
 2130 920 2130 920 2046 920 c 0,2,3
 1916 920 1916 920 1807 863 c 128,-1,4
 1698 806 1698 806 1684 724 c 1,5,-1
 1812 766 l 1,6,-1
 1976 670 l 1,7,8
 1972 644 1972 644 1934 404 c 0,9,10
 1908 248 1908 248 1908 118 c 0,11,12
 1908 60 1908 60 1912 0 c 1,13,-1
 1770 0 l 1,14,15
 1760 410 1760 410 1800 588 c 1,16,17
 1716 576 1716 576 1604 506 c 1,18,19
 1620 488 1620 488 1670 414 c 1,20,21
 1724 320 1724 320 1724 214 c 0,22,23
 1724 118 1724 118 1674 60 c 0,24,25
 1618 -6 1618 -6 1508 -6 c 0,26,27
 1428 -6 1428 -6 1332 51 c 128,-1,28
 1236 108 1236 108 1194 182 c 0,29,30
 1158 246 1158 246 1158 308 c 0,31,32
 1158 396 1158 396 1226 476 c 0,33,34
 1278 540 1278 540 1354 580 c 1,35,36
 1236 636 1236 636 1110 636 c 0,37,38
 1032 636 1032 636 996 606 c 1,39,40
 1028 576 1028 576 1062 518 c 0,41,42
 1130 402 1130 402 1130 284 c 0,43,44
 1130 172 1130 172 1070 104 c 0,45,46
 1006 30 1006 30 892 30 c 0,47,48
 802 30 802 30 708 80 c 0,49,50
 608 134 608 134 558 220 c 0,51,52
 516 292 516 292 516 362 c 0,53,54
 516 472 516 472 652 612 c 1,55,56
 640 614 640 614 626 614 c 0,57,58
 544 614 544 614 432 552 c 0,59,60
 332 494 332 494 284 434 c 1,61,62
 402 392 402 392 454 300 c 0,63,64
 494 230 494 230 494 158 c 0,65,66
 494 0 494 0 338 0 c 0,67,68
 252 0 252 0 174 54 c 0,69,70
 104 100 104 100 65 167 c 128,-1,71
 26 234 26 234 26 320 c 0,72,73
 26 446 26 446 110 548 c 128,-1,74
 194 650 194 650 354 712 c 0,75,76
 490 762 490 762 602 762 c 0,77,78
 658 762 658 762 834 714 c 1,79,80
 958 760 958 760 1114 760 c 0,81,82
 1192 760 1192 760 1304 720 c 0,83,84
 1408 680 1408 680 1466 636 c 1,85,86
 1490 646 1490 646 1536 668 c 1,87,88
 1520 718 1520 718 1520 764 c 0,89,90
 1520 900 1520 900 1646 980 c 0,91,92
 1760 1052 1760 1052 1930 1052 c 0,93,94
 2078 1052 2078 1052 2188 1014 c 1,95,-1
 2210 890 l 1,0,1
1504 380 m 2,96,-1
 1478 426 l 1,97,98
 1428 402 1428 402 1386 356 c 0,99,100
 1334 300 1334 300 1334 250 c 0,101,102
 1334 226 1334 226 1346 206 c 0,103,104
 1384 140 1384 140 1446 140 c 0,105,106
 1532 140 1532 140 1532 258 c 0,107,108
 1532 332 1532 332 1504 380 c 2,96,-1
952 446 m 0,109,110
 916 506 916 506 856 554 c 1,111,112
 706 458 706 458 706 330 c 0,113,114
 706 286 706 286 730 244 c 0,115,116
 776 164 776 164 848 164 c 0,117,118
 890 164 890 164 935 221 c 128,-1,119
 980 278 980 278 980 348 c 0,120,121
 980 400 980 400 952 446 c 0,109,110
306 258 m 0,122,123
 282 294 282 294 244 294 c 256,124,125
 206 294 206 294 206 242 c 0,126,127
 206 204 206 204 223 174 c 128,-1,128
 240 144 240 144 280 144 c 0,129,130
 316 144 316 144 316 214 c 0,131,132
 316 238 316 238 306 258 c 0,122,123
EndSplineSet
Ligature2: "'psts' Post Base Substitutions lookup 8 subtable" tm_nna tm_ikaar
EndChar

StartChar: tm_t_ikaar
Encoding: 65546 -1 126
Width: 944
GlyphClass: 2
Flags: W
LayerCount: 2
Fore
SplineSet
864 374 m 0,0,1
 914 288 914 288 914 206 c 0,2,3
 914 34 914 34 708 -92 c 0,4,5
 516 -212 516 -212 220 -250 c 1,6,-1
 142 -114 l 1,7,8
 380 -86 380 -86 564 20 c 0,9,10
 758 132 758 132 758 258 c 0,11,12
 758 346 758 346 698 372 c 0,13,14
 658 388 658 388 558 384 c 1,15,16
 550 222 550 222 512 140 c 0,17,18
 436 -20 436 -20 240 -20 c 0,19,20
 100 -20 100 -20 54 58 c 0,21,22
 28 102 28 102 28 154 c 0,23,24
 28 254 28 254 114 342 c 0,25,26
 212 444 212 444 400 502 c 1,27,28
 392 542 392 542 378 610 c 1,29,30
 226 556 226 556 150 442 c 1,31,-1
 16 544 l 1,32,33
 60 610 60 610 124 668 c 1,34,35
 90 692 90 692 64 738 c 128,-1,36
 38 784 38 784 38 828 c 0,37,38
 38 914 38 914 123 973 c 128,-1,39
 208 1032 208 1032 334 1032 c 0,40,41
 522 1032 522 1032 694 964 c 1,42,-1
 694 846 l 1,43,44
 562 896 562 896 442 896 c 0,45,46
 360 896 360 896 288 872 c 0,47,48
 206 844 206 844 206 804 c 0,49,50
 206 778 206 778 246 748 c 1,51,52
 318 774 318 774 400 774 c 0,53,54
 438 774 438 774 468 724 c 0,55,56
 528 626 528 626 544 522 c 1,57,58
 778 522 778 522 864 374 c 0,0,1
364 312 m 1,59,60
 306 292 306 292 250 226 c 128,-1,61
 194 160 194 160 194 102 c 1,62,63
 256 110 256 110 311 177 c 128,-1,64
 366 244 366 244 364 312 c 1,59,60
EndSplineSet
Ligature2: "'psts' Post Base Substitutions lookup 8 subtable" tm_ta tm_ikaar
EndChar

StartChar: tm_n_ikaar
Encoding: 65547 -1 127
Width: 1092
GlyphClass: 2
Flags: W
LayerCount: 2
Fore
SplineSet
1024 266 m 0,0,1
 1078 174 1078 174 1078 76 c 0,2,3
 1078 -86 1078 -86 940 -200 c 0,4,5
 794 -318 794 -318 562 -318 c 0,6,7
 476 -318 476 -318 412 -302 c 1,8,-1
 382 -178 l 1,9,10
 452 -188 452 -188 506 -188 c 0,11,12
 660 -188 660 -188 786 -89 c 128,-1,13
 912 10 912 10 912 136 c 0,14,15
 912 192 912 192 882 242 c 0,16,17
 842 312 842 312 746 312 c 0,18,19
 668 312 668 312 615 254 c 128,-1,20
 562 196 562 196 562 104 c 0,21,22
 562 64 562 64 574 20 c 1,23,-1
 438 48 l 1,24,-1
 342 592 l 1,25,26
 222 480 222 480 162 228 c 1,27,28
 84 276 84 276 14 338 c 1,29,30
 20 428 20 428 80 554 c 1,31,32
 22 604 22 604 -14 668 c 0,33,34
 -64 756 -64 756 -64 836 c 0,35,36
 -64 930 -64 930 3 988 c 128,-1,37
 70 1046 70 1046 192 1046 c 0,38,39
 368 1046 368 1046 548 950 c 1,40,-1
 548 840 l 1,41,42
 506 860 506 860 430 882 c 0,43,44
 344 906 344 906 292 906 c 0,45,46
 204 906 204 906 155 863 c 128,-1,47
 106 820 106 820 106 762 c 0,48,49
 106 700 106 700 152 662 c 1,50,51
 186 692 186 692 218 722 c 1,52,53
 260 754 260 754 308 768 c 1,54,55
 378 722 378 722 502 638 c 1,56,57
 512 570 512 570 530 424 c 1,58,59
 584 472 584 472 710 472 c 0,60,61
 904 472 904 472 1024 266 c 0,0,1
EndSplineSet
Ligature2: "'psts' Post Base Substitutions lookup 8 subtable" tm_na tm_ikaar
EndChar

StartChar: tm_nnn_ikaar
Encoding: 65548 -1 128
Width: 1416
GlyphClass: 2
Flags: W
LayerCount: 2
Fore
SplineSet
1544 976 m 1,0,-1
 1536 848 l 1,1,2
 1432 932 1432 932 1308 932 c 0,3,4
 1100 932 1100 932 1118 768 c 1,5,-1
 1404 768 l 1,6,7
 1350 378 1350 378 1350 220 c 0,8,9
 1350 102 1350 102 1366 0 c 1,10,-1
 1218 0 l 1,11,12
 1200 124 1200 124 1200 274 c 1,13,14
 1200 248 1200 248 1216 642 c 1,15,16
 1130 654 1130 654 978 604 c 1,17,18
 1100 464 1100 464 1100 302 c 0,19,20
 1100 196 1100 196 1038 126 c 128,-1,21
 976 56 976 56 862 56 c 0,22,23
 760 56 760 56 671 113 c 128,-1,24
 582 170 582 170 532 258 c 0,25,26
 492 328 492 328 492 390 c 0,27,28
 492 504 492 504 626 632 c 1,29,30
 422 640 422 640 264 444 c 1,31,32
 386 404 386 404 450 294 c 0,33,34
 484 238 484 238 484 174 c 0,35,36
 484 104 484 104 442 60 c 0,37,38
 396 10 396 10 312 10 c 0,39,40
 250 10 250 10 182 56 c 0,41,42
 104 108 104 108 54 196 c 0,43,44
 28 240 28 240 28 310 c 0,45,46
 28 456 28 456 112 570 c 0,47,48
 178 660 178 660 332 724 c 0,49,50
 468 780 468 780 568 780 c 0,51,52
 654 780 654 780 668 778 c 0,53,54
 676 776 676 776 792 738 c 1,55,56
 862 760 862 760 930 770 c 1,57,58
 924 790 924 790 924 818 c 0,59,60
 924 912 924 912 982 980 c 0,61,62
 1056 1070 1056 1070 1198 1070 c 0,63,64
 1364 1070 1364 1070 1544 976 c 1,0,-1
838 566 m 1,65,66
 764 536 764 536 719 473 c 128,-1,67
 674 410 674 410 674 348 c 0,68,69
 674 314 674 314 690 288 c 0,70,71
 724 230 724 230 749 210 c 128,-1,72
 774 190 774 190 818 190 c 0,73,74
 858 190 858 190 904 242 c 128,-1,75
 950 294 950 294 950 366 c 0,76,77
 950 422 950 422 918 477 c 128,-1,78
 886 532 886 532 838 566 c 1,65,66
304 284 m 0,79,80
 272 338 272 338 220 338 c 0,81,82
 184 338 184 338 184 274 c 0,83,84
 184 236 184 236 202 204 c 0,85,86
 228 158 228 158 272 158 c 0,87,88
 286 158 286 158 303 179 c 128,-1,89
 320 200 320 200 320 230 c 0,90,91
 320 258 320 258 304 284 c 0,79,80
EndSplineSet
Ligature2: "'psts' Post Base Substitutions lookup 8 subtable" tm_nnna tm_ikaar
EndChar

StartChar: tm_p_ikaar
Encoding: 65549 -1 129
Width: 760
GlyphClass: 2
Flags: W
LayerCount: 2
Fore
SplineSet
950 978 m 1,0,-1
 940 864 l 1,1,2
 814 926 814 926 759 942 c 128,-1,3
 704 958 704 958 622 958 c 0,4,5
 546 958 546 958 507 914 c 128,-1,6
 468 870 468 870 468 802 c 0,7,8
 468 732 468 732 508 664 c 0,9,10
 524 636 524 636 568 612 c 1,11,-1
 576 768 l 1,12,-1
 744 768 l 1,13,14
 708 380 708 380 664 232 c 0,15,16
 584 -22 584 -22 408 -22 c 0,17,18
 330 -22 330 -22 246 26 c 0,19,20
 148 84 148 84 88 187 c 128,-1,21
 28 290 28 290 28 442 c 0,22,23
 28 520 28 520 64 768 c 1,24,-1
 240 768 l 1,25,26
 188 520 188 520 188 394 c 0,27,28
 188 284 188 284 224 222 c 0,29,30
 278 128 278 128 364 128 c 0,31,32
 432 128 432 128 478 242 c 0,33,34
 496 284 496 284 544 470 c 1,35,36
 408 578 408 578 372 638 c 0,37,38
 304 758 304 758 304 870 c 0,39,40
 304 972 304 972 360 1032 c 0,41,42
 424 1098 424 1098 538 1098 c 0,43,44
 682 1098 682 1098 950 978 c 1,0,-1
EndSplineSet
Ligature2: "'psts' Post Base Substitutions lookup 8 subtable" tm_pa tm_ikaar
EndChar

StartChar: tm_m_ikaar
Encoding: 65550 -1 130
Width: 1062
GlyphClass: 2
Flags: W
LayerCount: 2
Fore
SplineSet
1058 988 m 1,0,-1
 1044 882 l 1,1,2
 952 914 952 914 876 914 c 0,3,4
 682 914 682 914 682 794 c 0,5,6
 682 774 682 774 688 750 c 1,7,8
 734 768 734 768 788 768 c 0,9,10
 832 768 832 768 890 736 c 0,11,12
 956 702 956 702 986 650 c 0,13,14
 1032 570 1032 570 1032 478 c 0,15,16
 1032 292 1032 292 866 150 c 0,17,18
 690 0 690 0 434 0 c 0,19,20
 176 0 176 0 78 172 c 0,21,22
 30 254 30 254 30 336 c 0,23,24
 30 496 30 496 212 768 c 1,25,-1
 414 768 l 1,26,27
 184 446 184 446 184 290 c 0,28,29
 184 188 184 188 262 138 c 0,30,31
 306 110 306 110 364 110 c 0,32,33
 408 110 408 110 428 118 c 1,34,35
 408 194 408 194 408 268 c 0,36,37
 408 470 408 470 562 642 c 1,38,39
 512 726 512 726 512 804 c 0,40,41
 512 910 512 910 604 980 c 0,42,43
 690 1044 690 1044 808 1044 c 0,44,45
 942 1044 942 1044 1058 988 c 1,0,-1
820 616 m 0,46,47
 774 616 774 616 720 572 c 128,-1,48
 666 528 666 528 636 472 c 0,49,50
 556 320 556 320 556 180 c 1,51,52
 736 266 736 266 794 348 c 0,53,54
 888 480 888 480 888 546 c 0,55,56
 888 570 888 570 874 593 c 128,-1,57
 860 616 860 616 820 616 c 0,46,47
EndSplineSet
Ligature2: "'psts' Post Base Substitutions lookup 8 subtable" tm_ma tm_ikaar
EndChar

StartChar: tm_y_ikaar
Encoding: 65551 -1 131
Width: 1048
GlyphClass: 2
Flags: W
LayerCount: 2
Fore
SplineSet
1274 938 m 1,0,-1
 1250 830 l 1,1,2
 1052 912 1052 912 960 912 c 0,3,4
 768 912 768 912 768 804 c 0,5,6
 768 780 768 780 782 756 c 0,7,8
 802 720 802 720 872 678 c 1,9,10
 878 698 878 698 878 768 c 1,11,-1
 1032 768 l 1,12,13
 1046 464 1046 464 954 238 c 0,14,15
 858 0 858 0 696 0 c 0,16,17
 650 0 650 0 580 50 c 128,-1,18
 510 100 510 100 472 165 c 128,-1,19
 434 230 434 230 422 300 c 1,20,21
 378 84 378 84 262 84 c 0,22,23
 216 84 216 84 166 114 c 0,24,25
 108 148 108 148 76 204 c 0,26,27
 28 286 28 286 28 420 c 0,28,29
 28 486 28 486 56 768 c 1,30,-1
 226 768 l 1,31,32
 214 692 214 692 200 496 c 0,33,34
 186 290 186 290 208 236 c 1,35,36
 248 236 248 236 286 352 c 0,37,38
 302 404 302 404 342 570 c 1,39,-1
 534 570 l 1,40,41
 532 316 532 316 600 194 c 0,42,43
 622 156 622 156 642 156 c 0,44,45
 706 156 706 156 762 248 c 0,46,47
 822 348 822 348 856 536 c 1,48,49
 706 624 706 624 636 746 c 0,50,51
 606 798 606 798 606 850 c 0,52,53
 606 936 606 936 682 993 c 128,-1,54
 758 1050 758 1050 894 1050 c 0,55,56
 1062 1050 1062 1050 1274 938 c 1,0,-1
EndSplineSet
Ligature2: "'psts' Post Base Substitutions lookup 8 subtable" tm_ya tm_ikaar
EndChar

StartChar: tm_r_ikaar
Encoding: 65552 -1 132
Width: 680
GlyphClass: 2
Flags: W
LayerCount: 2
Fore
SplineSet
606 208 m 0,0,1
 630 66 630 66 630 -20 c 0,2,3
 630 -150 630 -150 572 -204 c 128,-1,4
 514 -258 514 -258 376 -258 c 0,5,6
 196 -258 196 -258 46 -170 c 1,7,-1
 76 -54 l 1,8,9
 196 -112 196 -112 310 -112 c 0,10,11
 466 -112 466 -112 466 64 c 0,12,13
 466 116 466 116 454 188 c 0,14,15
 402 513 402 513 364 596 c 1,16,17
 304 606 304 606 244 458 c 0,18,19
 200 346 200 346 172 196 c 1,20,-1
 12 280 l 1,21,22
 10 296 10 296 11 314 c 0,23,24
 5 396 5 396 100 574 c 0,25,26
 111 595 111 595 122 615 c 1,27,28
 33 666 33 666 -4 730 c 0,29,30
 -26 768 -26 768 -26 812 c 0,31,32
 -26 902 -26 902 61 973 c 128,-1,33
 148 1044 148 1044 274 1044 c 0,34,35
 428 1044 428 1044 600 962 c 1,36,-1
 578 832 l 1,37,38
 436 906 436 906 312 892 c 0,39,40
 246 884 246 884 197 854 c 128,-1,41
 148 824 148 824 148 786 c 0,42,43
 148 752 148 752 197 720 c 1,44,45
 242 768 242 768 282 768 c 0,46,47
 297 768 297 768 313 765 c 0,48,49
 359 761 359 761 414 727 c 0,50,51
 476 688 476 688 504 640 c 0,52,53
 515 621 515 621 521 589 c 1,54,55
 561 480 561 480 606 208 c 0,0,1
EndSplineSet
Ligature2: "'psts' Post Base Substitutions lookup 8 subtable" tm_ra tm_ikaar
EndChar

StartChar: tm_rr_ikaar
Encoding: 65553 -1 133
Width: 968
GlyphClass: 2
Flags: W
LayerCount: 2
Fore
SplineSet
890 908 m 1,0,1
 832 916 832 916 782 916 c 0,2,3
 708 916 708 916 658 884 c 128,-1,4
 608 852 608 852 608 794 c 0,5,6
 608 738 608 738 658 670 c 1,7,8
 694 684 694 684 730 684 c 0,9,10
 842 684 842 684 896 560 c 0,11,12
 938 468 938 468 938 340 c 0,13,14
 938 100 938 100 807 -100 c 128,-1,15
 676 -300 676 -300 480 -300 c 0,16,17
 410 -300 410 -300 298 -262 c 0,18,19
 206 -232 206 -232 162 -206 c 1,20,-1
 184 -94 l 1,21,22
 280 -164 280 -164 368 -164 c 0,23,24
 550 -164 550 -164 686 8 c 0,25,26
 764 108 764 108 764 352 c 0,27,28
 764 460 764 460 744 546 c 1,29,30
 624 486 624 486 564 372 c 0,31,32
 508 268 508 268 508 140 c 0,33,34
 508 108 508 108 512 74 c 1,35,-1
 392 74 l 1,36,37
 372 154 372 154 364 308 c 0,38,39
 356 424 356 424 350 538 c 1,40,41
 242 450 242 450 160 206 c 1,42,-1
 12 302 l 1,43,44
 112 532 112 532 314 772 c 1,45,-1
 466 678 l 1,46,47
 466 658 466 658 468 608 c 0,48,49
 468 558 468 558 468 530 c 1,50,51
 494 562 494 562 544 616 c 1,52,53
 526 644 526 644 481 716 c 128,-1,54
 436 788 436 788 436 850 c 0,55,56
 436 940 436 940 520 994 c 0,57,58
 598 1046 598 1046 724 1046 c 0,59,60
 800 1046 800 1046 868 1034 c 1,61,-1
 890 908 l 1,0,1
EndSplineSet
Ligature2: "'psts' Post Base Substitutions lookup 8 subtable" tm_rra tm_ikaar
EndChar

StartChar: tm_l_ikaar
Encoding: 65554 -1 134
Width: 1100
GlyphClass: 2
Flags: W
LayerCount: 2
Fore
SplineSet
1240 880 m 1,0,1
 1130 924 1130 924 996 924 c 0,2,3
 910 924 910 924 854 898 c 0,4,5
 792 868 792 868 792 812 c 0,6,7
 792 780 792 780 814 740 c 0,8,9
 850 678 850 678 914 634 c 1,10,-1
 880 768 l 1,11,-1
 1020 768 l 1,12,13
 1068 622 1068 622 1068 480 c 0,14,15
 1068 270 1068 270 972 131 c 128,-1,16
 876 -8 876 -8 730 -8 c 0,17,18
 690 -8 690 -8 624 30 c 0,19,20
 552 74 552 74 518 132 c 0,21,22
 456 240 456 240 456 394 c 0,23,24
 456 538 456 538 492 590 c 1,25,26
 448 584 448 584 368 512 c 0,27,28
 296 448 296 448 284 420 c 1,29,30
 386 386 386 386 428 312 c 0,31,32
 458 258 458 258 458 202 c 0,33,34
 458 120 458 120 400 57 c 128,-1,35
 342 -6 342 -6 288 -6 c 0,36,37
 226 -6 226 -6 162 22 c 128,-1,38
 98 50 98 50 74 90 c 0,39,40
 28 170 28 170 28 258 c 0,41,42
 28 416 28 416 162 554 c 0,43,44
 304 698 304 698 546 772 c 1,45,-1
 708 630 l 1,46,47
 592 538 592 538 592 354 c 0,48,49
 592 262 592 262 630 198 c 0,50,51
 672 126 672 126 712 126 c 0,52,53
 770 126 770 126 844 254 c 128,-1,54
 918 382 918 382 916 482 c 1,55,56
 856 520 856 520 784 592 c 0,57,58
 706 670 706 670 670 730 c 0,59,60
 622 812 622 812 622 882 c 0,61,62
 622 968 622 968 692 1019 c 128,-1,63
 762 1070 762 1070 888 1070 c 0,64,65
 1060 1070 1060 1070 1224 1016 c 1,66,-1
 1240 880 l 1,0,1
290 276 m 0,67,68
 266 318 266 318 238 318 c 0,69,70
 220 318 220 318 205 275 c 128,-1,71
 190 232 190 232 190 192 c 0,72,73
 190 168 190 168 196 158 c 0,74,75
 212 128 212 128 244 128 c 0,76,77
 254 128 254 128 278 162 c 128,-1,78
 302 196 302 196 302 232 c 0,79,80
 302 256 302 256 290 276 c 0,67,68
EndSplineSet
Ligature2: "'psts' Post Base Substitutions lookup 8 subtable" tm_la tm_ikaar
EndChar

StartChar: tm_ll_ikaar
Encoding: 65555 -1 135
Width: 1240
GlyphClass: 2
Flags: W
LayerCount: 2
Fore
SplineSet
1206 924 m 1,0,-1
 1096 924 l 2,1,2
 884 924 884 924 884 756 c 0,3,4
 884 684 884 684 932 596 c 1,5,6
 958 610 958 610 988 610 c 0,7,8
 1092 610 1092 610 1158 494 c 0,9,10
 1208 408 1208 408 1208 216 c 0,11,12
 1208 124 1208 124 1196 0 c 1,13,-1
 1056 0 l 1,14,15
 1056 12 1056 12 1060 112 c 0,16,17
 1064 188 1064 188 1064 238 c 0,18,19
 1064 398 1064 398 1028 438 c 1,20,21
 868 244 868 244 868 0 c 1,22,-1
 722 0 l 1,23,24
 708 60 708 60 672 310 c 0,25,26
 648 484 648 484 609 550 c 128,-1,27
 570 616 570 616 514 616 c 0,28,29
 448 616 448 616 408 572 c 1,30,31
 512 528 512 528 570 428 c 0,32,33
 620 342 620 342 620 254 c 0,34,35
 620 146 620 146 553 73 c 128,-1,36
 486 0 486 0 380 0 c 0,37,38
 270 0 270 0 174 68 c 0,39,40
 102 120 102 120 66 182 c 128,-1,41
 30 244 30 244 30 312 c 0,42,43
 30 480 30 480 208 644 c 0,44,45
 348 772 348 772 474 772 c 0,46,47
 632 772 632 772 728 604 c 0,48,49
 770 532 770 532 786 420 c 1,50,51
 808 464 808 464 834 494 c 1,52,53
 818 518 818 518 784 572 c 0,54,55
 716 690 716 690 716 804 c 0,56,57
 716 920 716 920 788 993 c 128,-1,58
 860 1066 860 1066 994 1066 c 2,59,-1
 1158 1066 l 1,60,-1
 1206 924 l 1,0,-1
420 422 m 0,61,62
 388 476 388 476 294 490 c 1,63,64
 200 408 200 408 200 284 c 0,65,66
 200 230 200 230 224 190 c 0,67,68
 236 170 236 170 266 148 c 128,-1,69
 296 126 296 126 318 126 c 0,70,71
 362 126 362 126 402 193 c 128,-1,72
 442 260 442 260 442 336 c 0,73,74
 442 386 442 386 420 422 c 0,61,62
EndSplineSet
Ligature2: "'psts' Post Base Substitutions lookup 8 subtable" tm_lla tm_ikaar
EndChar

StartChar: tm_lll_ikaar
Encoding: 65556 -1 136
Width: 1056
GlyphClass: 2
Flags: W
LayerCount: 2
Fore
SplineSet
1068 1022 m 1,0,-1
 1062 904 l 1,1,2
 972 934 972 934 904 934 c 0,3,4
 814 934 814 934 748 900 c 0,5,6
 676 866 676 866 676 814 c 0,7,8
 676 792 676 792 690 768 c 1,9,10
 730 776 730 776 746 776 c 0,11,12
 814 776 814 776 886 724 c 0,13,14
 950 676 950 676 986 612 c 0,15,16
 1028 540 1028 540 1028 460 c 0,17,18
 1028 328 1028 328 920 188 c 0,19,20
 828 72 828 72 706 -2 c 1,21,22
 790 -88 790 -88 938 -124 c 1,23,24
 932 -168 932 -168 914 -240 c 1,25,26
 816 -222 816 -222 746 -180 c 1,27,28
 612 -284 612 -284 444 -284 c 0,29,30
 308 -284 308 -284 142 -197 c 128,-1,31
 -24 -110 -24 -110 -92 0 c 1,32,-1
 68 0 l 1,33,34
 122 -60 122 -60 216 -103 c 128,-1,35
 310 -146 310 -146 394 -146 c 0,36,37
 546 -146 546 -146 592 -74 c 1,38,-1
 566 -54 l 1,39,40
 530 -78 530 -78 470 -78 c 0,41,42
 338 -78 338 -78 212 20 c 0,43,44
 124 92 124 92 80 166 c 0,45,46
 30 254 30 254 30 356 c 0,47,48
 30 516 30 516 156 768 c 1,49,-1
 346 768 l 1,50,51
 196 486 196 486 196 310 c 0,52,53
 196 218 196 218 238 146 c 0,54,55
 284 68 284 68 378 68 c 0,56,57
 436 68 436 68 454 86 c 1,58,59
 402 178 402 178 402 330 c 0,60,61
 402 464 402 464 447 553 c 128,-1,62
 492 642 492 642 558 694 c 1,63,64
 550 706 550 706 528 738 c 0,65,66
 500 786 500 786 500 838 c 0,67,68
 500 932 500 932 583 1001 c 128,-1,69
 666 1070 666 1070 802 1070 c 0,70,71
 970 1070 970 1070 1068 1022 c 1,0,-1
856 572 m 0,72,73
 824 626 824 626 780 626 c 0,74,75
 718 626 718 626 636 486 c 0,76,77
 570 372 570 372 570 244 c 0,78,79
 570 188 570 188 588 156 c 1,80,81
 660 152 660 152 798 368 c 0,82,83
 868 476 868 476 868 528 c 0,84,85
 868 552 868 552 856 572 c 0,72,73
EndSplineSet
Ligature2: "'psts' Post Base Substitutions lookup 8 subtable" tm_llla tm_ikaar
EndChar

StartChar: tm_v_ikaar
Encoding: 65557 -1 137
Width: 1144
GlyphClass: 2
Flags: W
LayerCount: 2
Fore
SplineSet
1330 950 m 1,0,-1
 1302 846 l 1,1,2
 1162 920 1162 920 1032 920 c 0,3,4
 950 920 950 920 903 881 c 128,-1,5
 856 842 856 842 856 776 c 0,6,7
 856 716 856 716 896 646 c 0,8,9
 914 614 914 614 948 584 c 1,10,11
 932 712 932 712 908 768 c 1,12,-1
 1062 768 l 1,13,14
 1112 562 1112 562 1112 416 c 0,15,16
 1112 374 1112 374 1110 326 c 0,17,18
 1100 146 1100 146 1036 70 c 0,19,20
 962 -20 962 -20 788 -20 c 0,21,22
 616 -20 616 -20 444 42 c 1,23,-1
 468 216 l 1,24,25
 516 230 516 230 576 310 c 0,26,27
 646 402 646 402 646 484 c 0,28,29
 646 526 646 526 626 560 c 0,30,31
 586 628 586 628 508 628 c 0,32,33
 456 628 456 628 276 464 c 1,34,35
 368 408 368 408 402 348 c 0,36,37
 430 298 430 298 430 230 c 0,38,39
 430 146 430 146 390 90 c 0,40,41
 344 24 344 24 264 24 c 0,42,43
 144 24 144 24 66 160 c 0,44,45
 26 228 26 228 26 322 c 0,46,47
 26 432 26 432 77 525 c 128,-1,48
 128 618 128 618 240 690 c 0,49,50
 362 770 362 770 478 770 c 0,51,52
 656 770 656 770 756 596 c 0,53,54
 810 502 810 502 810 416 c 0,55,56
 810 246 810 246 632 132 c 1,57,58
 656 120 656 120 734 120 c 0,59,60
 956 120 956 120 954 426 c 1,61,62
 866 504 866 504 846 524 c 0,63,64
 796 574 796 574 762 634 c 0,65,66
 706 732 706 732 706 826 c 0,67,68
 706 926 706 926 768 988 c 0,69,70
 838 1054 838 1054 968 1054 c 0,71,72
 1138 1054 1138 1054 1330 950 c 1,0,-1
254 346 m 0,73,74
 240 370 240 370 226 370 c 256,75,76
 212 370 212 370 199 323 c 128,-1,77
 186 276 186 276 186 230 c 0,78,79
 186 164 186 164 214 150 c 1,80,81
 234 158 234 158 254 195 c 128,-1,82
 274 232 274 232 274 274 c 0,83,84
 274 312 274 312 254 346 c 0,73,74
EndSplineSet
Ligature2: "'psts' Post Base Substitutions lookup 8 subtable" tm_va tm_ikaar
EndChar

StartChar: tm_ss_ikaar
Encoding: 65558 -1 138
Width: 1740
GlyphClass: 2
Flags: W
LayerCount: 2
Fore
SplineSet
1726 8 m 1,0,1
 1470 76 1470 76 1348 94 c 1,2,-1
 1368 -256 l 1,3,-1
 1190 -256 l 1,4,-1
 1196 110 l 1,5,6
 766 90 766 90 670 4 c 1,7,-1
 498 118 l 1,8,9
 458 54 458 54 440 38 c 0,10,11
 404 10 404 10 334 10 c 0,12,13
 170 10 170 10 76 170 c 0,14,15
 26 254 26 254 26 364 c 0,16,17
 26 524 26 524 124 642 c 0,18,19
 232 770 232 770 408 770 c 0,20,21
 502 770 502 770 598 704 c 0,22,23
 680 646 680 646 727 566 c 128,-1,24
 774 486 774 486 774 408 c 0,25,26
 774 332 774 332 720 200 c 1,27,28
 920 236 920 236 1188 240 c 1,29,-1
 1184 262 l 1,30,31
 1080 266 1080 266 999 305 c 128,-1,32
 918 344 918 344 886 401 c 128,-1,33
 854 458 854 458 854 530 c 0,34,35
 854 676 854 676 974 764 c 1,36,37
 940 834 940 834 940 894 c 0,38,39
 940 994 940 994 1031 1050 c 128,-1,40
 1122 1106 1122 1106 1284 1106 c 0,41,42
 1458 1106 1458 1106 1650 1022 c 1,43,-1
 1608 898 l 1,44,45
 1566 918 1566 918 1482 940 c 0,46,47
 1384 968 1384 968 1336 968 c 0,48,49
 1256 968 1256 968 1198 936 c 0,50,51
 1132 900 1132 900 1132 840 c 0,52,53
 1132 808 1132 808 1150 774 c 1,54,55
 1240 722 1240 722 1288 636 c 0,56,57
 1304 606 1304 606 1312 532 c 1,58,-1
 1390 664 l 1,59,-1
 1678 466 l 1,60,61
 1664 392 1664 392 1664 312 c 0,62,63
 1664 140 1664 140 1726 8 c 1,0,1
1536 202 m 1,64,65
 1500 278 1500 278 1500 372 c 0,66,67
 1500 412 1500 412 1506 468 c 1,68,69
 1450 360 1450 360 1354 316 c 1,70,-1
 1362 224 l 1,71,72
 1414 220 1414 220 1536 202 c 1,64,65
1124 600 m 0,73,74
 1090 600 1090 600 1064 559 c 128,-1,75
 1038 518 1038 518 1038 478 c 0,76,77
 1038 462 1038 462 1044 452 c 0,78,79
 1068 410 1068 410 1100 410 c 0,80,81
 1178 410 1178 410 1178 494 c 0,82,83
 1178 522 1178 522 1162 561 c 128,-1,84
 1146 600 1146 600 1124 600 c 0,73,74
582 562 m 0,85,86
 568 588 568 588 534 608 c 128,-1,87
 500 628 500 628 482 628 c 0,88,89
 428 628 428 628 356 586 c 0,90,91
 278 538 278 538 262 482 c 1,92,93
 318 484 318 484 386 438 c 0,94,95
 444 398 444 398 470 352 c 0,96,97
 508 286 508 286 506 230 c 1,98,99
 610 346 610 346 610 460 c 0,100,101
 610 516 610 516 582 562 c 0,85,86
322 266 m 0,102,103
 286 330 286 330 258 330 c 0,104,105
 220 330 220 330 220 268 c 0,106,107
 220 212 220 212 242 174 c 128,-1,108
 264 136 264 136 306 136 c 0,109,110
 342 136 342 136 342 198 c 0,111,112
 342 232 342 232 322 266 c 0,102,103
EndSplineSet
Ligature2: "'psts' Post Base Substitutions lookup 8 subtable" tm_ssa tm_ikaar
EndChar

StartChar: tm_s_ikaar
Encoding: 65559 -1 139
Width: 1544
GlyphClass: 2
Flags: W
LayerCount: 2
Fore
SplineSet
1474 544 m 0,0,1
 1512 476 1512 476 1512 378 c 0,2,3
 1512 260 1512 260 1462 156 c 0,4,5
 1376 -20 1376 -20 1246 -20 c 0,6,7
 1042 -20 1042 -20 926 180 c 0,8,9
 876 266 876 266 876 386 c 0,10,11
 876 450 876 450 892 506 c 1,12,13
 818 436 818 436 768 304 c 0,14,15
 712 156 712 156 714 0 c 1,16,-1
 510 0 l 1,17,18
 578 224 578 224 578 352 c 0,19,20
 578 460 578 460 532 542 c 0,21,22
 496 606 496 606 442 606 c 0,23,24
 410 606 410 606 346 550 c 128,-1,25
 282 494 282 494 260 444 c 1,26,27
 312 438 312 438 370 395 c 128,-1,28
 428 352 428 352 459 298 c 128,-1,29
 490 244 490 244 490 182 c 0,30,31
 490 102 490 102 440 48 c 0,32,33
 384 -12 384 -12 286 -12 c 0,34,35
 232 -12 232 -12 175 27 c 128,-1,36
 118 66 118 66 82 126 c 0,37,38
 30 216 30 216 30 312 c 0,39,40
 30 480 30 480 174 622 c 0,41,42
 304 752 304 752 412 752 c 0,43,44
 482 752 482 752 558 698 c 0,45,46
 644 638 644 638 682 546 c 1,47,48
 702 568 702 568 742 604 c 1,49,50
 686 682 686 682 686 778 c 0,51,52
 686 902 686 902 772 990 c 0,53,54
 866 1086 866 1086 1010 1086 c 0,55,56
 1166 1086 1166 1086 1334 1018 c 1,57,-1
 1392 884 l 1,58,59
 1200 932 1200 932 1116 932 c 0,60,61
 1000 932 1000 932 923 877 c 128,-1,62
 846 822 846 822 846 738 c 0,63,64
 846 722 846 722 850 706 c 1,65,66
 884 730 884 730 948 768 c 1,67,-1
 1120 598 l 1,68,69
 1022 458 1022 458 1022 332 c 0,70,71
 1022 262 1022 262 1056 202 c 128,-1,72
 1090 142 1090 142 1132 142 c 0,73,74
 1224 142 1224 142 1272 198 c 0,75,76
 1308 240 1308 240 1332 328 c 0,77,78
 1354 406 1354 406 1354 464 c 0,79,80
 1354 526 1354 526 1318 574 c 0,81,82
 1280 630 1280 630 1220 630 c 0,83,84
 1206 630 1206 630 1196 624 c 1,85,-1
 1118 760 l 1,86,87
 1138 764 1138 764 1160 764 c 0,88,89
 1348 764 1348 764 1474 544 c 0,0,1
300 288 m 0,90,91
 276 328 276 328 230 328 c 0,92,93
 190 328 190 328 190 258 c 0,94,95
 190 208 190 208 206 180 c 0,96,97
 230 140 230 140 258 140 c 0,98,99
 280 140 280 140 296 169 c 128,-1,100
 312 198 312 198 312 236 c 0,101,102
 312 266 312 266 300 288 c 0,90,91
EndSplineSet
Ligature2: "'psts' Post Base Substitutions lookup 8 subtable" tm_sa tm_ikaar
EndChar

StartChar: tm_h_ikaar
Encoding: 65560 -1 140
Width: 1544
GlyphClass: 2
Flags: W
LayerCount: 2
Fore
SplineSet
1612 930 m 1,0,-1
 1582 826 l 1,1,2
 1294 930 1294 930 1194 930 c 0,3,4
 1106 930 1106 930 1106 876 c 0,5,6
 1106 844 1106 844 1140 796 c 1,7,8
 1160 800 1160 800 1178 800 c 0,9,10
 1266 800 1266 800 1348 730 c 0,11,12
 1412 678 1412 678 1450 610 c 0,13,14
 1514 498 1514 498 1514 290 c 0,15,16
 1514 180 1514 180 1488 100 c 0,17,18
 1372 -266 1372 -266 838 -266 c 0,19,20
 558 -266 558 -266 260 -148 c 1,21,-1
 256 -32 l 1,22,23
 564 -138 564 -138 810 -138 c 0,24,25
 1004 -138 1004 -138 1144 -60 c 0,26,27
 1268 8 1268 8 1326 126 c 0,28,29
 1372 216 1372 216 1372 342 c 0,30,31
 1372 508 1372 508 1320 596 c 0,32,33
 1282 660 1282 660 1232 660 c 0,34,35
 1200 660 1200 660 1182 640 c 0,36,37
 1180 636 1180 636 1160 600 c 1,38,39
 1216 492 1216 492 1216 330 c 0,40,41
 1216 194 1216 194 1176 30 c 1,42,-1
 1022 48 l 1,43,44
 1054 142 1054 142 1054 326 c 0,45,46
 1054 500 1054 500 1014 570 c 0,47,48
 998 598 998 598 980 598 c 0,49,50
 928 598 928 598 928 438 c 0,51,52
 928 274 928 274 972 54 c 1,53,54
 826 70 826 70 756 70 c 0,55,56
 594 70 594 70 524 -2 c 1,57,-1
 420 90 l 1,58,59
 368 10 368 10 298 10 c 0,60,61
 170 10 170 10 66 192 c 0,62,63
 28 258 28 258 28 358 c 0,64,65
 28 506 28 506 102 612 c 0,66,67
 188 736 188 736 340 736 c 0,68,69
 396 736 396 736 484 688 c 0,70,71
 594 628 594 628 650 532 c 0,72,73
 690 464 690 464 690 394 c 0,74,75
 690 308 690 308 628 218 c 1,76,-1
 786 212 l 1,77,78
 768 340 768 340 768 444 c 0,79,80
 768 780 768 780 928 780 c 0,81,82
 982 780 982 780 1054 722 c 1,83,-1
 1052 736 l 1,84,85
 928 828 928 828 928 940 c 0,86,87
 928 996 928 996 970 1030 c 128,-1,88
 1012 1064 1012 1064 1084 1064 c 0,89,90
 1220 1064 1220 1064 1368 1028 c 0,91,92
 1524 990 1524 990 1612 930 c 1,0,-1
506 506 m 0,93,94
 488 536 488 536 448 562 c 128,-1,95
 408 588 408 588 376 588 c 0,96,97
 318 588 318 588 270 537 c 128,-1,98
 222 486 222 486 222 452 c 1,99,100
 332 452 332 452 406 322 c 0,101,102
 434 274 434 274 436 214 c 1,103,104
 518 374 518 374 518 454 c 0,105,106
 518 486 518 486 506 506 c 0,93,94
264 292 m 0,107,108
 236 338 236 338 202 338 c 0,109,110
 188 338 188 338 188 298 c 0,111,112
 188 178 188 178 256 126 c 1,113,114
 282 184 282 184 282 226 c 0,115,116
 282 262 282 262 264 292 c 0,107,108
EndSplineSet
Ligature2: "'psts' Post Base Substitutions lookup 8 subtable" tm_ha tm_ikaar
EndChar

StartChar: tm_k_iikaar
Encoding: 65561 -1 141
Width: 1104
GlyphClass: 2
Flags: W
LayerCount: 2
Fore
SplineSet
1044 344 m 0,0,1
 1072 296 1072 296 1072 254 c 0,2,3
 1072 172 1072 172 926 78 c 0,4,5
 792 -10 792 -10 624 -10 c 0,6,7
 570 -10 570 -10 524 2 c 1,8,-1
 470 98 l 1,9,10
 386 0 386 0 252 0 c 0,11,12
 212 0 212 0 152 26 c 0,13,14
 82 58 82 58 58 98 c 128,-1,15
 34 138 34 138 34 178 c 0,16,17
 34 370 34 370 490 482 c 1,18,19
 502 582 502 582 488 646 c 1,20,21
 440 650 440 650 351 594 c 128,-1,22
 262 538 262 538 190 458 c 1,23,-1
 16 530 l 1,24,25
 18 548 18 548 72 586 c 0,26,27
 116 616 116 616 160 646 c 1,28,29
 96 734 96 734 96 814 c 0,30,31
 96 914 96 914 192 977 c 128,-1,32
 288 1040 288 1040 452 1040 c 0,33,34
 826 1040 826 1040 958 810 c 0,35,36
 986 762 986 762 986 724 c 0,37,38
 986 678 986 678 942 652 c 0,39,40
 908 632 908 632 862 632 c 0,41,42
 792 632 792 632 684 680 c 0,43,44
 536 746 536 746 378 882 c 1,45,46
 272 866 272 866 272 760 c 0,47,48
 272 740 272 740 276 718 c 1,49,50
 356 768 356 768 442 768 c 0,51,52
 476 768 476 768 524 742 c 128,-1,53
 572 716 572 716 590 686 c 0,54,55
 614 644 614 644 634 498 c 1,56,57
 672 500 672 500 706 500 c 0,58,59
 954 500 954 500 1044 344 c 0,0,1
566 912 m 0,60,61
 544 912 544 912 534 908 c 1,62,63
 650 786 650 786 778 786 c 0,64,65
 820 786 820 786 820 810 c 0,66,67
 820 852 820 852 710 886 c 0,68,69
 622 912 622 912 566 912 c 0,60,61
756 386 m 0,70,71
 670 386 670 386 616 362 c 1,72,73
 580 248 580 248 498 126 c 1,74,75
 656 114 656 114 798 190 c 0,76,77
 926 260 926 260 926 320 c 0,78,79
 926 386 926 386 756 386 c 0,70,71
418 298 m 1,80,81
 206 246 206 246 206 146 c 0,82,83
 206 130 206 130 212 114 c 1,84,85
 374 172 374 172 418 298 c 1,80,81
EndSplineSet
Ligature2: "'abvs' Above Base Substitutions lookup 6 subtable" tm_ka tm_iikaar
EndChar

StartChar: tm_ng_iikaar
Encoding: 65562 -1 142
Width: 1496
GlyphClass: 2
Flags: W
LayerCount: 2
Fore
SplineSet
1154 768 m 1,0,1
 1244 504 1244 504 1244 334 c 0,2,3
 1244 -6 1244 -6 884 -6 c 0,4,5
 694 -6 694 -6 560 44 c 1,6,-1
 546 162 l 1,7,8
 670 160 670 160 744 208 c 0,9,10
 808 248 808 248 808 306 c 0,11,12
 808 326 808 326 798 344 c 0,13,14
 782 372 782 372 690 372 c 0,15,16
 646 372 646 372 576 330 c 0,17,18
 488 276 488 276 450 194 c 1,19,-1
 308 320 l 1,20,21
 408 462 408 462 408 596 c 0,22,23
 408 620 408 620 402 638 c 1,24,25
 320 622 320 622 239 497 c 128,-1,26
 158 372 158 372 150 270 c 1,27,-1
 16 308 l 1,28,29
 12 326 12 326 12 348 c 0,30,31
 12 462 12 462 98 582 c 0,32,33
 154 662 154 662 230 718 c 0,34,35
 322 786 322 786 400 786 c 0,36,37
 484 786 484 786 534 700 c 0,38,39
 572 634 572 634 572 560 c 0,40,41
 572 522 572 522 562 476 c 1,42,43
 608 500 608 500 676 500 c 0,44,45
 756 500 756 500 837 458 c 128,-1,46
 918 416 918 416 952 356 c 0,47,48
 970 324 970 324 970 288 c 0,49,50
 970 250 970 250 944 202 c 2,51,-1
 908 138 l 1,52,53
 1018 160 1018 160 1054 228 c 0,54,55
 1076 272 1076 272 1080 386 c 0,56,57
 1082 476 1082 476 1062 526 c 1,58,59
 936 624 936 624 884 712 c 0,60,61
 824 816 824 816 824 914 c 0,62,63
 824 1038 824 1038 920 1117 c 128,-1,64
 1016 1196 1016 1196 1170 1196 c 0,65,66
 1292 1196 1292 1196 1402 1156 c 0,67,68
 1534 1106 1534 1106 1588 1014 c 0,69,70
 1604 988 1604 988 1604 956 c 0,71,72
 1604 872 1604 872 1494 872 c 0,73,74
 1406 872 1406 872 1286 918 c 0,75,76
 1152 968 1152 968 1090 1038 c 1,77,78
 1044 1026 1044 1026 1012 977 c 128,-1,79
 980 928 980 928 980 864 c 0,80,81
 980 802 980 802 1012 746 c 0,82,83
 1029 716 1029 716 1045 696 c 1,84,85
 1038 732 1038 732 1032 768 c 1,86,-1
 1154 768 l 1,0,1
1418 1022 m 0,87,88
 1406 1042 1406 1042 1352 1058 c 0,89,90
 1288 1076 1288 1076 1208 1072 c 1,91,92
 1294 994 1294 994 1406 994 c 0,93,94
 1434 994 1434 994 1418 1022 c 0,87,88
EndSplineSet
Ligature2: "'abvs' Above Base Substitutions lookup 6 subtable" tm_nga tm_iikaar
EndChar

StartChar: tm_c_iikaar
Encoding: 65563 -1 143
Width: 876
GlyphClass: 2
Flags: W
LayerCount: 2
Fore
SplineSet
862 486 m 1,0,-1
 804 394 l 1,1,2
 770 402 770 402 738 402 c 0,3,4
 674 402 674 402 584 368 c 1,5,6
 488 -18 488 -18 272 -18 c 0,7,8
 124 -18 124 -18 72 72 c 0,9,10
 44 118 44 118 44 162 c 0,11,12
 44 330 44 330 458 488 c 1,13,14
 456 538 456 538 450 618 c 1,15,16
 332 594 332 594 168 442 c 1,17,-1
 8 504 l 1,18,19
 38 554 38 554 132 630 c 1,20,-1
 106 674 l 2,21,22
 72 732 72 732 72 792 c 0,23,24
 72 898 72 898 169 974 c 128,-1,25
 266 1050 266 1050 408 1050 c 0,26,27
 544 1050 544 1050 674 987 c 128,-1,28
 804 924 804 924 862 826 c 0,29,30
 884 788 884 788 884 752 c 0,31,32
 884 678 884 678 788 678 c 0,33,34
 610 678 610 678 352 888 c 1,35,36
 304 876 304 876 270 830 c 128,-1,37
 236 784 236 784 236 742 c 0,38,39
 236 726 236 726 242 714 c 1,40,41
 280 736 280 736 318 756 c 0,42,43
 348 770 348 770 396 770 c 0,44,45
 440 770 440 770 483 744 c 128,-1,46
 526 718 526 718 542 688 c 0,47,48
 582 618 582 618 592 504 c 1,49,50
 656 514 656 514 704 514 c 0,51,52
 782 514 782 514 862 486 c 1,0,-1
698 858 m 1,53,54
 672 908 672 908 490 922 c 1,55,56
 510 882 510 882 584 848 c 0,57,58
 646 822 646 822 672 822 c 0,59,60
 722 822 722 822 698 858 c 1,53,54
408 298 m 1,61,62
 208 224 208 224 208 128 c 0,63,64
 208 104 208 104 222 84 c 1,65,66
 368 174 368 174 408 298 c 1,61,62
EndSplineSet
Ligature2: "'abvs' Above Base Substitutions lookup 6 subtable" tm_ca tm_iikaar
EndChar

StartChar: tm_j_iikaar
Encoding: 65564 -1 144
Width: 1386
GlyphClass: 2
Flags: W
LayerCount: 2
Fore
SplineSet
1348 80 m 0,0,1
 1400 -8 1400 -8 1400 -84 c 0,2,3
 1400 -180 1400 -180 1319 -237 c 128,-1,4
 1238 -294 1238 -294 1104 -294 c 0,5,6
 1014 -294 1014 -294 876 -250 c 1,7,-1
 870 -116 l 1,8,9
 968 -156 968 -156 1006 -156 c 0,10,11
 1096 -156 1096 -156 1162 -112 c 128,-1,12
 1228 -68 1228 -68 1228 -8 c 0,13,14
 1228 22 1228 22 1212 50 c 0,15,16
 1172 120 1172 120 1102 120 c 0,17,18
 1026 120 1026 120 846 -80 c 0,19,20
 786 -148 786 -148 724 -218 c 1,21,22
 646 -290 646 -290 552 -290 c 0,23,24
 506 -290 506 -290 452 -259 c 128,-1,25
 398 -228 398 -228 374 -188 c 0,26,27
 340 -130 340 -130 340 -72 c 0,28,29
 340 36 340 36 434 98 c 1,30,31
 524 142 524 142 704 250 c 1,32,33
 824 334 824 334 868 376 c 0,34,35
 958 458 958 458 958 522 c 0,36,37
 958 546 958 546 944 570 c 0,38,39
 922 608 922 608 884 608 c 0,40,41
 838 608 838 608 786 556 c 0,42,43
 710 480 710 480 716 338 c 1,44,-1
 570 258 l 1,45,46
 544 454 544 454 498 534 c 128,-1,47
 452 614 452 614 400 614 c 0,48,49
 356 614 356 614 342 584 c 1,50,51
 382 570 382 570 428 526 c 0,52,53
 466 492 466 492 482 464 c 0,54,55
 534 374 534 374 534 294 c 0,56,57
 534 194 534 194 456 128 c 0,58,59
 388 70 388 70 306 70 c 0,60,61
 250 70 250 70 176 118 c 128,-1,62
 102 166 102 166 68 226 c 0,63,64
 28 294 28 294 28 390 c 0,65,66
 28 526 28 526 104 624 c 0,67,68
 190 736 190 736 340 736 c 0,69,70
 516 736 516 736 600 564 c 1,71,72
 606 606 606 606 622 622 c 1,73,74
 614 636 614 636 586 682 c 0,75,76
 526 786 526 786 526 880 c 0,77,78
 526 1064 526 1064 762 1064 c 0,79,80
 970 1064 970 1064 1126 968 c 0,81,82
 1246 894 1246 894 1312 778 c 0,83,84
 1330 748 1330 748 1330 716 c 0,85,86
 1330 638 1330 638 1230 638 c 0,87,88
 1122 638 1122 638 992 706 c 1,89,90
 1012 688 1012 688 1031 670 c 128,-1,91
 1050 652 1050 652 1078 604 c 0,92,93
 1112 546 1112 546 1112 480 c 0,94,95
 1112 332 1112 332 938 234 c 1,96,97
 1008 254 1008 254 1068 254 c 0,98,99
 1158 254 1158 254 1240 196 c 0,100,101
 1308 148 1308 148 1348 80 c 0,0,1
1120 822 m 0,102,103
 1098 858 1098 858 1005 899 c 128,-1,104
 912 940 912 940 856 938 c 1,105,106
 896 888 896 888 976 846 c 0,107,108
 1050 808 1050 808 1084 808 c 0,109,110
 1128 808 1128 808 1120 822 c 0,102,103
950 734 m 1,111,112
 876 782 876 782 740 888 c 1,113,114
 710 884 710 884 710 832 c 0,115,116
 710 786 710 786 728 736 c 1,117,118
 778 762 778 762 832 762 c 256,119,120
 886 762 886 762 950 734 c 1,111,112
822 160 m 1,121,122
 628 32 628 32 604 14 c 0,123,124
 490 -68 490 -68 490 -106 c 0,125,126
 490 -140 490 -140 544 -140 c 0,127,128
 590 -140 590 -140 658 -52 c 0,129,130
 740 54 740 54 822 160 c 1,121,122
362 416 m 0,131,132
 318 490 318 490 266 490 c 0,133,134
 234 490 234 490 205 447 c 128,-1,135
 176 404 176 404 176 348 c 0,136,137
 176 298 176 298 202 254 c 0,138,139
 234 198 234 198 280 198 c 0,140,141
 320 198 320 198 355 234 c 128,-1,142
 390 270 390 270 390 324 c 0,143,144
 390 368 390 368 362 416 c 0,131,132
EndSplineSet
Ligature2: "'abvs' Above Base Substitutions lookup 6 subtable" tm_ja tm_iikaar
EndChar

StartChar: tm_ny_iikaar
Encoding: 65565 -1 145
Width: 1501
GlyphClass: 2
Flags: W
LayerCount: 2
Fore
SplineSet
1390 266 m 0,0,1
 1430 196 1430 196 1430 124 c 0,2,3
 1430 -20 1430 -20 1280 -123 c 128,-1,4
 1130 -226 1130 -226 912 -226 c 0,5,6
 660 -226 660 -226 444 -126 c 0,7,8
 212 -16 212 -16 100 178 c 0,9,10
 26 304 26 304 26 430 c 0,11,12
 26 634 26 634 210 786 c 1,13,-1
 388 688 l 1,14,15
 320 666 320 666 258 562 c 0,16,17
 190 450 190 450 190 338 c 0,18,19
 190 258 190 258 226 196 c 0,20,21
 310 52 310 52 510 -30 c 0,22,23
 672 -96 672 -96 820 -96 c 0,24,25
 1020 -96 1020 -96 1152 -16 c 0,26,27
 1278 60 1278 60 1278 162 c 0,28,29
 1278 202 1278 202 1256 238 c 0,30,31
 1220 302 1220 302 1170 302 c 0,32,33
 1124 302 1124 302 1064 246 c 0,34,35
 986 174 986 174 986 62 c 0,36,37
 986 32 986 32 992 0 c 1,38,-1
 852 0 l 1,39,40
 848 328 848 328 932 598 c 1,41,42
 876 590 876 590 774 542 c 0,43,44
 662 490 662 490 608 442 c 1,45,46
 726 386 726 386 784 286 c 0,47,48
 810 240 810 240 810 188 c 0,49,50
 810 106 810 106 754 50 c 0,51,52
 694 -12 694 -12 598 -12 c 0,53,54
 526 -12 526 -12 442 41 c 128,-1,55
 358 94 358 94 318 163 c 128,-1,56
 278 232 278 232 278 298 c 0,57,58
 278 424 278 424 438 540 c 0,59,60
 586 648 586 648 745 706 c 1,61,62
 712 763 712 763 712 822 c 0,63,64
 712 928 712 928 809 1004 c 128,-1,65
 906 1080 906 1080 1048 1080 c 0,66,67
 1184 1080 1184 1080 1314 1017 c 128,-1,68
 1444 954 1444 954 1502 856 c 0,69,70
 1524 818 1524 818 1524 782 c 0,71,72
 1524 708 1524 708 1428 708 c 0,73,74
 1250 708 1250 708 992 918 c 1,75,76
 944 906 944 906 910 860 c 128,-1,77
 876 814 876 814 876 772 c 0,78,79
 876 757 876 757 881 746 c 1,80,81
 949 761 949 761 1020 768 c 1,82,-1
 1132 648 l 1,83,84
 1092 594 1092 594 1042 426 c 1,85,86
 1092 444 1092 444 1132 444 c 0,87,88
 1202 444 1202 444 1274 394 c 128,-1,89
 1346 344 1346 344 1390 266 c 0,0,1
626 272 m 0,90,91
 594 326 594 326 546 326 c 1,92,93
 500 332 500 332 475 299 c 128,-1,94
 450 266 450 266 450 220 c 0,95,96
 450 188 450 188 462 166 c 0,97,98
 470 152 470 152 495 135 c 128,-1,99
 520 118 520 118 536 118 c 0,100,101
 570 118 570 118 606 146 c 128,-1,102
 642 174 642 174 642 216 c 0,103,104
 642 244 642 244 626 272 c 0,90,91
1338 888 m 1,105,106
 1312 938 1312 938 1130 952 c 1,107,108
 1150 912 1150 912 1224 878 c 0,109,110
 1286 852 1286 852 1312 852 c 0,111,112
 1362 852 1362 852 1338 888 c 1,105,106
EndSplineSet
Ligature2: "'abvs' Above Base Substitutions lookup 6 subtable" tm_nya tm_iikaar
EndChar

StartChar: tm_tt_iikaar
Encoding: 65566 -1 146
Width: 1004
GlyphClass: 2
Flags: W
LayerCount: 2
Fore
SplineSet
978 162 m 1,0,1
 714 -20 714 -20 456 -20 c 0,2,3
 326 -20 326 -20 218 52 c 0,4,5
 124 114 124 114 68 214 c 0,6,7
 28 286 28 286 28 402 c 0,8,9
 28 558 28 558 94 768 c 1,10,-1
 284 768 l 1,11,12
 178 546 178 546 178 354 c 0,13,14
 178 262 178 262 210 208 c 0,15,16
 264 114 264 114 376 114 c 0,17,18
 468 114 468 114 552 142 c 1,19,20
 382 186 382 186 298 332 c 0,21,22
 266 386 266 386 266 446 c 0,23,24
 266 572 266 572 396 670 c 128,-1,25
 526 768 526 768 700 768 c 0,26,27
 780 768 780 768 858 718 c 0,28,29
 928 674 928 674 960 618 c 0,30,31
 988 570 988 570 988 522 c 0,32,33
 988 446 988 446 922 396 c 128,-1,34
 856 346 856 346 742 346 c 0,35,36
 660 346 660 346 574 390 c 0,37,38
 498 430 498 430 452 486 c 1,39,40
 416 430 416 430 416 400 c 0,41,42
 416 378 416 378 428 356 c 0,43,44
 458 302 458 302 535 264 c 128,-1,45
 612 226 612 226 682 226 c 0,46,47
 738 226 738 226 838 282 c 1,48,-1
 978 162 l 1,0,1
714 640 m 0,49,50
 654 640 654 640 601 611 c 128,-1,51
 548 582 548 582 548 550 c 0,52,53
 548 538 548 538 562 524 c 0,54,55
 598 486 598 486 708 486 c 0,56,57
 828 486 828 486 828 550 c 0,58,59
 828 586 828 586 790 613 c 128,-1,60
 752 640 752 640 714 640 c 0,49,50
EndSplineSet
Ligature2: "'abvs' Above Base Substitutions lookup 5 subtable" tm_tta tm_iikaar
EndChar

StartChar: tm_nn_iikaar
Encoding: 65567 -1 147
Width: 1992
GlyphClass: 2
Flags: W
LayerCount: 2
Fore
SplineSet
2194 856 m 0,0,1
 2214 822 2214 822 2214 792 c 0,2,3
 2214 710 2214 710 2106 710 c 0,4,5
 1928 710 1928 710 1720 868 c 1,6,7
 1636 832 1636 832 1636 752 c 0,8,9
 1636 730 1636 730 1644 708 c 1,10,11
 1734 744 1734 744 1808 768 c 1,12,-1
 1978 668 l 1,13,14
 1902 342 1902 342 1914 0 c 1,15,-1
 1768 0 l 1,16,17
 1764 56 1764 56 1764 120 c 0,18,19
 1764 396 1764 396 1806 590 c 1,20,21
 1712 570 1712 570 1602 504 c 1,22,23
 1624 478 1624 478 1664 422 c 1,24,25
 1726 314 1726 314 1726 212 c 0,26,27
 1726 116 1726 116 1666 55 c 128,-1,28
 1606 -6 1606 -6 1496 -6 c 0,29,30
 1418 -6 1418 -6 1326 55 c 128,-1,31
 1234 116 1234 116 1194 184 c 0,32,33
 1158 246 1158 246 1158 310 c 0,34,35
 1158 398 1158 398 1222 478 c 0,36,37
 1276 548 1276 548 1348 582 c 1,38,39
 1230 636 1230 636 1112 636 c 0,40,41
 1032 636 1032 636 996 606 c 1,42,43
 1038 560 1038 560 1066 512 c 0,44,45
 1132 396 1132 396 1132 280 c 0,46,47
 1132 170 1132 170 1072 102 c 0,48,49
 1010 28 1010 28 898 28 c 0,50,51
 802 28 802 28 716 72 c 0,52,53
 616 120 616 120 564 212 c 0,54,55
 516 294 516 294 516 370 c 0,56,57
 516 494 516 494 650 612 c 1,58,59
 636 614 636 614 620 614 c 0,60,61
 540 614 540 614 426 546 c 0,62,63
 330 490 330 490 282 432 c 1,64,65
 398 396 398 396 458 294 c 0,66,67
 492 234 492 234 492 168 c 0,68,69
 492 98 492 98 452 49 c 128,-1,70
 412 0 412 0 340 0 c 0,71,72
 258 0 258 0 172 60 c 0,73,74
 100 108 100 108 70 160 c 0,75,76
 28 234 28 234 28 324 c 0,77,78
 28 466 28 466 124 568 c 0,79,80
 204 652 204 652 354 710 c 0,81,82
 490 762 490 762 592 762 c 0,83,84
 690 762 690 762 834 710 c 1,85,86
 940 760 940 760 1104 760 c 0,87,88
 1282 760 1282 760 1468 634 c 1,89,-1
 1480 660 l 1,90,91
 1470 710 1470 710 1470 752 c 0,92,93
 1470 914 1470 914 1594 990 c 0,94,95
 1694 1054 1694 1054 1858 1054 c 0,96,97
 1942 1054 1942 1054 2046 994 c 128,-1,98
 2150 934 2150 934 2194 856 c 0,0,1
2040 866 m 0,99,100
 2012 916 2012 916 1894 916 c 0,101,102
 1872 916 1872 916 1852 912 c 1,103,104
 1932 850 1932 850 1998 850 c 0,105,106
 2050 850 2050 850 2040 866 c 0,99,100
1506 384 m 2,107,-1
 1482 426 l 1,108,109
 1430 406 1430 406 1382 360 c 0,110,111
 1328 306 1328 306 1328 256 c 0,112,113
 1328 236 1328 236 1338 218 c 0,114,115
 1380 146 1380 146 1440 146 c 0,116,117
 1530 146 1530 146 1530 272 c 0,118,119
 1530 340 1530 340 1506 384 c 2,107,-1
858 550 m 1,120,121
 800 524 800 524 754 458 c 0,122,123
 702 386 702 386 702 318 c 0,124,125
 702 276 702 276 722 242 c 0,126,127
 768 162 768 162 850 162 c 0,128,129
 882 162 882 162 926 220 c 0,130,131
 978 286 978 286 978 360 c 0,132,133
 978 408 978 408 952 453 c 128,-1,134
 926 498 926 498 858 550 c 1,120,121
316 242 m 0,135,136
 296 276 296 276 256 276 c 0,137,138
 218 276 218 276 218 216 c 0,139,140
 218 180 218 180 228 164 c 0,141,142
 250 128 250 128 286 128 c 0,143,144
 330 128 330 128 328 192 c 0,145,146
 328 220 328 220 316 242 c 0,135,136
EndSplineSet
Ligature2: "'abvs' Above Base Substitutions lookup 6 subtable" tm_nna tm_iikaar
EndChar

StartChar: tm_t_iikaar
Encoding: 65568 -1 148
Width: 952
GlyphClass: 2
Flags: W
LayerCount: 2
Fore
SplineSet
872 370 m 0,0,1
 920 288 920 288 920 210 c 0,2,3
 920 26 920 26 668 -108 c 0,4,5
 464 -216 464 -216 224 -244 c 1,6,-1
 148 -112 l 1,7,8
 234 -112 234 -112 396 -50 c 0,9,10
 582 22 582 22 680 112 c 0,11,12
 802 228 802 228 738 340 c 0,13,14
 708 392 708 392 604 392 c 0,15,16
 580 392 580 392 558 388 c 1,17,18
 538 -18 538 -18 252 -18 c 0,19,20
 100 -18 100 -18 58 54 c 0,21,22
 26 108 26 108 26 164 c 0,23,24
 26 268 26 268 130 359 c 128,-1,25
 234 450 234 450 408 500 c 1,26,27
 396 538 396 538 380 610 c 1,28,29
 282 572 282 572 244 546 c 0,30,31
 178 502 178 502 160 440 c 1,32,33
 82 490 82 490 26 538 c 1,34,35
 56 612 56 612 106 650 c 1,36,37
 94 670 94 670 74 702 c 0,38,39
 20 796 20 796 20 864 c 0,40,41
 20 1032 20 1032 318 1032 c 0,42,43
 446 1032 446 1032 582 968 c 0,44,45
 728 898 728 898 788 792 c 0,46,47
 802 770 802 770 802 744 c 0,48,49
 802 670 802 670 712 670 c 256,50,51
 622 670 622 670 508 740 c 0,52,53
 402 806 402 806 334 894 c 1,54,55
 270 894 270 894 229 865 c 128,-1,56
 188 836 188 836 188 798 c 0,57,58
 188 764 188 764 220 738 c 1,59,60
 324 774 324 774 392 774 c 0,61,62
 440 774 440 774 470 724 c 0,63,64
 512 650 512 650 544 522 c 1,65,66
 544 522 544 522 604 522 c 0,67,68
 686 522 686 522 764 476 c 0,69,70
 836 434 836 434 872 370 c 0,0,1
628 788 m 0,71,72
 636 788 636 788 618 818 c 0,73,74
 608 834 608 834 572 857 c 128,-1,75
 536 880 536 880 510 882 c 1,76,77
 560 788 560 788 628 788 c 0,71,72
374 302 m 1,78,79
 330 292 330 292 244 198 c 0,80,81
 194 142 194 142 194 126 c 0,82,83
 194 120 194 120 196 116 c 0,84,85
 198 110 198 110 232 123 c 128,-1,86
 266 136 266 136 288 152 c 0,87,88
 354 198 354 198 374 302 c 1,78,79
EndSplineSet
Ligature2: "'abvs' Above Base Substitutions lookup 6 subtable" tm_ta tm_iikaar
EndChar

StartChar: tm_n_iikaar
Encoding: 65569 -1 149
Width: 1110
GlyphClass: 2
Flags: W
LayerCount: 2
Fore
SplineSet
1036 266 m 0,0,1
 1096 162 1096 162 1096 60 c 0,2,3
 1096 -96 1096 -96 966 -198 c 0,4,5
 828 -304 828 -304 594 -304 c 0,6,7
 530 -304 530 -304 382 -270 c 1,8,-1
 364 -148 l 1,9,10
 468 -168 468 -168 520 -168 c 0,11,12
 712 -168 712 -168 826 -68 c 0,13,14
 926 20 926 20 926 136 c 0,15,16
 926 188 926 188 902 230 c 0,17,18
 888 256 888 256 846 279 c 128,-1,19
 804 302 804 302 756 302 c 0,20,21
 678 302 678 302 626 250 c 0,22,23
 568 192 568 192 568 96 c 0,24,25
 568 62 568 62 576 22 c 1,26,-1
 432 56 l 1,27,28
 428 148 428 148 402 356 c 0,29,30
 388 476 388 476 372 596 c 1,31,32
 304 542 304 542 244 442 c 0,33,34
 178 334 178 334 168 252 c 1,35,36
 98 296 98 296 14 370 c 1,37,38
 50 496 50 496 106 586 c 1,39,40
 64 642 64 642 40 682 c 0,41,42
 -14 774 -14 774 -14 852 c 0,43,44
 -14 950 -14 950 66 1006 c 128,-1,45
 146 1062 146 1062 278 1062 c 0,46,47
 418 1062 418 1062 593 982 c 128,-1,48
 768 902 768 902 822 810 c 0,49,50
 842 776 842 776 842 746 c 0,51,52
 842 668 842 668 734 668 c 0,53,54
 540 668 540 668 244 906 c 1,55,56
 170 894 170 894 170 796 c 0,57,58
 170 730 170 730 196 688 c 1,59,60
 266 746 266 746 346 772 c 1,61,62
 446 702 446 702 540 630 c 1,63,64
 534 572 534 572 552 420 c 1,65,66
 600 462 600 462 708 462 c 0,67,68
 922 462 922 462 1036 266 c 0,0,1
662 822 m 0,69,70
 648 846 648 846 560 886 c 0,71,72
 464 930 464 930 392 934 c 1,73,74
 456 872 456 872 548 832 c 0,75,76
 622 800 622 800 656 800 c 0,77,78
 676 800 676 800 662 822 c 0,69,70
EndSplineSet
Ligature2: "'abvs' Above Base Substitutions lookup 6 subtable" tm_na tm_iikaar
EndChar

StartChar: tm_nnn_iikaar
Encoding: 65570 -1 150
Width: 1780
GlyphClass: 2
Flags: W
LayerCount: 2
Fore
SplineSet
1744 856 m 0,0,1
 1766 816 1766 816 1766 782 c 0,2,3
 1766 692 1766 692 1648 692 c 0,4,5
 1552 692 1552 692 1392 786 c 0,6,7
 1250 866 1250 866 1194 932 c 1,8,9
 1154 910 1154 910 1154 860 c 0,10,11
 1154 828 1154 828 1180 744 c 1,12,13
 1238 748 1238 748 1408 748 c 1,14,15
 1346 384 1346 384 1346 224 c 0,16,17
 1346 88 1346 88 1370 -20 c 1,18,-1
 1216 -20 l 1,19,20
 1204 98 1204 98 1204 246 c 0,21,22
 1204 430 1204 430 1222 622 c 1,23,24
 1206 626 1206 626 1182 626 c 0,25,26
 1120 626 1120 626 978 586 c 1,27,28
 1002 562 1002 562 1040 496 c 0,29,30
 1104 386 1104 386 1104 280 c 0,31,32
 1104 172 1104 172 1039 104 c 128,-1,33
 974 36 974 36 870 36 c 256,34,35
 766 36 766 36 670 92 c 0,36,37
 582 146 582 146 532 232 c 0,38,39
 496 292 496 292 496 366 c 0,40,41
 496 504 496 504 628 612 c 1,42,43
 542 626 542 626 418 546 c 0,44,45
 324 486 324 486 268 422 c 1,46,47
 386 388 386 388 448 280 c 0,48,49
 482 220 482 220 482 154 c 0,50,51
 482 84 482 84 443 38 c 128,-1,52
 404 -8 404 -8 328 -8 c 0,53,54
 264 -8 264 -8 192 34 c 0,55,56
 112 82 112 82 68 156 c 0,57,58
 30 222 30 222 30 314 c 0,59,60
 30 438 30 438 92 522 c 0,61,62
 160 614 160 614 300 684 c 0,63,64
 448 758 448 758 582 758 c 0,65,66
 678 758 678 758 798 718 c 1,67,68
 844 740 844 740 892 744 c 0,69,70
 948 746 948 746 1006 750 c 1,71,72
 984 818 984 818 984 874 c 0,73,74
 984 1070 984 1070 1236 1070 c 0,75,76
 1412 1070 1412 1070 1548 1014 c 128,-1,77
 1684 958 1684 958 1744 856 c 0,0,1
1598 856 m 0,78,79
 1580 886 1580 886 1499 915 c 128,-1,80
 1418 944 1418 944 1350 946 c 1,81,82
 1384 910 1384 910 1461 871 c 128,-1,83
 1538 832 1538 832 1576 832 c 0,84,85
 1612 832 1612 832 1598 856 c 0,78,79
924 446 m 0,86,87
 892 502 892 502 832 550 c 1,88,89
 766 524 766 524 724 457 c 128,-1,90
 682 390 682 390 682 324 c 0,91,92
 682 266 682 266 734 208 c 0,93,94
 774 168 774 168 818 168 c 256,95,96
 862 168 862 168 906 208 c 0,97,98
 960 258 960 258 960 328 c 0,99,100
 960 384 960 384 924 446 c 0,86,87
316 244 m 0,101,102
 282 300 282 300 234 300 c 0,103,104
 194 300 194 300 194 236 c 0,105,106
 194 194 194 194 216 162 c 0,107,108
 246 118 246 118 288 118 c 0,109,110
 300 118 300 118 316 139 c 128,-1,111
 332 160 332 160 332 190 c 0,112,113
 332 216 332 216 316 244 c 0,101,102
EndSplineSet
Ligature2: "'abvs' Above Base Substitutions lookup 6 subtable" tm_nnna tm_iikaar
EndChar

StartChar: tm_p_iikaar
Encoding: 65571 -1 151
Width: 756
GlyphClass: 2
Flags: W
LayerCount: 2
Fore
SplineSet
1058 904 m 0,0,1
 1074 878 1074 878 1074 846 c 0,2,3
 1074 762 1074 762 964 762 c 0,4,5
 876 762 876 762 756 808 c 0,6,7
 622 858 622 858 560 928 c 1,8,9
 514 916 514 916 482 867 c 128,-1,10
 450 818 450 818 450 754 c 0,11,12
 450 692 450 692 482 636 c 0,13,14
 522 568 522 568 556 550 c 1,15,-1
 576 768 l 1,16,-1
 742 768 l 1,17,18
 706 -20 706 -20 400 -20 c 0,19,20
 322 -20 322 -20 242 26 c 0,21,22
 146 80 146 80 87 183 c 128,-1,23
 28 286 28 286 28 430 c 0,24,25
 28 544 28 544 62 768 c 1,26,-1
 238 768 l 1,27,28
 184 564 184 564 184 416 c 0,29,30
 184 288 184 288 224 220 c 0,31,32
 276 130 276 130 360 130 c 0,33,34
 424 130 424 130 468 216 c 0,35,36
 494 270 494 270 532 416 c 1,37,38
 406 514 406 514 354 602 c 0,39,40
 294 706 294 706 294 804 c 0,41,42
 294 928 294 928 390 1007 c 128,-1,43
 486 1086 486 1086 640 1086 c 0,44,45
 762 1086 762 1086 872 1046 c 0,46,47
 1004 996 1004 996 1058 904 c 0,0,1
888 912 m 0,48,49
 876 932 876 932 822 948 c 0,50,51
 758 966 758 966 678 962 c 1,52,53
 764 884 764 884 876 884 c 0,54,55
 904 884 904 884 888 912 c 0,48,49
EndSplineSet
Ligature2: "'abvs' Above Base Substitutions lookup 6 subtable" tm_pa tm_iikaar
EndChar

StartChar: tm_m_iikaar
Encoding: 65572 -1 152
Width: 1054
GlyphClass: 2
Flags: W
LayerCount: 2
Fore
SplineSet
1200 864 m 0,0,1
 1220 830 1220 830 1220 798 c 0,2,3
 1220 714 1220 714 1112 714 c 0,4,5
 940 714 940 714 644 896 c 1,6,7
 592 876 592 876 592 818 c 0,8,9
 592 764 592 764 638 730 c 1,10,11
 696 768 696 768 774 768 c 0,12,13
 912 768 912 768 980 648 c 0,14,15
 1024 572 1024 572 1024 484 c 0,16,17
 1024 298 1024 298 856 152 c 0,18,19
 682 0 682 0 436 0 c 0,20,21
 316 0 316 0 246 26 c 0,22,23
 140 68 140 68 74 180 c 0,24,25
 30 256 30 256 30 336 c 0,26,27
 30 500 30 500 210 768 c 1,28,-1
 406 768 l 1,29,30
 180 460 180 460 180 298 c 0,31,32
 180 216 180 216 234 163 c 128,-1,33
 288 110 288 110 372 110 c 0,34,35
 404 110 404 110 424 120 c 1,36,37
 402 202 402 202 402 278 c 0,38,39
 402 494 402 494 560 648 c 1,40,41
 508 704 508 704 482 748 c 0,42,43
 444 814 444 814 444 870 c 0,44,45
 444 954 444 954 528 1001 c 128,-1,46
 612 1048 612 1048 766 1048 c 0,47,48
 1094 1048 1094 1048 1200 864 c 0,0,1
1056 858 m 0,49,50
 1020 920 1020 920 806 926 c 1,51,52
 958 830 958 830 1044 830 c 0,53,54
 1054 830 1054 830 1058 840 c 0,55,56
 1062 848 1062 848 1056 858 c 0,49,50
796 624 m 0,57,58
 766 624 766 624 710 574 c 128,-1,59
 654 524 654 524 632 482 c 0,60,61
 548 322 548 322 550 180 c 1,62,63
 746 290 746 290 788 356 c 0,64,65
 880 500 880 500 880 550 c 0,66,67
 880 576 880 576 866 600 c 128,-1,68
 852 624 852 624 796 624 c 0,57,58
EndSplineSet
Ligature2: "'abvs' Above Base Substitutions lookup 6 subtable" tm_ma tm_iikaar
EndChar

StartChar: tm_y_iikaar
Encoding: 65573 -1 153
Width: 1028
GlyphClass: 2
Flags: W
LayerCount: 2
Fore
SplineSet
1372 872 m 0,0,1
 1380 858 1380 858 1380 842 c 0,2,3
 1380 806 1380 806 1338 779 c 128,-1,4
 1296 752 1296 752 1232 752 c 0,5,6
 1140 752 1140 752 1021 792 c 128,-1,7
 902 832 902 832 824 892 c 1,8,9
 782 868 782 868 782 808 c 0,10,11
 782 770 782 770 804 732 c 0,12,13
 812 720 812 720 854 668 c 1,14,15
 860 698 860 698 862 768 c 1,16,-1
 1010 768 l 1,17,18
 1014 702 1014 702 1014 640 c 0,19,20
 1014 338 1014 338 916 160 c 0,21,22
 824 0 824 0 690 0 c 0,23,24
 644 0 644 0 571 53 c 128,-1,25
 498 106 498 106 462 168 c 0,26,27
 436 212 436 212 416 300 c 1,28,29
 400 200 400 200 355 142 c 128,-1,30
 310 84 310 84 248 84 c 0,31,32
 204 84 204 84 154 114 c 128,-1,33
 104 144 104 144 76 190 c 0,34,35
 26 274 26 274 26 448 c 0,36,37
 26 510 26 510 44 768 c 1,38,-1
 198 768 l 1,39,40
 202 654 202 654 192 514 c 0,41,42
 182 360 182 360 182 338 c 0,43,44
 182 242 182 242 210 242 c 0,45,46
 230 242 230 242 266 338 c 0,47,48
 306 442 306 442 328 570 c 1,49,-1
 522 570 l 1,50,51
 520 318 520 318 590 196 c 0,52,53
 612 158 612 158 636 158 c 0,54,55
 694 158 694 158 748 240 c 0,56,57
 814 338 814 338 842 520 c 1,58,59
 746 582 746 582 678 700 c 0,60,61
 626 788 626 788 626 868 c 0,62,63
 626 1080 626 1080 938 1080 c 0,64,65
 1070 1080 1070 1080 1200 1018 c 0,66,67
 1324 956 1324 956 1372 872 c 0,0,1
1196 902 m 0,68,69
 1184 924 1184 924 1066 950 c 0,70,71
 984 968 984 968 922 960 c 1,72,73
 964 918 964 918 1090 882 c 0,74,75
 1112 876 1112 876 1136 876 c 0,76,77
 1210 876 1210 876 1196 902 c 0,68,69
EndSplineSet
Ligature2: "'abvs' Above Base Substitutions lookup 6 subtable" tm_ya tm_iikaar
EndChar

StartChar: tm_r_iikaar
Encoding: 65574 -1 154
Width: 684
GlyphClass: 2
Flags: W
LayerCount: 2
Fore
SplineSet
606 208 m 0,0,1
 630 66 630 66 630 -20 c 0,2,3
 630 -150 630 -150 572 -204 c 128,-1,4
 514 -258 514 -258 376 -258 c 0,5,6
 196 -258 196 -258 46 -170 c 1,7,-1
 76 -54 l 1,8,9
 196 -112 196 -112 310 -112 c 0,10,11
 466 -112 466 -112 466 64 c 0,12,13
 466 116 466 116 454 188 c 0,14,15
 402 513 402 513 364 596 c 1,16,17
 257 608 257 608 172 198 c 1,18,-1
 12 280 l 1,19,20
 9 298 9 298 11 322 c 0,21,22
 10 382 10 382 57 487 c 0,23,24
 77 535 77 535 104 592 c 1,25,26
 56 632 56 632 42 648 c 0,27,28
 14 676 14 676 -12 722 c 0,29,30
 -64 812 -64 812 -64 884 c 0,31,32
 -64 974 -64 974 16 1023 c 128,-1,33
 96 1072 96 1072 236 1072 c 0,34,35
 360 1072 360 1072 494 1018 c 0,36,37
 638 960 638 960 686 876 c 0,38,39
 700 852 700 852 700 830 c 0,40,41
 700 790 700 790 659 768 c 128,-1,42
 618 746 618 746 568 746 c 0,43,44
 338 746 338 746 154 904 c 1,45,46
 114 900 114 900 114 824 c 0,47,48
 114 778 114 778 136 740 c 0,49,50
 149 717 149 717 175 694 c 1,51,52
 207 735 207 735 237 754 c 0,53,54
 259 770 259 770 288 770 c 0,55,56
 342 770 342 770 407 735 c 128,-1,57
 472 700 472 700 500 650 c 0,58,59
 541 579 541 579 541 526 c 1,60,61
 572 414 572 414 606 208 c 0,0,1
534 882 m 0,62,63
 516 912 516 912 429 938 c 128,-1,64
 342 964 342 964 278 956 c 1,65,66
 284 942 284 942 346 906 c 0,67,68
 416 868 416 868 460 864 c 0,69,70
 488 862 488 862 513 868 c 128,-1,71
 538 874 538 874 534 882 c 0,62,63
EndSplineSet
Ligature2: "'abvs' Above Base Substitutions lookup 5 subtable" tm_ra tm_iikaar
EndChar

StartChar: tm_rr_iikaar
Encoding: 65575 -1 155
Width: 1132
GlyphClass: 2
Flags: W
LayerCount: 2
Fore
SplineSet
1106 786 m 0,0,1
 1122 760 1122 760 1122 736 c 0,2,3
 1122 696 1122 696 1079 672 c 128,-1,4
 1036 648 1036 648 974 648 c 0,5,6
 882 648 882 648 756 716 c 0,7,8
 694 750 694 750 632 784 c 1,9,10
 626 778 626 778 626 766 c 0,11,12
 626 736 626 736 650 674 c 1,13,14
 702 686 702 686 722 686 c 0,15,16
 808 686 808 686 863 591 c 128,-1,17
 918 496 918 496 918 336 c 0,18,19
 918 106 918 106 804 -92 c 0,20,21
 752 -180 752 -180 651 -239 c 128,-1,22
 550 -298 550 -298 446 -298 c 0,23,24
 390 -298 390 -298 296 -269 c 128,-1,25
 202 -240 202 -240 146 -208 c 1,26,-1
 162 -92 l 1,27,28
 278 -162 278 -162 342 -162 c 0,29,30
 432 -162 432 -162 536 -106 c 0,31,32
 634 -54 634 -54 668 2 c 0,33,34
 754 144 754 144 754 372 c 0,35,36
 754 470 754 470 732 548 c 1,37,38
 592 466 592 466 550 376 c 0,39,40
 496 256 496 256 496 142 c 0,41,42
 496 106 496 106 500 72 c 1,43,44
 464 74 464 74 376 78 c 1,45,46
 354 164 354 164 346 316 c 0,47,48
 338 508 338 508 334 538 c 1,49,50
 184 388 184 388 146 204 c 1,51,-1
 -4 298 l 1,52,53
 38 438 38 438 124 556 c 1,54,55
 210 662 210 662 298 768 c 1,56,-1
 452 678 l 1,57,58
 448 666 448 666 458 532 c 1,59,60
 462 542 462 542 512 602 c 1,61,62
 476 688 476 688 476 758 c 0,63,64
 476 868 476 868 562 928 c 0,65,66
 642 982 642 982 772 982 c 0,67,68
 994 982 994 982 1106 786 c 0,0,1
784 854 m 0,69,70
 758 854 758 854 740 850 c 1,71,72
 768 822 768 822 816 798 c 0,73,74
 858 778 858 778 878 778 c 0,75,76
 940 778 940 778 940 802 c 256,77,78
 940 826 940 826 872 842 c 0,79,80
 818 854 818 854 784 854 c 0,69,70
EndSplineSet
Ligature2: "'abvs' Above Base Substitutions lookup 6 subtable" tm_rra tm_iikaar
EndChar

StartChar: tm_l_iikaar
Encoding: 65576 -1 156
Width: 1096
GlyphClass: 2
Flags: W
LayerCount: 2
Fore
SplineSet
1412 838 m 0,0,1
 1432 804 1432 804 1432 776 c 0,2,3
 1432 700 1432 700 1316 700 c 0,4,5
 1248 700 1248 700 1130 762 c 0,6,7
 1002 826 1002 826 888 924 c 1,8,9
 850 922 850 922 824 887 c 128,-1,10
 798 852 798 852 798 800 c 0,11,12
 798 746 798 746 830 692 c 0,13,14
 852 654 852 654 906 608 c 1,15,16
 910 672 910 672 878 768 c 1,17,-1
 1014 768 l 1,18,19
 1066 614 1066 614 1066 466 c 0,20,21
 1066 278 1066 278 977 134 c 128,-1,22
 888 -10 888 -10 726 -10 c 0,23,24
 670 -10 670 -10 608 34 c 128,-1,25
 546 78 546 78 516 132 c 0,26,27
 454 238 454 238 454 398 c 0,28,29
 454 500 454 500 484 588 c 1,30,31
 392 558 392 558 274 416 c 1,32,33
 384 386 384 386 430 306 c 0,34,35
 458 258 458 258 458 198 c 0,36,37
 458 116 458 116 410 60 c 0,38,39
 356 -4 356 -4 268 -4 c 0,40,41
 128 -4 128 -4 64 108 c 0,42,43
 28 170 28 170 28 246 c 0,44,45
 28 404 28 404 164 552 c 0,46,47
 310 712 310 712 544 776 c 1,48,-1
 706 632 l 1,49,50
 668 602 668 602 634 530 c 0,51,52
 592 440 592 440 592 350 c 0,53,54
 592 264 592 264 634 190 c 0,55,56
 672 124 672 124 706 124 c 0,57,58
 770 126 770 126 834 237 c 128,-1,59
 898 348 898 348 902 448 c 1,60,61
 748 580 748 580 688 684 c 0,62,63
 632 782 632 782 632 868 c 0,64,65
 632 970 632 970 707 1032 c 128,-1,66
 782 1094 782 1094 914 1094 c 0,67,68
 1054 1094 1054 1094 1194 1026 c 0,69,70
 1346 954 1346 954 1412 838 c 0,0,1
1248 862 m 0,71,72
 1226 900 1226 900 1143 938 c 128,-1,73
 1060 976 1060 976 1026 966 c 1,74,75
 1042 930 1042 930 1115 888 c 128,-1,76
 1188 846 1188 846 1232 846 c 0,77,78
 1250 846 1250 846 1250 846 c 2,79,80
 1256 848 1256 848 1248 862 c 0,71,72
288 274 m 0,81,82
 268 310 268 310 234 310 c 0,83,84
 218 310 218 310 204 270 c 128,-1,85
 190 230 190 230 190 190 c 0,86,87
 190 164 190 164 198 152 c 0,88,89
 214 124 214 124 246 124 c 0,90,91
 266 124 266 124 281 160 c 128,-1,92
 296 196 296 196 296 234 c 0,93,94
 296 260 296 260 288 274 c 0,81,82
EndSplineSet
Ligature2: "'abvs' Above Base Substitutions lookup 5 subtable" tm_la tm_iikaar
EndChar

StartChar: tm_ll_iikaar
Encoding: 65577 -1 157
Width: 1236
GlyphClass: 2
Flags: W
LayerCount: 2
Fore
SplineSet
1326 830 m 0,0,1
 1326 686 1326 686 1132 686 c 0,2,3
 1008 686 1008 686 904 722 c 1,4,5
 914 686 914 686 956 598 c 1,6,7
 1086 614 1086 614 1160 486 c 0,8,9
 1206 406 1206 406 1206 272 c 0,10,11
 1206 236 1206 236 1202 146 c 128,-1,12
 1198 56 1198 56 1198 0 c 1,13,-1
 1056 0 l 1,14,15
 1056 36 1056 36 1060 126 c 128,-1,16
 1064 216 1064 216 1064 260 c 0,17,18
 1064 416 1064 416 1026 452 c 1,19,20
 978 384 978 384 930 316 c 1,21,22
 864 194 864 194 856 0 c 1,23,-1
 726 0 l 1,24,25
 712 58 712 58 672 310 c 0,26,27
 646 484 646 484 607 551 c 128,-1,28
 568 618 568 618 514 618 c 0,29,30
 454 618 454 618 414 570 c 1,31,32
 508 526 508 526 570 418 c 0,33,34
 614 342 614 342 614 258 c 0,35,36
 614 152 614 152 548 76 c 128,-1,37
 482 0 482 0 380 0 c 0,38,39
 270 0 270 0 172 68 c 0,40,41
 98 122 98 122 62 184 c 0,42,43
 30 240 30 240 30 306 c 0,44,45
 30 486 30 486 212 636 c 0,46,47
 376 772 376 772 476 772 c 0,48,49
 624 772 624 772 722 602 c 0,50,51
 764 528 764 528 784 418 c 1,52,53
 796 446 796 446 846 496 c 1,54,55
 822 522 822 522 796 568 c 0,56,57
 720 700 720 700 720 822 c 0,58,59
 720 1062 720 1062 1006 1062 c 0,60,61
 1116 1062 1116 1062 1214 1002 c 0,62,63
 1326 934 1326 934 1326 830 c 0,0,1
1142 894 m 0,64,65
 1132 912 1132 912 1050 912 c 0,66,67
 974 912 974 912 930 854 c 1,68,69
 1010 824 1010 824 1038 824 c 0,70,71
 1082 824 1082 824 1114 842 c 128,-1,72
 1146 860 1146 860 1146 882 c 0,73,74
 1146 888 1146 888 1142 894 c 0,64,65
390 446 m 0,75,76
 362 466 362 466 328 466 c 0,77,78
 316 466 316 466 304 464 c 1,79,80
 208 348 208 348 208 254 c 0,81,82
 208 216 208 216 226 186 c 0,83,84
 256 134 256 134 300 134 c 0,85,86
 352 134 352 134 400 195 c 128,-1,87
 448 256 448 256 448 326 c 0,88,89
 448 402 448 402 390 446 c 0,75,76
EndSplineSet
Ligature2: "'abvs' Above Base Substitutions lookup 6 subtable" tm_lla tm_iikaar
EndChar

StartChar: tm_lll_iikaar
Encoding: 65578 -1 158
Width: 1064
GlyphClass: 2
Flags: W
LayerCount: 2
Fore
SplineSet
1128 844 m 0,0,1
 1152 802 1152 802 1152 770 c 0,2,3
 1152 702 1152 702 1052 702 c 0,4,5
 858 702 858 702 626 896 c 1,6,7
 594 874 594 874 594 828 c 0,8,9
 594 784 594 784 632 740 c 1,10,11
 670 772 670 772 746 772 c 0,12,13
 816 772 816 772 896 714 c 0,14,15
 964 666 964 666 992 616 c 0,16,17
 1032 544 1032 544 1032 466 c 0,18,19
 1032 332 1032 332 922 192 c 0,20,21
 830 76 830 76 706 0 c 1,22,23
 782 -86 782 -86 938 -124 c 1,24,-1
 916 -244 l 1,25,26
 822 -224 822 -224 740 -178 c 1,27,28
 600 -284 600 -284 442 -284 c 0,29,30
 302 -284 302 -284 140 -199 c 128,-1,31
 -22 -114 -22 -114 -94 0 c 1,32,-1
 68 0 l 1,33,34
 122 -56 122 -56 212 -100 c 0,35,36
 310 -146 310 -146 390 -146 c 0,37,38
 534 -146 534 -146 594 -78 c 1,39,-1
 562 -54 l 1,40,41
 544 -76 544 -76 452 -76 c 0,42,43
 330 -76 330 -76 208 24 c 0,44,45
 118 98 118 98 73 175 c 128,-1,46
 28 252 28 252 28 348 c 0,47,48
 28 510 28 510 158 768 c 1,49,-1
 350 768 l 1,50,51
 200 518 200 518 200 316 c 0,52,53
 200 210 200 210 236 146 c 0,54,55
 252 116 252 116 294 91 c 128,-1,56
 336 66 336 66 372 66 c 0,57,58
 432 66 432 66 454 84 c 1,59,60
 406 188 406 188 406 330 c 0,61,62
 406 452 406 452 446 530 c 1,63,64
 462 570 462 570 526 658 c 1,65,66
 490 696 490 696 460 750 c 0,67,68
 420 820 420 820 420 882 c 0,69,70
 420 972 420 972 504 1030 c 0,71,72
 576 1080 576 1080 664 1080 c 0,73,74
 794 1080 794 1080 910 1030 c 0,75,76
 1056 968 1056 968 1128 844 c 0,0,1
988 846 m 0,77,78
 970 876 970 876 900 911 c 128,-1,79
 830 946 830 946 776 946 c 0,80,81
 756 946 756 946 742 940 c 1,82,83
 886 840 886 840 968 840 c 0,84,85
 992 840 992 840 988 846 c 0,77,78
778 622 m 0,86,87
 722 622 722 622 628 468 c 0,88,89
 566 364 566 364 566 252 c 0,90,91
 566 198 566 198 584 164 c 1,92,93
 638 160 638 160 794 352 c 0,94,95
 866 440 866 440 866 534 c 0,96,97
 866 572 866 572 841 597 c 128,-1,98
 816 622 816 622 778 622 c 0,86,87
EndSplineSet
Ligature2: "'abvs' Above Base Substitutions lookup 6 subtable" tm_llla tm_iikaar
EndChar

StartChar: tm_v_iikaar
Encoding: 65579 -1 159
Width: 1148
GlyphClass: 2
Flags: W
LayerCount: 2
Fore
SplineSet
1384 926 m 0,0,1
 1412 878 1412 878 1412 842 c 0,2,3
 1412 766 1412 766 1290 766 c 0,4,5
 1226 766 1226 766 1120 814 c 128,-1,6
 1014 862 1014 862 938 930 c 1,7,8
 896 926 896 926 860 885 c 128,-1,9
 824 844 824 844 824 786 c 0,10,11
 824 738 824 738 852 688 c 0,12,13
 890 624 890 624 954 594 c 1,14,15
 950 682 950 682 912 768 c 1,16,-1
 1064 768 l 1,17,18
 1124 522 1124 522 1114 332 c 0,19,20
 1106 162 1106 162 1054 86 c 0,21,22
 980 -22 980 -22 786 -22 c 0,23,24
 642 -22 642 -22 448 42 c 1,25,-1
 466 220 l 1,26,27
 536 248 536 248 586 336 c 128,-1,28
 636 424 636 424 636 506 c 0,29,30
 636 550 636 550 620 580 c 0,31,32
 588 634 588 634 528 634 c 0,33,34
 486 634 486 634 391 571 c 128,-1,35
 296 508 296 508 274 464 c 1,36,37
 332 428 332 428 348 416 c 0,38,39
 376 392 376 392 402 347 c 128,-1,40
 428 302 428 302 428 230 c 0,41,42
 428 146 428 146 390 90 c 0,43,44
 344 24 344 24 258 24 c 0,45,46
 146 24 146 24 68 160 c 0,47,48
 28 230 28 230 28 328 c 0,49,50
 28 502 28 502 163 637 c 128,-1,51
 298 772 298 772 474 772 c 0,52,53
 654 772 654 772 756 594 c 0,54,55
 806 506 806 506 806 420 c 0,56,57
 806 244 806 244 628 132 c 1,58,59
 660 118 660 118 734 118 c 0,60,61
 954 118 954 118 954 398 c 0,62,63
 954 428 954 428 952 460 c 1,64,65
 796 546 796 546 728 664 c 0,66,67
 674 756 674 756 674 840 c 0,68,69
 674 956 674 956 766 1028 c 128,-1,70
 858 1100 858 1100 984 1100 c 0,71,72
 1106 1100 1106 1100 1218 1054 c 0,73,74
 1340 1004 1340 1004 1384 926 c 0,0,1
1242 904 m 0,75,76
 1210 960 1210 960 1084 960 c 0,77,78
 1062 960 1062 960 1050 956 c 1,79,80
 1144 878 1144 878 1230 878 c 0,81,82
 1258 878 1258 878 1242 904 c 0,75,76
222 374 m 0,83,84
 210 374 210 374 197 328 c 128,-1,85
 184 282 184 282 184 232 c 0,86,87
 184 162 184 162 212 148 c 1,88,89
 234 156 234 156 254 194 c 128,-1,90
 274 232 274 232 274 274 c 0,91,92
 274 314 274 314 257 344 c 128,-1,93
 240 374 240 374 222 374 c 0,83,84
EndSplineSet
Ligature2: "'abvs' Above Base Substitutions lookup 6 subtable" tm_va tm_iikaar
EndChar

